<mxfile host="Electron" agent="Mozilla/5.0 (Windows NT 10.0; Win64; x64) AppleWebKit/537.36 (KHTML, like Gecko) draw.io/26.0.16 Chrome/132.0.6834.196 Electron/34.2.0 Safari/537.36" version="26.0.16">
  <diagram name="Page-1" id="N3Pxqse3aqgtCmO72lfD">
    <mxGraphModel dx="4011" dy="1286" grid="1" gridSize="10" guides="1" tooltips="1" connect="1" arrows="1" fold="1" page="1" pageScale="1" pageWidth="850" pageHeight="1100" math="0" shadow="0">
      <root>
        <mxCell id="0" />
        <mxCell id="1" parent="0" />
        <mxCell id="5E6Cu8GsaL4DrAJmpiM5-1" value="&lt;font style=&quot;font-size: 14px;&quot;&gt;INPUT:&amp;nbsp;&amp;nbsp;&lt;/font&gt;&lt;div&gt;&lt;font size=&quot;3&quot;&gt;rst: reset&lt;/font&gt;&lt;/div&gt;&lt;div&gt;&lt;font size=&quot;3&quot;&gt;clk: clock&lt;/font&gt;&lt;/div&gt;&lt;div&gt;&lt;font size=&quot;3&quot;&gt;num[4:0]&lt;/font&gt;&lt;/div&gt;&lt;div&gt;&lt;font size=&quot;3&quot;&gt;inc_pc: increment counter&lt;/font&gt;&lt;/div&gt;&lt;div&gt;&lt;font size=&quot;3&quot;&gt;lc_pc :load proggram counter&lt;/font&gt;&lt;/div&gt;&lt;div&gt;&lt;font size=&quot;3&quot;&gt;sel: select&lt;/font&gt;&lt;/div&gt;" style="rounded=0;whiteSpace=wrap;html=1;align=left;" parent="1" vertex="1">
          <mxGeometry x="1020" y="155" width="220" height="170" as="geometry" />
        </mxCell>
        <mxCell id="5E6Cu8GsaL4DrAJmpiM5-4" value="" style="endArrow=classic;html=1;rounded=0;" parent="1" edge="1">
          <mxGeometry width="50" height="50" relative="1" as="geometry">
            <mxPoint x="-750" y="570" as="sourcePoint" />
            <mxPoint x="-670" y="570" as="targetPoint" />
          </mxGeometry>
        </mxCell>
        <mxCell id="5E6Cu8GsaL4DrAJmpiM5-13" value="clk_pc" style="edgeLabel;html=1;align=left;verticalAlign=middle;resizable=0;points=[];fontSize=13;" parent="5E6Cu8GsaL4DrAJmpiM5-4" vertex="1" connectable="0">
          <mxGeometry x="-0.325" y="-2" relative="1" as="geometry">
            <mxPoint x="-27" y="-12" as="offset" />
          </mxGeometry>
        </mxCell>
        <mxCell id="5E6Cu8GsaL4DrAJmpiM5-6" value="" style="endArrow=classic;html=1;rounded=0;entryX=0;entryY=0.25;entryDx=0;entryDy=0;" parent="1" edge="1">
          <mxGeometry width="50" height="50" relative="1" as="geometry">
            <mxPoint x="-750" y="630" as="sourcePoint" />
            <mxPoint x="-670" y="630" as="targetPoint" />
            <Array as="points">
              <mxPoint x="-710" y="630" />
            </Array>
          </mxGeometry>
        </mxCell>
        <mxCell id="5E6Cu8GsaL4DrAJmpiM5-19" value="inc_pc" style="edgeLabel;html=1;align=left;verticalAlign=middle;resizable=0;points=[];fontSize=13;" parent="5E6Cu8GsaL4DrAJmpiM5-6" vertex="1" connectable="0">
          <mxGeometry x="-0.2298" y="-1" relative="1" as="geometry">
            <mxPoint x="-31" y="-11" as="offset" />
          </mxGeometry>
        </mxCell>
        <mxCell id="5E6Cu8GsaL4DrAJmpiM5-8" value="" style="endArrow=classic;html=1;rounded=0;entryX=0;entryY=0.25;entryDx=0;entryDy=0;" parent="1" edge="1">
          <mxGeometry width="50" height="50" relative="1" as="geometry">
            <mxPoint x="-750" y="540" as="sourcePoint" />
            <mxPoint x="-670" y="540" as="targetPoint" />
          </mxGeometry>
        </mxCell>
        <mxCell id="5E6Cu8GsaL4DrAJmpiM5-10" value="&lt;font&gt;rst_pc&lt;/font&gt;" style="edgeLabel;html=1;align=left;verticalAlign=middle;resizable=0;points=[];fontSize=13;" parent="5E6Cu8GsaL4DrAJmpiM5-8" vertex="1" connectable="0">
          <mxGeometry x="-0.1375" y="2" relative="1" as="geometry">
            <mxPoint x="-34" y="-8" as="offset" />
          </mxGeometry>
        </mxCell>
        <mxCell id="5E6Cu8GsaL4DrAJmpiM5-17" value="" style="endArrow=classic;html=1;rounded=0;entryX=0;entryY=0.25;entryDx=0;entryDy=0;" parent="1" edge="1">
          <mxGeometry width="50" height="50" relative="1" as="geometry">
            <mxPoint x="-750" y="600" as="sourcePoint" />
            <mxPoint x="-670" y="600" as="targetPoint" />
          </mxGeometry>
        </mxCell>
        <mxCell id="5E6Cu8GsaL4DrAJmpiM5-18" value="sel_pc" style="edgeLabel;html=1;align=left;verticalAlign=middle;resizable=0;points=[];fontSize=13;" parent="5E6Cu8GsaL4DrAJmpiM5-17" vertex="1" connectable="0">
          <mxGeometry x="-0.194" y="1" relative="1" as="geometry">
            <mxPoint x="-32" y="-9" as="offset" />
          </mxGeometry>
        </mxCell>
        <mxCell id="5E6Cu8GsaL4DrAJmpiM5-20" value="" style="endArrow=classic;html=1;rounded=0;entryX=0;entryY=0.25;entryDx=0;entryDy=0;" parent="1" edge="1">
          <mxGeometry width="50" height="50" relative="1" as="geometry">
            <mxPoint x="-750" y="670" as="sourcePoint" />
            <mxPoint x="-670" y="670" as="targetPoint" />
          </mxGeometry>
        </mxCell>
        <mxCell id="5E6Cu8GsaL4DrAJmpiM5-21" value="ld_pc" style="edgeLabel;html=1;align=left;verticalAlign=middle;resizable=0;points=[];fontSize=13;" parent="5E6Cu8GsaL4DrAJmpiM5-20" vertex="1" connectable="0">
          <mxGeometry x="-0.206" y="-1" relative="1" as="geometry">
            <mxPoint x="-32" y="-11" as="offset" />
          </mxGeometry>
        </mxCell>
        <mxCell id="xE_OFD3fT7KBWJxoYlRs-8" style="edgeStyle=orthogonalEdgeStyle;rounded=0;orthogonalLoop=1;jettySize=auto;html=1;exitX=0.5;exitY=1;exitDx=0;exitDy=0;fillColor=#ffe6cc;strokeColor=#d79b00;" parent="1" source="xE_OFD3fT7KBWJxoYlRs-2" edge="1">
          <mxGeometry relative="1" as="geometry">
            <mxPoint x="-750" y="670" as="targetPoint" />
            <Array as="points">
              <mxPoint x="-200" y="670" />
              <mxPoint x="-200" y="770" />
              <mxPoint x="-820" y="770" />
              <mxPoint x="-820" y="670" />
            </Array>
          </mxGeometry>
        </mxCell>
        <mxCell id="xE_OFD3fT7KBWJxoYlRs-16" value="ld_pc" style="edgeLabel;html=1;align=left;verticalAlign=middle;resizable=0;points=[];fontSize=13;" parent="xE_OFD3fT7KBWJxoYlRs-8" vertex="1" connectable="0">
          <mxGeometry x="-0.9137" y="2" relative="1" as="geometry">
            <mxPoint x="-1" y="-8" as="offset" />
          </mxGeometry>
        </mxCell>
        <mxCell id="xE_OFD3fT7KBWJxoYlRs-10" style="edgeStyle=orthogonalEdgeStyle;rounded=0;orthogonalLoop=1;jettySize=auto;html=1;exitX=0.995;exitY=0.624;exitDx=0;exitDy=0;exitPerimeter=0;fillColor=#ffe6cc;strokeColor=#d79b00;" parent="1" source="xE_OFD3fT7KBWJxoYlRs-2" edge="1">
          <mxGeometry relative="1" as="geometry">
            <mxPoint x="-750" y="630" as="targetPoint" />
            <Array as="points">
              <mxPoint x="-170" y="640" />
              <mxPoint x="-170" y="800" />
              <mxPoint x="-850" y="800" />
              <mxPoint x="-850" y="630" />
            </Array>
          </mxGeometry>
        </mxCell>
        <mxCell id="xE_OFD3fT7KBWJxoYlRs-17" value="inc_pc" style="edgeLabel;html=1;align=left;verticalAlign=middle;resizable=0;points=[];fontSize=13;" parent="xE_OFD3fT7KBWJxoYlRs-10" vertex="1" connectable="0">
          <mxGeometry x="-0.9655" y="1" relative="1" as="geometry">
            <mxPoint x="-20" y="-9" as="offset" />
          </mxGeometry>
        </mxCell>
        <mxCell id="xE_OFD3fT7KBWJxoYlRs-18" style="edgeStyle=orthogonalEdgeStyle;rounded=0;orthogonalLoop=1;jettySize=auto;html=1;fillColor=#ffe6cc;strokeColor=#d79b00;" parent="1" source="xE_OFD3fT7KBWJxoYlRs-2" edge="1">
          <mxGeometry relative="1" as="geometry">
            <mxPoint x="-750" y="600" as="targetPoint" />
            <Array as="points">
              <mxPoint x="-140" y="610" />
              <mxPoint x="-140" y="880" />
              <mxPoint x="-880" y="880" />
              <mxPoint x="-880" y="600" />
            </Array>
          </mxGeometry>
        </mxCell>
        <mxCell id="xE_OFD3fT7KBWJxoYlRs-19" value="sel" style="edgeLabel;html=1;align=center;verticalAlign=middle;resizable=0;points=[];fontSize=13;" parent="xE_OFD3fT7KBWJxoYlRs-18" vertex="1" connectable="0">
          <mxGeometry x="-0.9609" relative="1" as="geometry">
            <mxPoint x="-14" y="-10" as="offset" />
          </mxGeometry>
        </mxCell>
        <mxCell id="xE_OFD3fT7KBWJxoYlRs-2" value="&lt;font style=&quot;font-size: 15px;&quot;&gt;controller&lt;/font&gt;" style="ellipse;whiteSpace=wrap;html=1;aspect=fixed;" parent="1" vertex="1">
          <mxGeometry x="-300" y="590" width="80" height="80" as="geometry" />
        </mxCell>
        <mxCell id="xE_OFD3fT7KBWJxoYlRs-6" style="edgeStyle=orthogonalEdgeStyle;rounded=0;orthogonalLoop=1;jettySize=auto;html=1;entryX=0;entryY=0.5;entryDx=0;entryDy=0;" parent="1" source="xE_OFD3fT7KBWJxoYlRs-3" target="xE_OFD3fT7KBWJxoYlRs-2" edge="1">
          <mxGeometry relative="1" as="geometry">
            <Array as="points">
              <mxPoint x="-310" y="630" />
              <mxPoint x="-310" y="630" />
            </Array>
          </mxGeometry>
        </mxCell>
        <mxCell id="xE_OFD3fT7KBWJxoYlRs-7" value="inst [7:5]" style="edgeLabel;html=1;align=left;verticalAlign=middle;resizable=0;points=[];fontSize=13;" parent="xE_OFD3fT7KBWJxoYlRs-6" vertex="1" connectable="0">
          <mxGeometry x="0.7455" relative="1" as="geometry">
            <mxPoint x="-60" y="-10" as="offset" />
          </mxGeometry>
        </mxCell>
        <mxCell id="xE_OFD3fT7KBWJxoYlRs-13" style="edgeStyle=orthogonalEdgeStyle;rounded=0;orthogonalLoop=1;jettySize=auto;html=1;exitX=1;exitY=0.75;exitDx=0;exitDy=0;fillColor=#f8cecc;strokeColor=#b85450;" parent="1" source="xE_OFD3fT7KBWJxoYlRs-3" edge="1">
          <mxGeometry relative="1" as="geometry">
            <mxPoint x="-750" y="700" as="targetPoint" />
            <Array as="points">
              <mxPoint x="-320" y="670" />
              <mxPoint x="-320" y="740" />
              <mxPoint x="-790" y="740" />
              <mxPoint x="-790" y="700" />
            </Array>
          </mxGeometry>
        </mxCell>
        <mxCell id="xE_OFD3fT7KBWJxoYlRs-14" value="inst [4:0]" style="edgeLabel;html=1;align=left;verticalAlign=middle;resizable=0;points=[];fontSize=13;" parent="xE_OFD3fT7KBWJxoYlRs-13" vertex="1" connectable="0">
          <mxGeometry x="-0.9492" relative="1" as="geometry">
            <mxPoint x="-7" y="-10" as="offset" />
          </mxGeometry>
        </mxCell>
        <mxCell id="xE_OFD3fT7KBWJxoYlRs-3" value="&lt;font style=&quot;font-size: 15px;&quot;&gt;instruction&lt;/font&gt;&lt;div&gt;&lt;font style=&quot;font-size: 15px;&quot;&gt;memory&lt;/font&gt;&lt;/div&gt;" style="rounded=0;whiteSpace=wrap;html=1;" parent="1" vertex="1">
          <mxGeometry x="-480" y="520" width="100" height="200" as="geometry" />
        </mxCell>
        <mxCell id="xE_OFD3fT7KBWJxoYlRs-4" value="&lt;font style=&quot;font-size: 15px;&quot;&gt;proggram&lt;/font&gt;&lt;div&gt;&lt;font style=&quot;font-size: 15px;&quot;&gt;counter&lt;/font&gt;&lt;/div&gt;" style="rounded=0;whiteSpace=wrap;html=1;" parent="1" vertex="1">
          <mxGeometry x="-670" y="520" width="90" height="200" as="geometry" />
        </mxCell>
        <mxCell id="xE_OFD3fT7KBWJxoYlRs-5" value="" style="group" parent="1" vertex="1" connectable="0">
          <mxGeometry x="-580" y="630" width="100" as="geometry" />
        </mxCell>
        <mxCell id="5E6Cu8GsaL4DrAJmpiM5-24" value="" style="endArrow=dash;html=1;rounded=0;endFill=0;" parent="xE_OFD3fT7KBWJxoYlRs-5" edge="1">
          <mxGeometry width="50" height="50" relative="1" as="geometry">
            <mxPoint as="sourcePoint" />
            <mxPoint x="50" as="targetPoint" />
            <Array as="points">
              <mxPoint x="10" />
              <mxPoint x="40" />
            </Array>
          </mxGeometry>
        </mxCell>
        <mxCell id="5E6Cu8GsaL4DrAJmpiM5-25" value="out_pc [4:0]" style="edgeLabel;html=1;align=left;verticalAlign=middle;resizable=0;points=[];fontSize=13;" parent="5E6Cu8GsaL4DrAJmpiM5-24" vertex="1" connectable="0">
          <mxGeometry x="-0.0133" y="-1" relative="1" as="geometry">
            <mxPoint x="-15" y="-11" as="offset" />
          </mxGeometry>
        </mxCell>
        <mxCell id="5E6Cu8GsaL4DrAJmpiM5-26" value="5" style="edgeLabel;html=1;align=center;verticalAlign=middle;resizable=0;points=[];" parent="5E6Cu8GsaL4DrAJmpiM5-24" vertex="1" connectable="0">
          <mxGeometry x="-0.2" y="1" relative="1" as="geometry">
            <mxPoint x="20" y="11" as="offset" />
          </mxGeometry>
        </mxCell>
        <mxCell id="5E6Cu8GsaL4DrAJmpiM5-27" value="" style="endArrow=classic;html=1;rounded=0;" parent="xE_OFD3fT7KBWJxoYlRs-5" edge="1">
          <mxGeometry width="50" height="50" relative="1" as="geometry">
            <mxPoint x="50" as="sourcePoint" />
            <mxPoint x="100" as="targetPoint" />
          </mxGeometry>
        </mxCell>
        <mxCell id="xE_OFD3fT7KBWJxoYlRs-12" value="" style="group" parent="1" vertex="1" connectable="0">
          <mxGeometry x="-750.32" y="700" width="80.32000000000005" height="0.39999999999997726" as="geometry" />
        </mxCell>
        <mxCell id="5E6Cu8GsaL4DrAJmpiM5-5" value="" style="endArrow=dash;html=1;rounded=0;endFill=0;" parent="xE_OFD3fT7KBWJxoYlRs-12" edge="1">
          <mxGeometry width="50" height="50" relative="1" as="geometry">
            <mxPoint as="sourcePoint" />
            <mxPoint x="50" as="targetPoint" />
            <Array as="points">
              <mxPoint x="40" />
            </Array>
          </mxGeometry>
        </mxCell>
        <mxCell id="5E6Cu8GsaL4DrAJmpiM5-15" value="jmp_pc [4:0]" style="edgeLabel;html=1;align=left;verticalAlign=middle;resizable=0;points=[];fontSize=13;" parent="5E6Cu8GsaL4DrAJmpiM5-5" vertex="1" connectable="0">
          <mxGeometry x="-0.0133" y="-1" relative="1" as="geometry">
            <mxPoint x="-25" y="-11" as="offset" />
          </mxGeometry>
        </mxCell>
        <mxCell id="5E6Cu8GsaL4DrAJmpiM5-16" value="5" style="edgeLabel;html=1;align=center;verticalAlign=middle;resizable=0;points=[];" parent="5E6Cu8GsaL4DrAJmpiM5-5" vertex="1" connectable="0">
          <mxGeometry x="-0.2" y="1" relative="1" as="geometry">
            <mxPoint x="20" y="11" as="offset" />
          </mxGeometry>
        </mxCell>
        <mxCell id="5E6Cu8GsaL4DrAJmpiM5-14" value="" style="endArrow=classic;html=1;rounded=0;entryX=0.002;entryY=0.44;entryDx=0;entryDy=0;entryPerimeter=0;" parent="xE_OFD3fT7KBWJxoYlRs-12" edge="1">
          <mxGeometry width="50" height="50" relative="1" as="geometry">
            <mxPoint x="50" as="sourcePoint" />
            <mxPoint x="80.32000000000005" y="0.39999999999997726" as="targetPoint" />
            <Array as="points" />
          </mxGeometry>
        </mxCell>
        <mxCell id="xE_OFD3fT7KBWJxoYlRs-21" value="" style="shape=image;verticalLabelPosition=bottom;labelBackgroundColor=default;verticalAlign=top;aspect=fixed;imageAspect=0;image=data:image/png,iVBORw0KGgoAAAANSUhEUgAAA34AAAGdCAYAAABNZqERAAAAAXNSR0IArs4c6QAAAARnQU1BAACxjwv8YQUAAAAJcEhZcwAADsMAAA7DAcdvqGQAAMV8SURBVHhe7Z0JvJTTG8dPRCQKEUpJouy7iFIpW4pWWStKabdFUvzttEgiipJIRBGyp7RZS0qFrC20WZMS85/vueetudOs7yz33rm/7+fzfmbeM+/MnfvMec85z3m2EoEgRgghhBBCCCFEzrKdexRCCCGEEEIIkaNI8RNCCCGEEEKIHEeKnxBCCCGEEELkOFL8hBBCCCGEECLHkeInhBBCCCGEEDmOFD8hhBBCCCGEyHGk+AkhhBBCCCFEjiPFTwghhBBCCCFyHCl+QgghhBBCCJHjlAgEcc8TZvTo0ea7775zZ0IIIYQQQgghCppbb73VPdsWX4ofHxjrQ0V24bc4/fTT7SGEEEIIIURBwFr0vffec2ci28TTCeTqKYQQQgghhBA5jhQ/IYQQQgghhMhxpPgJIYQQQgghRI4jxU8IIYQQQgghcpysJ3f56quvzIgRI8yMGTPs+U477WS22247G4R49dVXmz322MO2i8RRchchRDjPP/+8ee6559zZtjDuVqpUyRx00EGmZcuWpnz58u4VY1asWGE6depk/vzzT3sMHjzY1K5d270qhBBCRIa1aKLJXVi/Lly40J0FlZISJUyvXr3MySef7Fq2go7w119/2Wtg8+bN5qabbjKHHnqoPRd5FJrkLv/++6+57777zJFHHmnWrVtnnnrqKTNr1izz7rvvmoceesi88sorpmbNmjEXKn7o0qWLe1ZwTJkyxf5/QgiRLerUqWP69u1rx9wJEybY4+KLL7ZtN998s+nevbupXLmyufHGG03VqlXN0KFD3TuN2XPPPe01n3/+ufnoo4+s8ieEEEKkk0svvdTOSZs2bTIvvPCC3bBs2rRpxJJxrOfbtm1r3n77bXPSSSeZHj16mCpVqrhXk6e4rs2zpvixe9y7d29z0UUXmZEjR5pq1aq5V4ypUaOGeeedd+wP2Lp1a/PII4+4V1KDxcqYMWPcWcHB/7ZkyRJ3JoQQmadChQrmqKOOssqdB5trtB199NHWgsfEOW7cODtW8vzVV1+115UqVcpOrFgDhRBCiEyALsCchLdfnz59zM4772xWr15tzjvvPPPHH3+4q/I47LDDrBVrn332MQ0bNjTHH3+82WWXXdyryVNc1+ZZUfymT59uHn/8cfsc5S8S/Hjea+xA42qUKuwcFDT//fefefHFF92ZEEIULurVq2cf8fofO3asfS6EEEJkkxNOOMGMGjXKPl+wYIH1UGENnQmK89o8K4ofPrgsKthlPvjgg13rtmDeLVOmjPn999/NXXfd5Vr9gRaPq1JBc/3115tvv/3WncUmUx1cCCGiscMOO7hnxrrhp4tEx7NEr/MRji6EEKIIgddfv3797PPJkydb/cEP8eaLZNbmkMj8U1TW8BlX/BDEvHnz7PPDDz/cPkajZMmS1oQLn376qX2EunXr2hiUvffe27qMevAcMzHvwS3J4/LLL7dxLStXrjTr16+37k0cTZo0cVfkda4DDzzQukO1a9fOPProo/b1Bg0amOOOO85069bNrF271l2dZz085JBDbDKEcuXKmR9++MG2EwPDZ+NOhal60qRJtn327NnmgAMOMIMGDbLn995775bv8eabb9o2WLRokWnevLlp3769DVzt2LGjNWHffvvt7gohhMgcJNzyYOyJxmuvvWbHqcaNG1v3fGK2w8G1ntjCNm3amBYtWlgXHmI4Fi9e7K7Ig3nhnnvusUllOnfubMe+yy67zFSsWDHf5Pnbb7+Znj17mtNOO82cf/755thjj7XviRT/IYQQouhDchLmD2CeefLJJ+3zeCxbtszGADKPsa4+44wzzAUXXGA+++wzd0Xia3P48ssvTatWrax7KfoBegUKY2jM+6+//mo6dOhg5znmMeIQ+dtnn322u6IQEtRik6Z///7uWXy+/vpr1GR7dO3a1bVG5+STT7bX7rrrrq4lEPj9998DwU5g24M/qmsNBIJKXSDYQWx7UKl0rYHA5s2bAzNmzLDtu+yyiz33Do/gDxcIKnf2mh122CEwePBg90og8P777wd23nnnQFDRDAQVPNu2adOmwEcffWSv5wguPGz7v//+G/jpp58CQWXQtk+YMMG2Bxcv9u81atTItgc715bvwGvAe/fdd9/AW2+9Zc+BtmBHC/Tt29e1xIffY+rUqe5MCCG2Mnr06C3jVlABc615MHbVr1/fvnbuuefmGyOhVq1a9rUrrrgi8NBDD7nWreP0K6+84loCgXXr1gVKliwZ2G677QLBCdi2/fjjj4HddtstUL58+S1jKTz88MOBU0891Z3lEZycA9tvv/2W78B3q1SpUiA4SQdWrFhh2xg7zzrrrMDuu+9u/54QQojCRd26dd2zxGFtP2nSJHeWt74/9thj7TxTqlSpwMyZM90rgcDxxx9vdYtQggqd1RuaNm0a2Lhxo2sNBPr162fnpbFjx9rzRNbm8Pbbbwd22mmnQOPGje36H1avXh2oWLFivv+P9frNN9/szvJgrgyf37JJPJ0g4xY/rG4ewb/nnkUnKHj7SFCnp1UHf8yISQZKly5td57DCS4erPUQSPvKuXd4EFOIBQ9OOeUUu6vsEfzBrNVw1apV1vIHuEMdccQR9nkopETHauhZKj28v8vrEPodvFS0WPuQz5w5c0ywo9o2rr/hhhsi/i0hhEiFSy65xMb0sYMZVOqs9S6oRJmXXnrJZjcLHSNDYSwMzZDM7iiQmdkDTwh2WvGa2HfffW0bHhJBxdKsWbPGZmzzIJszcdzsqHqwm3rddddtGTOvueYau4OLZ4f3eYydZID75ZdftuzYCiGEyC1Y3zMvsbZmfYzlzvO0CyeotJkrrrjC6g24ie64447uFWPX08wpXbt2NT///HNCa3MyjGLF+/vvv+1844VDUPIID5Vp06bZxDDAXIbnH3OSB9a/s846y50VPjKu+O21117uWWLxIywwgMw+xPtlA+/HDgV3JXjjjTdsKYpMQLwj7qG33HKLXTSxGKOTsRDDvCyEEOlkwIABZurUqbbGEhtOlGqgzEOoG3wkcLcPxZtYicf2YBzFHRR3GSZVJmuUO28T7vvvv7ePgNL5zTff2M033Phx83zmmWdsbLc3HntptsnkFsoxxxxjH2fOnGkfhRBC5B5sHKL8Ue8b3YBMn4RvhYMR5YsvvrDPPYOOB0ae/fff37pkespaPEgs48X/xZt/mMtefvllqxSSxwRjEeFthSHHSDQyrvhVr17d1oQCdm9jgbUPjRwiFW/MJt4OMxp/vO/tF3YRqEdCSlr+DrsId955py1GWRgykgohBIQWd48FkyX1AYnFu/DCC23Mnzemh4KHBUH7eHMQr0ddVzK4EcvHWIiF0FMqR4wYYSdT72AHFysgiwAhhBC5y4knnrilKsD8+fOt14rnGegRWpIh1Nrn4bWhICYCm5IezDeh8w8lj5h/yAUCo0ePNs2aNbMblsQSUpecjVI8VgorGVf8PBMrfPjhh/l2iMMh6JKq/ICAEyG8A8Ri/PjxZvny5e4sNj/99JN9pJ4VCQfikej3IGGMF6jKjvh+++1nd90xYU+cONEmdwE6mxBCFBUYv3BRx0sCKyLnlOYJ34EFLIFY99jFZdyneDzJv3AdZZxG0cQLAki+xevewcRKrddevXrZ14UQQuQu1P/2LGgkUJw7d6597oFFz4ONw3C8ttDrwgldm4eGljFPhc4/w4YNs/PPueeea1/HAkkYA7UH33rrLdO/f3+biHLw4MH5vFwKExlX/ICijJhLUXQQRjTI8ga4OZLBLRTPXSg8TjCaYD2f3FA3TToMO8mJgDIG7EB7fxsl1vMLDv0e/I1oVsHw78Hf9zJ/fvDBB1tcrOiQ/M9kF2UnnF3yTLmYCiFEumGcZxJEISNjskckF39iqF9//XXrwoOrDJuDM2bMsMqetzl35pln2kc2DMPh7wwfPtydCSGEyGXIdE+cH4TrAcSHe14p4VY9coVgWGEtTjiVR6y1OfoKbqYQaf7Bwjh58mT7HA89lEZCtMgiSkbS5557zr6WqKEp22RF8cPMiiBI7X3bbbfZOJNQsJb16NHDxnSQAhWNOhx+WPjxxx/tI+CzS0wJhAZWAskHsNZt2LBhSzH4pUuX2vIP4XzyySd219mDhAMoYLvttpt99KCjeMlkQr8H13jxiOHfw/MH/vrrr+0jQaBe4hY6L52K2JZQUC4xFUdLtCCEEIUNUmRDaBkcJlxKMkDo2MjYxw4uwfgebLAxF5AMBthdxSOC+cCL3wAC+Umb7W3CCSGEKNpgGOKIBq6UhAQQRxcOOUEee+wxew0WulDFkHINKHckfQmtIx5rbc5an7/FnIT3XWhcIZY9SkZQwg14jU3PUJib0B8I4yqMlAgKKH6qzTDQaDmShQkbix/mVCZ44vgQMEGS7Pxee+21Ni4kEnxNdpLxp8VKRsYfMu9gbvXqfeCSyS6yVy8QdyPiTdhFJskMu8zUofJgQcFOMwrpCSecYM3B/NBk6SHTJxbIKlWquKvzQFEj2w/fn+x17BI0atTIjBo1yiZM4HthliYuBdhtIHYF9yey/NBJcGUiqcv06dPNlVdead/P57DDgOUQZXXkyJH5EuPEgt+CnYzQ3QwhRPEGl0isYow5TFaMoShSbMTdfffdMRO6EONADB0u70zG7KayGcXYzcSLRwJKG5Mb8dBsnrEZxniLuwvjJ+4ybIgxcTJOE/9ABuQpU6bY60jqwvdi3GaiZOJljMa10wMlkgmbTUG8Ivj+vAeXeGoFCiGEKFywFmU9nAgk9sLbA7d/1t/MJyQ5ZN0cCTYTWXuTpMyzynmwPie8gDkCS5wXq8ccEh4THmtt7sGGY+/eve3chfEJYwx6zP/+978tMX7oF8xZxLczpzEvokzef//9Vq8oCOLpBFlV/EL5559/bOFgFD6E5WVyiweaO0oSCiM/EIsSXInQ+FG6wgM7UdC4HjOsZ9r18BQ/hEMn4lo+K5FEBnQaLI6kmqWz0tH4H/geHOG70cQuotB5iW6Av4fyigz4PzxzMe9PBil+QojCAmM7Yy7jM14XkWA8ZLwGrmUsJC4iFlgOGd+THR+FEEJkD9aiiSp+mYI1OevteJ4hkdbmkfD0iHBPPG8uQzdBeeV52bJl3asFQzydoMB8ZVDC0MiJBUlU6QOEzq6xp5WzsGCHAK07XOkDfnQWFOFKXyS4NtHsdexks9uA0gdY53gvqWMjdTQ6Q3jH4jqUPuD/YDdbixohRFGGsZYxOZrSB57SB4yb8ZQ+YDLV+CiEECIerMnjKX0QaW0eCeapSOFX3lzGa8x7Ba30JUKBKX5CCCGEEEIIIbJDsVX8WrdubeNfyN6DSZi4QC8JjBBCCCGEEELkEsVW8SOIk2QCVOj3DlwthRBCCCGEECLXkKunEEIIIYQQQuQ4UvyEEEIIIYQQIseR4ieEEEIIIYQQOY6vOn49e/Y0DzzwgDsTBU3nzp1N5cqVbUF84Q/qMgJlOkRmoBg4dS+Ff5AhfVT9NDnU9/zBuMgh2WUWzT/ZQeNndrjqqqvMo48+6s5EtnnooYdM27ZtTePGjV1LfgqsgLtIHyjiFJM/4IADXItIlu+++84+SoaZg4Ku0QqKisRAhvRR9dPkUN/zB+Mih2SXWTT/ZAeNn9lh9OjRVvEQBQP93CviHgkpfjmA9wNrcvYPNwpIhplD40bq6F73h/qePxgXvUWEyByaf7KDxs/sgHy9Pi2yT7x+rhg/IYQQQgghhMhxpPgJIYQQQgghRI4jxU9kBB8exCIMyTDzSMYiGdRf/CG5ZYc1a9a4ZyLdZLsP//fff+6ZEOlFMX45QDJ+66+88op56623zHbb5en83s9/9913mzlz5phnn33WDji8fu2115qDDz7Yvu7x4IMPmqVLl9rX//33X1O/fn1z/vnn29d438CBA82PP/5oSpcubUqUKGH2339/c/nll5s+ffqYIUOG2OueeeYZ89VXX9nniXDxxRebgw46yJ1lhmRiLBYtWrQlYxX/oyfDK664wuyxxx7mjjvuMJs3b7ZtyObcc8+1zz2mTJlij+23396+t2LFiub666+3ryUqw1mzZtnfMVFq165tzjjjDHdWMCQzbmSyn/7222+mX79+ZscddzQ77LCD2bRpk2nUqJEpX768/eyrr77aXlcY+2m67vVPPvnEjBkzZksb1yAPoO/ut99+tt8ee+yxti2UadOmmRdffDHf59JPkW/dunVtWygrVqww999/vzuLzRFHHGHat2/vztJHMn0vnCeffNL2i3333dfes8uXLzdVq1Y111xzjT0PZdSoUfbe9ChZsqQ96Ku77rqrOfTQQ62cdtttN3dF4SaVGL+///7b3HPPPTbxGLL7448/zKpVq8zZZ59tLrjgAnfVVm688Uazdu1ad2Zsf6SPef3xqKOOslnqvH6XS6Qjxo9+R4bvzz77zLVsy+OPP27mz5+/zb173XXX2XkonEj3Ov15wIAB9hy4t7kn+BzGWuaZJk2auFcLF8mMnx6vvfaalQFze6lSpWzbDTfcYHr16mVGjhxpz9M1H8+cOdM89dRTZs899zRly5a1WUiRed++fW1bKDNmzMg3hjMWcTDWVKlSxRx55JHmrLPOini/sJbYsGGDO4vOzjvvbO666y53ljjIVzF+BUfcfh7sNEnTv39/90wUBvg9pk6d6s7iE5xIA02bNmW0CLz//vuuNY/goBEILqQDFSpUCJx00kmB4EDuXsnjn3/+CbzzzjuB4EQeWLBggb3eIzjpBIIKkTvLY/r06YHjjjsuEFzsuJZA4JRTTgkEF3eBuXPnBlauXBn4+eefA5dccon9PsHBIhBcHAS+++67QHCwDQQX0oFx48a5d2YO5JeMDCE4+dnvHFT0XMtWxo8fHzjggAMCwcE7EJwUXWseyGzJkiWB4OIx8NJLLwWCiod7JXEZBgfuQHDysN952bJlVmbDhg2z3+fOO+8MrF692v7d4OQQaNiwYeCqq65y7yw4kh03MtFPkXWtWrVs3wvlgQceCFSvXt0+ehTGfprOex2ZtWrVyr7G/+ERXLDbfhOcNGx/3Lhxo3tlK3wu/ZH3Iud4BBcZgeACwl4/ZMgQ+/vwGTwix9mzZweCimbg5JNPdu9IL37mrN9++y3QsmXLQHDRZb9rKNyjDRo0CPz444+uZSvr168PVK5cOXDggQfm65fr1q0LDB482PbJiRMnutbCDX3Nj+wWL15sx6fnn3/eteRB36JPderUyfaJcLhX6SNt27Z1LXn3Ov2Te/GII44ILFq0yL2SO/iZf8Lp0qWLld3nn3/uWiLz559/BvbZZx87NwUVbdcandB7PaiYuNatMKZOmjQpUKlSJfu7F2aSHT+fffZZO+aH3v/MBUHFNlCuXDnXkvp8zDjBdYzV4b8J72HOCh+/IXQM/+GHH2wb98uXX35pv9MhhxwS8X38ZrTzvhYtWtgxnv+Rg3GP+5D5NahIRrxP41G3bl33TBQE8fp57m2dibiwKxRc5NrnNWvWtI8e7Nrtvvvu1qL1wQcfmOBCxb2SB7t9WE9I1XvYYYfZ6yE40Jg333zTdOzY0Z57nHbaadvs4O+999525/Hoo4+29aE499Ir16hRw+y11152x4pd4YcffrjQuq/wXUMfQ9lll12s1Sl4j9maNqEgMyxUF154od0ZxeoEyciQXfTnnnvO7uiwU4vMgoO8fa1atWrWesUuOTuLwcWX+euvv+xrRYlM9FPSTPNZ9L1QevTosU1bLvTTWDJkJ9izlNJfPNjVpt9glSbNPHIMLgjcq3nwuZ51E0tMPHbaaSe7Aw30V34fPoNH5Bhc2Jjg4nGL1bEw4Fktbr/9dvtdQ+EeRUZYOMN3zrHUU1cVC0Hobjv9ldI7HTp0MG3atDHBBbp7JbfgPkA2F110kQkuKl1rHvQt7pUvvvgiomXXG0tD+yP3LvcZ9yIy5XdJxFpRnAgqAFvGn3HjxtnHaDA3BZU060mCPOMReq97c0wozF9BhcU0b9484utFGbxJggpZvvufuQCviVBSnY9vu+02O5fx24X/JrwHqxvj8MKFC11rHqFjuPc+7hfGfL43c9M555xjggq5fc2D3+yYY46xz/l/GHf5HznwRmDOxKobVHpNUJG114ncQYqfiAgDOYuTW265JaK7G24IoXz00Ud2YROJSy+9dIuLBIQvsGNRr149s27dOndWtGDxhxsMLndPP/20a91KKjJECWEiSQT+Tq7WLUq2n3744YfbuMx4sCAPpbj002igrE2YMMEuGh555BHXmjlQApHjP//841oKDtytcO+87777XMu24O6FApKsKxRuxbhB4q6ci/Tu3dsuJsM3vEIZNGiQ/f/ffvtt15IYDRs2tPc5bm5iK8gRRZoNlHiKX6bALTCXwH2VI5JyjMv2Kaec4s5Sm4/pz/fee689osmQcREXaVx52UxOFN6Di/XYsWNdS3Jcdtll5ocffnBnIleQ4ieigsWqTJkyNnYt3mDD4Dhv3jwb/xYOsS2erzE7k+yGJQqLQd5fVEGZYKeue/fu5ueff3atkUlUhhBpMopFNIUyF0i2n06cONEuvMNh0eT1zeLWT6OB9QrLdP/+/c2ff/7pWtPL5MmT3TNjjjvuOLN69Wp3VjD8999/VqnDmhdrwwTLCVYOlMNVq1a51vh4Fv6iaIWPBxYJ4hyJdw23kobC74xVwYttTpRcll0qvPPOO6ZBgwZ2E+zbb7+1mxYiNcqVK2ctatE2aM477zz3LLX5mPg97hXGklighL3//vvm5Zdfdi3xIX4dklEWQ8djvDSwZorcQoqfiAruCQ899JAdbIYNG+ZaI1OnTh2748WO7BNPPLGNktOpUyf7yADnJc9IFIKoiyq4XYwYMcJs3Lgx7v+dqAyhW7du7lliFGUZxiOZfooSg/siO6hYYtevX+9eyVOucU+D4tZPY3HiiSeaX375xW5KZIJ3333XPTM2eUeiO+eZ4uOPP7ZJFTxXqFigwLC4SiaxA4kgWFCGu0HmAq+++qpdZCYqO/pUMq5kyA7rCvevyINNLBRixqxWrVrZx4Ky+uUSbOyQiKlLly7W3ZtQjFDSMR+zwYhLPUmtvE2NaHC/APNWorDJiYdLePhILNhE8GBubdasmTsTuYIUPxETJhIGPzKusZMYDQZJ3BlRcLC84OrDju5NN91kVq5c6a4qnhx44IHWHYzMYPj3R0My9E+i/ZQF6QMPPGAX9+zYsvNKDCVt3u6oyA/9EMgGmA5mz55tXnjhBetOST//+uuv3SuFA89lODTOLBreNZHcjCPx+uuv20yXuM4Su5Nr+JFdIr8/Maa4wnHfYvEoKllRswHKtpc5mnsVpZh4M5QKkRpsJOLWSRZoYvaI37vyyittVuR0wAYTrpjpGGu4R/jN8cxgrCbr8DfffGOtv8TIRoP7j/EYyyaeHWSzFrmNFD8RFxYpBP8y4MXi1FNPta4+LKKxWmFZYZHDYjtT1oKiQteuXe1Cj8dYSUAkQ/8k2k/5DZAlcYEkJkERYQcW2f/+++/uKuHhJcZhkZIOWLSziGEnOlq8ZUGSTOIQz4Uq1HLsQWwMCRY4sBiwgbNgwQLz6aefJrUDX5RIl+yw3nuyYzHKvUpfYdF70kknuasEYAU9+eST3Zmx7p7cq0qnnzoo0iQPY5OqdevWNv6YJEPIm1IKqZKu+wWI4yN5GQe5BZYsWWLDIOKVGCKuMHQ8jmd5FEUfKX4iLgx+KCK4ZD322GOuNTK44ZAhkeyUuIfhcsJiOtQtojiCaxcTBrIg3i8WkqE/kumnWFL/97//2YQ6xJTdfPPN9rmfmkW5jpe0hp3vZMAFjXi5cJA98XNkmyM+LjwrbkHHb1WoUME+JpKsx9vE8ayioRD3Q7/iQHEhEyD10gralTWTpEt2bHR5siPjIbJjQyfXEoikCvMCciRpFQoKB/2LzZpU3D0VQ7kVNhPJbolFjPALZExGVDYQk4ntjQRzPaR6vwAZrPGg4HuhqJL4DPfQeBZ1rJiMx2w0szbxwh081BdyDyl+IiEILCZDFMH4FBcPh6Kx4a4lDJjEVKHwMFjGsnQVB3AVYRHDhBwpQFsyTJ14/TSSiw7unhTdxwqTTPxEccGLwfLKMSQKST4SWTRQZDgU4jULErL1sVGTiGurdw3WYrFVDonKjrjaZPuV2AoxXHgtsLj3Dorg8zvgvufXfT08VtrLKB1e1iWUXHOVRxnD4yYUFGpinilsz9g2ffp094o/8H6g/+MJEGmTLJRkxxo2SlhPxMpMHInCNh6L9CPFTyQMdWaABXJ4lijSa0dL+0ssFe4DK1ascC3FF+oCHX/88dZ6F77LJxmmh1j9NFb8AkHsku+2EENE3FCyFj/6MtlW40E2Qg8sGGRILUhwd2LXm0VdNLcqjzfeeMO6HrIYFHnp43EtI2FFLLjPqGNIenq5lvmHmEdiuciiGnpg9SEbY7zfIRrhc5OnnBMzFgk2JMmCmUsQVz916lR3lh/qIJ5wwglpmS+wshHnN3PmTNcSGeKDURTZ3EwENq8Yf3EtT4bQ8RjijYGi6CHFT2xD+GLZA/cGfMcZgMILgkK0mkxM7CzmvEKjxQFkGEmOZFzDEsKu7Pjx413rViTDxPHTT7EChmdn80DGySo3uQ7uxmxIxMuWGg6WAWKPkoXkRoWhCPTAgQPt/RbLZRiFmL40fPjwLXGQxR1qP1KgnQVzrAXn4MGDrYsZSTOEP3BR91wFw2GjkEW/H3dPFPLwFP4kwKK0SzRLLgom9SlzjVh1JtM1X1B/ESseBdOjgYspMXyEIuy7776uNT58x1jJzuJBvoFk4hBF0UCKXzHFc8GK5IpFvEC0mnNeXbpIGcOIxyCgOBwWc/iesyiIBjtekKlaYZkglgyRQzQF4/DDD7eykgzjk+5+irKIHD1ZhUJQfLySDLnWT722SC5cbEwgR9ySa9as6Vq3Eu29uHzhnhxuuYv1t4DfE5fb8Ji/goAF9ZNPPmk3EHDrCocNBVK4kzwhUqF//tdI8i4OECuEQodlIpK79aRJk6zlnTGNTMaheDIrrrJLBhIGRdskIRaSTJ/UZPvtt99c61aQb6T7kILlZEgOj0NF2SCrKopH+NiHZYz46FxMukNc34QJE9zZVpijiWGOVVYk0bmCTSPKNzGmsOEUDl4QeCBccMEF1kIeTqx7pnr16tZ663kSDR06dMuGqXd9tPGY35W/Vxg24kR62f7WIO55wpAtKrSYtChY+D0oNByr2LAHEwE3P48sitnBY9Dm98S1icUMn8dijxufxXMoDFLUmyMrIm49Ht5nEKdG3AHXMeCwS0U6YZJuEK8WCpMMCwSuZzGAjzufw2dnO3ub58ufiAwpsM4C1Uu6goL3xRdfWPcPsn7hxokSwW4h8mAnNPx/J44IiwiZwjz8yBDIFvjSSy/ZhSqTDLt0TCJYa/jbhcUakcy4kal+SkkN5DVo0CD7O9LnmBTJnMpvHymBTmHqp+m614kXZeFI2ncWAPRhLHvs3LPQwYpF4gL63rHHHus+MQ++A/2fGCJ2g5EBbkqvvfaavR7lGSWOPo77LPLr3bu3vSdwCfv+++9tH+dv8R4UAHa7+T6UMkHZwk0pnSTT9zxY8FAihERLKDC4snF/sRik6DKWexZjoXAPYh0lKyUuUsgVdzDcwooijIscycqO61l0ssnCmIXscBPE0sdvzkGSn1BIgENmXmJK6TNcj8WiWrVq7orcJZn5h3utZcuWdnxnU4KMjMT5eXBPUnsOqyvKCX2fe5/YLSzYjH28hkJIv+ZzGCOoN0soAv0VRSP8vsedGUWdBEXeveCNidyzBe2inQjJjJ9YVPHMocaeFyfHWEmdO/5f5LXXXnvZ9lD8zMe4l7dr186OkcxRnOMdxBqCkAXuI5KRhb6XfsD3QP4ob4ypzElsvHiwycx34R6sWrWqzWDNvclvSOwe1kDmz6VLl1oPGW/8HzJkiN2EZmy/4YYbTOXKld0nJgb/B8lmRMEQr5+XCGr/kf2lYoCu6ENfFBmC34KbOdnJOZ0wcNDJGKzY6Zo7d66dzJiQQielwgo3CkiGmaMwjBssxD13WVKek+yFyZn03MlObgVBYbjXiyKp9j0WzhwssLBIouwXlg2VTMK4yOFXdmw4sKHA2IYViiyDclfflsIw/yQKm53EFjJ+srmTiBJVWEhm/OT/RIkmUy0burjAkoQFBYr7P9ImbDpg04NNYRRzwhbIuBnL0yce/B8oiWxEYQXORmZc5Ov1aZF94vVzuXqKtMCuLAoLkKkNawuuPrmgsGQLyTDzhC46SYvNRIjVtSgofaLgILkFKd3Zxa5Vq1axUPrSAeMZC1fimKgvJ6Wv6EOCETwssAoWJaUvWfg/vfIkWJ6xgDIfE++YKaUPiH3FoktWzjPPPDMlpQ/4P/B6adGihcqhCIssfjlAMrtYRRVc03B39AOLDhSpWBSlHVe/ZFqG8SgO4wbuj175g2RgcsbVJx7F4V7PBIW57+FW5QcSS4S6dWWCVC1+maSgx7N0kmvzT2H9bTR+ZgfkK4tfwRGvn0vxywE0mKVOcVD8ChqNG6mje90f6nv+KMyKXy6h+Sc7aPzMDshXil/BEa+fy9VTCCGEEEIIIXIcKX5CCCGEEEIIkeNI8RNCCCGEEEKIHEeKnxBCCCGEEELkOL4UP4qCisIDvweFRYV/kJ9kmFk0bqSO7nV/qO/5g74m2WUezT/ZQeNndshkuQsRn3j93Jfil2pdEZFe+D1Kly7tzoQfkJ9kmFk0bqSO7nV/qO/5g74m2WUezT/ZQeNndti0aZN7JgqCeP1crp5CCCGEEEIIkeNI8RNCCCGEEEKIHEeKnxBCCCGEEELkOFL8hGX9+vVmw4YN7kzkKoFAwD0rPvz333/uWXKsWbPGPRNC/SHXyYWx0e9YJ4QoPpQIDnZJj3a33nqrPUThgN/i9NNPt4df7rrrLvPzzz+bIUOGuJZtGTVqlJk1a5Y7M6ZkyZL28LpQ9erVTbNmzcz+++9vz0O58cYbzdq1a91ZXtan7bbbzvz77782EPWoo46y7911113dFVuJ9F4mOK7lbzZq1MhUqVLFveqP9957zz4mIsMVK1aY+++/353FpmXLluaUU04x06dPNxMnTnStsbngggtMnTp17HN+l3/++cc+T4Sbb77Z/iah/P777/ZzPv30U7PvvvuaypUrmxIlSpi2bduaAw880Fx55ZVm5MiR9tqbbrrJbgDwOvDbnnfeeaZBgwbm448/NmPHjs33GgwYMGCbvxmJZMaNadOmmRdffNH2EeBv8XfPP/98U7duXdsWi5kzZ5qnnnrK7LnnnqZs2bLmp59+sp/Rt29f25YI9KvOnTvb3yMS3C/8P5s3b3YtxpQqVcp+T9p23313c+qpp5ozzzzTbL/99u6K1EjHvV4cSabvRSOT/SGV986YMcOMGTNmy/3I6xyMkYyLRx55pDnrrLO23EvJwLjIkajs+vTpk9AG4jHHHGMuu+yypMbSI444wrRv394+f+aZZ8xXX31lnyfCxRdfbA466CB3lgfyGT58uJk0aZIpX768HRd33nlnU7t2bXPGGWeYxx9/3Bx66KHm5JNPzui4CMnMP+H8+OOP5r777rPffe+99zarVq0yf/zxh+nUqZOdV8OJNhfTz/bbbz/7nsaNG/vqL4Ud+rHGz8yDfL0+LbJP3H4eHKSSpn///u6ZKAzwe0ydOtWd+eOwww4LBCeNQHDwdy2RWb9+fSA4QQaCCkMgqLS51kDgt99+C0yYMCFw8MEHB0aMGOFa87NgwQJmxEBQ4XAteQQn/8DgwYMD1apVC8yePdu15sd7b3Didy2BQHByC7zxxhuBww8/PBBckAWCCpJ7JXmQXzIyDC4CAkFlyn6noLJs/zay27RpUyA4EQdeeeWVQI0aNQK33XabvT64yLDf99xzz7XvmTdvnr0+9D2TJ08O1KxZMxBcZNj30B6czAP33ntvYMmSJYGg8hJYvny5lXGFChXse4ILxsCXX35pv0NQEQ6sXLnSvtfj/ffft/IZOnSo/TwPvm9wYWL7TnBx4lrz+OSTT+x3DC4Wt+kP/B/t2rWzr/M/JkOy4wZ/O6jo2b/1zjvvuNbY0CfvvPPOQNOmTQPBxY1rzSO4QA7UqlXLyiQeyDq4eA40b97ctUTnoYcest9x9OjRriXvuy9atCgQXHwFggt228fTQTru9eJIqnNWtvqD3/fS71u1amXf+8MPP9g27lXGhqAyFjjkkEMS6vfh0NeSkR1jDH+H79GiRYvAxo0b7fdnvFm9enVgzpw5gXPOOSdQr149947oYymPQSXGzgmMm0EFzL0jEDjllFPsXDB37lw75jEOXnLJJfYzggtO+77vvvsu8OKLLwaCCl9g3Lhx7p15ICO+Q7du3QJr1qxxrXk8//zzgaAiFShXrpwdMzwyNS5CsvOPB3MGspg/f75ryWPZsmWBhg0bBh555BHXkp9IczH/AzJDrkEl2/a5XEPjZ3aoW7eueyYKgnj9XK6ewnz++edbdgrfffdd1xoZUsSyM7rHHnvk2xHcbbfdTHBRZN58801rXWJXMZygImQf2V0NBStUz549zbBhw+yO9ssvv+xe2Yr3Xv6uR5kyZewuPDtLWHeuvvpq90rmwUrJTjpUrFjR7uyyy77DDjuYSpUqmeBCxe4kBxU1ew27wXzfoGJnz7nG25n33sMuK/87u+CAa1lwMWFuuOEGE1T2TFDZszuy/FZYAHgPz7F6du/e3QQXMfnc0bDw1a9f3wwaNMh07drV/h0Pvu+1114bcdc8uEi0j+yQ8/1C4f/wXvd+k0zB3/Z26SPtXEciqGibRx991AQXevn6CrCTT99EJgsXLnStkXnuuefMaaedZl599VVrMY1FpH7Nd6c9uPAywQWYOfbYY01wUeVeFUWNbPUHv+9lLGaMAK/fc68yNtx5553WShlUuMzixYvta5mCMQZrHuyzzz7WmsT3Z7zhfzrppJPMSy+9ZNs8oo2lPO61116mVq1adiwNrQ3GuIdF7uijj7Z/h/MDDjjAvoaseB/WTv7vhx9+ON+4iDUM6ymeGA8++OA2HgBBhdUElT7z66+/upY8Csu46MFczf+H1RJraCjI8dlnn7UW2Mcee8y1biVSP+N/QGbIlT7UpEkThX8IkYNI8RPWpe7JJ5+0rkW40KQCEweLbtx35s2b51oTA6WPiQolJZkiq0zcJ5xwgnV3IlaxsMBCAGUtGVhUoNDB6tWrrctRonAt74HNmzebK664wi4MWCxGY+DAgTnj0oMSe++999oDt6dI1KtXz5x99tnWZS/gXLIiwcKazQsKoSbqohuNfv362QUqirYomhSW/uD3vfR5FB5cEgsaFDo2YWLdf+HwHu7df5zbOzJIFN63bt06d5bnzg633HKLfYwE7u+HHXaYOyt8bNq0yXTp0sWO8eFKnwfKG/8j/dabFxKFOYPxFDdiIURuIcVP2AUBcXnsCLOo2bhxo3vFH+zqYtm6/vrrXUviEMNBzMLgwYNdS2IwEf5XSALbQxVeT4mLBQsgLAkeXowkO87E4CVK1apVzW+//WafP/HEE/Z7XHrppfY8GuyWH3fcce6saEP8HjvxWJ5jQWzR+++/H9GyDN9++62VJfE7WA7YyEgVFmhssBB7KIoWha0/+Hkv4yMko2ylm9BxEWUlVBmLxuTJk90zY8cpFBjiwvkdEgWl0Ysdx+KJBZDYazY6o4H1i/mwsIJVjv/l8ssvdy2RYfxnHsHTIRk875BkNmCFEEUDKX7FnNmzZ9vgdbjooous4vDaa6/Z81Q48cQT7eIay1MyMKGzyJo6dapric8PP/xg3Rp79OhhdtllF9dacEyYMME9M6Zjx47uWXRwBw11wbrqqqvsIwleEnVxBFydSH4CuFMBO+vxiLXzXVRgMThlyhS7oAx1aY2Ep+i+8sor9jGc559/3i4MWTC2atXKvPPOO0nvmIfD/QDJ9GtROChs/cHPe9nQwzMikfEoUyBHDzZnEkmyFBp6gCs8ru5s7iTr1t+rVy/7iCKJ8pvIuEjyq0Q27goCTyH23GqjgSsnoRnRxrpokMQN91mspUKI3EKKXzGHCYF4NGBiZWc0HTvaWJKwHH755ZeuJXF47/z5891ZfrDqschHoVy2bJld0FxyySXm7rvvti5+BQExP2RJ+/77763rZGjGtGhgbUJBZOeWjHPpBrkTE0MsYDxwA4vEokWLrAtw+PHJJ5+4KwoPZO3Ech0asxIN75poWQHJsOi56LZp08b2tdBFqx/o0xCtX4vCS2HrD/Hey/djjPzzzz/tNddcc4355ptvzJw5c1LOfpwMxIcxFhKzjEfDW2+95V6JDhuRL7zwgo3ZxrL59ddfu1fSgzcfeTKMBRk9I8mrMIyLjF1schIfGQ/GO35/+kQ86DvMo2QqZY4idl8IkVtI8SvGMBEQM+FNHjxiMUIZZBGdCrjKAAvyZOG9LBi8eI5QFixYYEaPHm0P3BlJ5oHiRGKTgopVe/31181DDz1khg4dahcAicBuNxMycRiZmFyJRQpNhuAHvuPhhx++zZFs3GI2SCYJgefuFikelP7F/+hBAgh2zFPdDEnlfhAFR2HsD/HeSxyfN0YSa71kyRKbxMRLlJQtSBrGuOiNjYnMKYyFjIuMPYlYBJOFcRFSGRsLw7iY7HjHhqn3v4eCVw7Jfzj69+9vvT/4/1AsCdkQQuQeUvyKMbjRoHh88MEHWw52OZlUPFdBv3jxG3xesvBestFFctkj+xs7wQTfk+iAHWJqGBHoXlDg/sWkSd0mguFjxY544GpEjRWSr3g19EJJNbaCTKns+KcSr4mrD26R4Udhcn9iMcOihu8KicQNeRn+Iu36kwkP2Xn3w4cffmgXQMRT4VLsl1TuB1FwFMb+EO+9uCgyRpIkC8tZ06ZN7X2bbutZPHBJZVwkvozNMS+kIBYkVKFOJ/F1jOvhGTLTMS5CaJbPZCkM4yJKJhtXiYzv/K9klI4UBoGrKLVfOdhExXOGuTVaciwhRNFHil8xhsmYRCIsCLyDc3ZcU83uiRsm8XqJuNSEwiJ+5cqVW9J7x4MJqkOHDjaFv1c6oSBhxzrZxRyTeGisBq5RqWYO9GIzvvjiC/sYCwrzF1X47iwGkTt9BgtNvCQ/noscKd3DwV0Xa3PoPYGVh11zlAC/cD9Aov1aFA4KY39I9r0s5PHuQJEqSCjLkCwUng8F62EqJDMuotxHcwcvaLyxC6tqLEjsQrK0SGOdEKJ4IsWvmMJOIa6RuEmGHyQyIB7D764oO5HTpk2zO87JgsWMBDPJWPDKli1rF2Jz5851LQWLnwQK1JbzIFYk1VpQlCtghzda5spQinJ9Oawu7GYDtQxxJ4uX7ZANDxRFsnuGQgwU8Y7h9wM1JslSm4p7HzFObKhceOGFrkUUdgprf0j2vYzz3CMkwCpI/IyLZFL1IJaaBDupQJkCEmYlMi4yh+HWWxjp1KmT9YghoVUs3njjDTs3EgohhBAgxa+YwuIhWrpqsnsS5B2anTIZiBfAitW7d2/XkhjsSpOSn2QtuPskiucSStr1XIAYHa8YsF/I8MnvQGxPrGQzyMwr/FzUoI+Sfc6DUiDsbONyGw0SdSBf3M88ty8PikRTtDgS3BOko/dTAJu/+cADD5h77rlnS3FtUfgpjP3B73sZI4v6+Pj000+nPC6iOJJQiw3GWFlRKX/BtYm47RcEXrkkPF1w6Y8Eng+URaIgfWEuTSGEyC5S/IohJE1h4RutQC3xZyyKiQ+JBK51LLrDQXFD2WMXkpIQ4ZOmF58R6b3ErbC7XrFiRVtnKRzvvZFiPIgHBM/iR9zXiBEj7PNM4n2XaBNvJGLJAChCj6XBs2JFAqtWIn+TXV6S9RDjs2rVKte6FT7nkUcesYvYUGLJGuK9nk6iyYuFGRaPUAsASS9I+MNinOyq4WAx4H8lrhKLaChYPd97772ocmfxBJHuiWjfEXArPe200+x9gWIqigYF1R/S8V7vMRTGSMZYLy6RZCtYgjKB9/fTOS4SW3nHHXfE9ITwksfE+7vE4w0bNszGQkbyEkFhItYt3CMglnwh3uvphk1SrJft2rXbJnELvy2F25Env3U42f6uQojCQ4ngAJH06H/rrbfaQxQO+C1IFMIRj+HDh5tBgwbZOJFq1apZRSM0vozFBZngcIVBkaPUA9Y36iYRT0UNK2JbWHAzMaLc0YWYdIklYGHSp0+fbZS+m266ybow4kJKHOF5551nXZD4G8QhoJhQbDZSQVoyjfG9+NvscrMLTx0oL16Dv08cC8omf4N04MiCmm6JwiIPEpEhsYTEy+BSiJJB3UG+C5MwSRUiwedjacKKgAUOZcwr1M5Cgwx9fBaxJ2ecccY2qc95v/deHvmf+W1Q0HFf8kpyRIJizzfccINNRY/rFL8N6bpZCLI4CP2t+J2Ik2M3vFy5clZx5OA78R6ylqLY831JckE2O5SsRFywkhk3osmL/5vvjRsWsZC43nFdKCz8cDNGrvQLiuCzcMRKgsLHQikU6ibS33ExJgEFWW1Dkxt4ZTemT59uSpcubftes2bN7O/N/4P1AJkhj+OPP94qoLhS871ZeLFQJy4sHSRzr4utJNP3CqI/YMnz+17GIcZkarvhnk/fIM44NKaPe5cxAhd6FB7GchKvxIP7kCNR2TGeLFy40I4flAbivqWkDIpUJBhLUei4nymTcMIJJ9ikMPzf3Ou//PKLLUXw0Ucf2TGGMALq+HnwfuYrEpLxO/GbodgdffTRdn7D/TsaxMcxFrAB2rp1a+ulwndgDrnuuuvsJqRHJsdFQMaQ7H2NjLDqkYyN73zsscduyeKK1wd9IDyDaeh8iss7G2H8To0aNXJX5C70Y42fmQf5en1aZJ94/VyKXw6gwSwPJvLPPvvMKrLRrJnR8DvxFhVYNLJAZBGFssjiJJEaf+kk2+MGi0JcQVkMojSygZFI3avCjO51f2S77xVGsHgzBqA8oQQmkrkxWcWvKMKcgVKHOywJaAoiri/V+YeNV5RnEqMR/4nLO8nVRH40fmYH5CvFr+CI18/l6ilyBix8xAcmq/QVB9h5RvFhh5tMedlW+goCduxJVITV78wzzyzySp8QqYB1B3d63FSVrn8rWGrxHKAsT2FN5hIPrKuNGze2Ga6x4EnpE0JEQ4qfEEIIIYQQQuQ4UvyEEEIIIYQQIseR4ieEEEIIIYQQOY4UPyGEEEIIIYTIcaT4CSGEEEIIIUSOI8VPCCGEEEIIIXIcX3X8br75ZlvzRhQOfvjhB1O2bFl7CH9Q6w0kw8xBPy2q6dILC7rX/aG+5w/GRQ7JLrNo/skOGj+zw8KFC1VWqwChn/fv399UqVLFteRHBdxzABUlTZ1cL+BeGNC4kTq61/2hvueP4lDAvTCg+Sc7aPzMDshXBdwLjnj9XK6eQgghhBBCCJHjSPETQgghhBBCiBxHip8QQgghhBBC5DhS/IQQQgghhBCFgjVr1rhnRRcfKVSyQqFX/J566inTtGlTU7t2bfP111+7VpEu/v33X/PTTz+5M+GXZcuWuWciE6ifpo5kmDzLly83H3zwwZasiyJxFi1aZD755BPzzz//uBaRbjZt2mQ+/fRTK2uROX799Vc7DjAeiOxw0UUXmYkTJ7qzyNx0002mR48eplevXvbo2bOn6dOnj3t1W7iea0Kvf+edd9yrxnzxxRema9euW17r1q2b2bx5s3s1MZ588knTuXNn87///c/cdddd5uqrrzb333+/nX/DmTFjhunYsaPp0KGDPa666ir7N/kO/F/Dhw833377rbs6fRR6xe/SSy81N954o5k1a5bZuHGjaxWp8scff5g333zTNGjQwDz++OOuVSTD33//bSddbtz27du7VpFO1E9TRzJMnvXr15srrrjCjB071pQoUcLcc889dhIX8WGDtmXLlmbOnDl2jGRsnDJlintVpIvXXnvNtG3b1m7mfPXVV6ZVq1baHM8Ad955p7ntttvsBsarr75q2rVrZ8cHkTl+/vln8+6775qnn37atUTm7rvvNpdffrl54IEHzIIFC8y9994bc5zm+ssuu8xev3jxYjNw4EA7L3oceuih5pZbbjHz5883u+66qxkwYIApWbKkezU2v//++5Z78KGHHjL9+vWzpe8efvhhWz7kzDPP3MZAcOqpp1rljveOHDnSKq1Dhw617+d/2X///U2dOnVsaYZ0UiRcPatXr+6eiXQwdepUO5jBkiVL7KNIDnb+2JBg8GCQKqwm/aKM+mnqSIb+YNf12GOPNb179zYnnniiXTB8+OGH1gNFRAcLVJMmTexChQUynjojRoywO9hffvmlu0qkCope9+7dzahRo8w555xjZc6iEe8obZCnjzFjxph58+aZwYMH20U6m7xHHXWUlb3IHM8995w57bTTrKKNUhSLQw45xD7WqFHDlCpVyj6PhXf9QQcdZLbffnv7PJQKFSqY5s2bWwUxkc/z4B6E22+/fZvPpd8wFtatW9ds2LDBteax3XbbmYMPPtg+L1++vH2EnXbayZx77rm2D2I9RDFMF0VC8WPHVaSPevXq2R3sRo0aJbybIfJTsWJFu2uEO8Juu+3mWkU6UT9NHckweVavXm3ddZo1a+Za8mjTpo158MEH3ZmIxOTJk61L0+GHH+5a8hYw9D8UQJEe6IdYKkIXpkcffbT577//zNtvv+1aRKrgohdpHGAxjvunyAzfffed3VjHYyCeu2cm4L5CIUsUNgTxcLjvvvtcy7bccMMNVulL1nOEWnw77rij3eRJF0VC8RNCCCGyAbvMu+yyi9l3331dSx5Vq1a1MWtY+EVkUPy8HfVQkB2uiSI9SM6ZB+UD98FwOWMRYiH+1ltvuRaRTohpox+zsbHXXnuZcePGuVcKJ2y2oNRhzTvggANc67Ywp2BJRDlctWqVa40Phi8siH/99ZdrSZ2MK364HeDj+swzz9j4EnxXCWIMDfhm5wR/WHYEeRw0aJBc54QQQmQdlLu9997bnW2FNualjz76yLWIcGLJjsQJf/75p2sRflm7dq35/vvvo8qZJCQidejLEEnOKCSSc2Z4/vnnbYwwHirEzJF8BS+MwsrHH39s42yPOeYY1xKd4447zrrDJ7NpgKsxlsLWrVu7ltTJuOJHcCMxErjEESyP0kdCDLRkQPM96aSTzHnnnWdfw5d1xYoVpkuXLvZ1IYQQIluwyNhhhx3c2Va8NmX4jI5kl3m8RXA0OUvG6UFyLhjwqMCqCrjVklUTZbCwQrwthMbnRcO7xntPPEgUc/HFF1vdiXjzdJFxxY/kAvjpeuA7ixbvxe2RXpVMOieccII9h2uvvdZa/5Q6VwghRDbBGyVS0L8HWVJFZCS7zON5S0WTs2ScHiTn7INrbWh88CmnnGIqV65cqN09w5O1xMLzZIyWFZZEbBx33HGHNZrhKUk8KYld0pnrJOOKH1lpGjdubOtaTJo0yRZlRLHDRxohkL0Hi2AoxFbsvvvuNqWqEEIIkS2IxYhUc8lzUyRZiYiMZJd5kDFEk7NknB4k5+zz7LPP2vU/brQcZFLGI3DmzJnmhx9+cFclTzrj48LxrJPr1q2zj7HwitLvs88+9jEcaveh8PXt29cqgIS+4R6abjKu+FETg8BH6khdcMEFNhsiqbEBl05uIIJoyaIWepBN6YgjjrDXCSGEENmgXLlyNg4jHC+tOPWdRGQku8yDjCGanCXj9CA5Zx9iV4lhxcXRO7D6YSRCKfTLsGHD3LM8N10ydsYqzI6XYqIWNr4fn5eIocq7htIgBUnGFT9+OOrLLF261LpukrgFxe/999+3QbO4fpKGmCKM4UelSpXcpwghhBCZh/pOkZIJeK5d1PcTkYklO1y29txzT9ci/IJCghyjyTkTFoLiCH0ZwuWMBRALkuScXiiHcPbZZ9uYttCjZ8+epmbNmr7dPckjElrKCG9DMrV+8803rmVb0Fconp4I3IvkMJk+fXrcwv5vvPGGtWCGezlmm4wrfhQz9Nhvv/1s0pZrrrnG/sho3hRpJGtNOGj9KvgqhBAim1AEmwU0c1AoK1euNNWqVbOpxkVkkB3p2MNBdg0bNnRnIhWwLpAML5qczzjjDHcmUuHII4+06fnD5UwGR6DcgEgfhIJ5RdDDQbFCT1i8eLFrSZzx48db3SOUM88808YTekkmQ8ESiIUxUlKfaAwcONAql4899phr2RbKBKHTDB8+PGFrYqbIuOI3d+5cM3v2bHeWB8Gy3FQwdOhQm7EHy2AojzzyiE2ZC55JNpZpViQPnZsdCi/+QviDRaJkmDnUT1NHMkycKlWqmPr165uXXnrJteTx8ssvK9t0HFD8WBizY+7BvE1RcbJ2i/TQrl07u5AMXbguWrTIJiQhp4JID+3bt484DqCgJGoREvEh3Ou9994zZcqUcS35adGihX2kUHo4XvxeJP1g2rRpNmYuXPGjegCWv1AXUI97773XtG3b1p0lBt6LXogafzMcFNZu3bqZBx980Ho4huP9D5mMRQwl44ofgY+4dSIUTKEIGoGjcUONGjXMu+++a66//nqbueb111+3gj/nnHNsghe09Y4dO5rSpUtvyfYpUuPzzz+35nNqpeC/Tuagq6++2t4gIjHI5IQMWczMmDHD1qhiMqaNXVeROuqnqSMZ+mP06NFm7Nix9t5GbuzSkuyhV69e7goRCdwQmbO7d+9uLSWkvEdZpr/h4iTSQ506daxcu3btauPNcFujb06cOHFLbJpInRtvvNHWombdyTjAGhZDxZgxY9wVIlWuuuoqc/LJJ9v4N6yo4VkyJ0yYYPs2OgAWtU6dOtmcIXDdddeZCy+80D6fPHmyvSdQsFiX1atXz34eG/MkjAmF+EwUtClTptgyCXggspHCd6lVq5Y56qij3JWJgxUeXYe8JiiWn332mTVoUcccl1VcVZl7QyFpDd/3hRdesPMLSTCzMceUCLAVnCS33nqrPRKBgb9s2bLWbYb6HJjO+QEjQcYbgioV25cc/Bann366PYQ/2G0CyTBzJDNuiMjoXveHn75HLA8eKwsXLjSHHXaYOf74490rxQfGRY5kZcfijUUNc37t2rXtvC+i43f+Yc3kWRhw8WStJaLjd/xkAY9ygGUHZSJWyRKR14+9Pl3YwRpHbXGsgih96cjWihLLgRUS4xabXtl074zXzzNu8fMGIgIgqdcXTekDihtK6RNCCFHQsLhD2SPRWHFU+lJh5513tooIO91S+jIHa6bmzZvbQ0pf5iDRyyWXXGIaNWokpS/HQDEjhhAlKV0lOghlo7/gMooyWdAxfeFkXPETQgghhBBCCFGwSPETQgghhBBCiBxHip8QQgghhBBC5DhS/IQQQgghhBAix5HiJ4QQQgghhBA5jhQ/IYQQQgghhMhxfNXxO/fcc80JJ5zgzkRB8/bbb5sqVaqY6tWruxaRLF999ZV9lAwzB/2UFO/CP7rX/aG+5w/Gxe+//16yyzCaf7KDxs/sQNH1BQsWuDORbW688UZTp04dc84557iW/PhS/Kic71XLFwXP6NGjzdFHH20P4Y958+bZR8kwc9BPqWsj/KN73R/qe/5gXOSQ7DKL5p/soPEzO1x33XXm448/dmci28Qr4O5L8eNDOUThIN6PLOLz3nvv2UfJMHNo3Egd3ev+UN/zB+Mih2SXWTT/ZAeNn9kB+Xp9WmSfeP1cMX5CCCGEEEIIkeNI8RNCCCGEEEKIHEeKnxBCCCEyxurVq92zwo2PyJdCxZo1a9yzwk1RlvP69evNhg0b3Fnhpaj35aJCUZRzoYvx27x5s2nXrp1ZtWqVqVq1qhk+fLh7RUTDr9/6r7/+apYsWWIqVapkKlas6FqLJ6nGWCxbtszKUUQnlXHj33//tYvHffbZx7UUT/ze61CcZei37y1fvtze2zVq1DBly5Z1rcWHdMT4/f3333ZsXLhwoalQoYJrzc+0adPMiy++aLbbLm8vmmVJiRIlzPnnn2/q1q1r20Lhd7n//vvtc67zljE9e/Y0BxxwgH0+adIk8+6775rtt9/evr7//vuba6+91r4WypNPPmnmzJlj9t13X3stn83a45prrrHnocyYMcOMGTNmy9/j++644472nGtr1qxpzjzzTPv+ZEhHjN+sWbNM586dzWeffeZatuXxxx838+fP30bOJOOItAaI9LuULFnSDBgwwJ4DvwMy43MYY8gA26RJE/fqVpKR86hRo+z/48Hf5Pjvv//Mrrvuag499FDbN3bbbTd3RWKkMn563HXXXebnn382Q4YMcS3bkqycw6/n/+R/vOqqq+w56+IePXqYHXbYwX4O51dffbXtb6Fwr91zzz12bYec//jjD7uWPvvss80FF1zgrtoK2R/Xrl3rzozty3wHPn+//fYzRx11lGncuPGW75UoyLewxfile43GPcBGy2+//Wbq1atnWrVq5V4peOL282CHTJr+/fu7Z5khOHgE2rRpEwh+adciYsHvMXXqVHeWGHfccUcgOEkG3n///cCjjz4aaNu2beDPP/90rxY/kF+yMtywYUPgk08+CXTo0CHQsGFD1yqi4Wfc+P333wNvvPFGILj4s322uOPnXpcMk+97jIXt27cPBBdRgQ8++CAQXCAF7rzzTvdq8YG+lup8//zzz6MlBYYOHepaIhNcbAaCi3l77TvvvONaYzNw4EB7faTfJrh4DixYsCCwzz77BF577TW7rggluGALtGzZMtC3b1/7t0NhTmzQoEHgxx9/dC1b4XOCizz7d7/77jvXmjcfvPLKK4Hg4jLQr18/15oYfuafcLp06WK/0+eff+5aIkPfRiZly5YNBBf9rjU6ob/LzJkzXetWNm3aFAgq2fb/Xrx4sWvdil85r1+/PlC5cuXAgQcemO+3W7duXWDw4MGBoGITmDhxomtNDD/jZziHHXZYYO+9997mfwknWTl71+++++6BoMLmWrdCW+/evQNnnnlmxM9D9rVr17b3WyhBZTDQuXPnQKdOnWwfDYd7hN+WNaAH9w59mzHwiCOOCCxatMi9khjMNYUBfqOlS5cGgsp6oFy5cq41cf73v/8Fqlatus3vMWrUKNtv4dJLLw00a9bMPi8sxOvnyanxWYLdheDN7s5EumHHkvTRwcHTnHrqqaZjx452Z6d79+7uChEPdivZLQsOtnb3L3gvuVdEuggOXCa4oLPPsUyL5JEM/dGtWzdz7LHHmuBCy5x44onm7rvvNh9++KF56qmn3BUiUWbPnm2tcOPGjXMtkcHqc9BBB9nnzEeJcMghh+R7DAXLSHCRblq3bm0tHuFWC88qdfvtt29jcWJODC6irbUx3K2Pzzn44IPt8/Lly9tH2GmnnWyNY+bX4ILRjBw50r2SebC0eW6e8eS8yy67WMsHFtA99tjDtUYn9HeJJGesUE2bNjXNmzeP+LpfOZcuXdoEFT/7HUN/u6BiZC27HTp0MG3atDFBRde9knn4W0Glz1rRsCbHIlk5e9djESxTpoxr3Qptl112mZVz+Ofx2yPHiy66yLRo0cK15lGqVCnz8MMPmy+++MIEFTnXuhW8GSC0L3PvUO8QSyR/i98w/PcpCtx0003mtddeMxs3bjRBxdq1Jg5eHngphPfb8ePHm0aNGtnnlAh57rnn7POiQqFU/ICOJzIDrhnNmjVzZ3kwgDJh4SIg4sPg/MADD9iBNll3E5EYuE/gtsIAi5uPSB7JMHlwh8UtLdIY+eCDD7ozkQi///67XTxR9xfXve+++869kj123nln92wrKPC4Hd53332uZVtuuOEGu9jFtS8ZcK/CZQ53xWxBYXIW9bVq1Yqr+GWKbMuZMQ3Xxmeffda1ZB7cXhkbUKaeeeYZ15o9+LuR3C7ZoMKF33MNjcSgQYOsrOgrydCwYUPz1VdfWTfnogb9rmvXrlb59gPGEDauwvs2bqOe8s3vEa4YFnYKreInMgMT74IFC7bZmWNXg8nqrbfeci1CCFH8ePXVV+3uOzEyoRCP9Mknn1gLv0gMFsrEFqE0QzYX6dEgfgplAyuTFw8YCfoA1hUWj1h4EoVNaxaCf/31l2vJPO+8845p0KCBlfO3335rla2CJtNyxtII2ZQzMXMoEeecc46ZOHGitSQVNMTOsslw8cUXx1RAjjvuOGsBv/76611LYhSEnIsCRdk4lXHFr1evXvamJqh15cqVZujQoVaL/vHHH90VxmzatMm2Eyz52GOPmcmTJ7tXRLph4QK4K4Sz1157mQ8++MCdCSFE8YMxMtL4SBsu3R999JFrEfEgYcURRxxhjjzySLvoLChrVCgff/yx+emnn8wxxxzjWqLDYpn1STIbooRRYMHCxTQbYPVicc6inwQTPBYHOWNBxtoS7tqYKbD8nHzyyfY5nj4k9cCNsKBho4pxKVE50z+xWCUKcmbsw3ukOMFGBPdwaFIc1seEAaxYscI8/fTT9jnusEWNjCt+mO/pNJ9++ql1JezSpYsZO3bsFuUOt5rTTjvNWqBQDvH5ZneoMNxQuYiXVtvbxQmFNgYzIYQorjBGRhsfQWNkYmC9wf3MA2sUiiCxRgUJbmsQGtMUDe8a7z3x+Prrr63l5YorrrDud9mAhT+xhYC8WaATc0TcX0GSSTm//vrr1oX9kUcesbFt2eCVV17ZImcyXZJdtDAo2H7kTD+Nx+bNm829995rFfiXX345YyEtbJKQiTaZIxshScSRslkV6uJ60kknWSMVGU8xaPGce72okXHFD99YhIemTMwEOzR01E6dOtnX8b8lkNsLlAR2CE844QR3JtLJP//8Yx+juQTgyiCEEMUVxshYLlMaIxPj+eefz2eNIc4PCnqxnEySCi9pF7XbIkHiJI477rjD3HzzzTbuiw1uErtkyxUMi4xniQIUbCxtBZ1OP11y/uGHH7bImQQxJOwgXAVjAoaCbIASzbhAAh/gkXISKIMFPR6kS87vv//+Fjn379/f3HLLLWbPPfe063UUnkzxzTffWGNQMgdWy0xD6BMlNXKRrMT4MQDix129enV7TmdCAURrZ2eKui/hsJsi0g+/A0TaDSTrkTewCSFEcYQxMtr4CBojE4PNXqynPHKQebBatWopKX64NRI7lgpeLcF169bZx1h4mTJDLZehUFsNha9v3752wdyvXz/rTpctSJ7DdyTjrCdnrBGsuVKRczriudIlZ5JoIGMOlBEy7OIdxv+ZLcjgyffwZMyBUoDS9dJLL7mrkqcwyRlXUU/Ot912m5XzlVdeGTFpTzrBMETCwWSOqPXp0kxRjuOLRdaSuxA/Fo6XhtfruCLzlCtXzj7iTx8Ok4gUbiFEcYYxMtr4CBoj40MSMRRkXMpCDxKQLF261CoqfiCJRehimSyHgFtaNMJ/y1NOOcVuPON2Gg/vGsoeFUZIMILHVKiMKcjN933hhRci9uNEGDZsmHuWR3GXM66lJHUJlTPnuE6mkt0zkpxjyZiNj3BlxJNZonJm/CLmVhRfsqb4MQCE4wXQe+6HIvN49Xi8WD8PdriZULO5WymEEIUNxsjw8RE8ly7q+4nYUOcK6xfxbqEHlgTWAn6tUbj9hdY48xawuItFI3x9gccRyTmmT58e1YXT44033rBubtRyLIwQf3XNNddsI2dCaPComjJlirsyOcKtR/HkjCXJ21T2yBU5k7mTPhsuY46WLVvahDSeJS1ZIsmZTZNoVu1FixZt8ZzzoEYlY1a835qEJBhbOnfuHDGGuaDAldRzMU30KAxZa4syWVP8IkEHJmU2nTmcVN05RGQYWEieQ8rnUIgJAHZkhRCiuEIxapQ8LCehkJUaV0XKOojYkDWQYtTheMlHUAyTneOxhBDPFgqbx0cffXRUaweKSqRSAgMHDrR1LckiHg2Spnz55Zdm+PDhhdLli80Jb/M8nPPOO88qyH4UbJSD8OQZJOCjoHo0OaN0hOZp8MgFOfP9KN8QCRRb+uWECRNcS+JEkvOZZ55prXrRktyQUTh84wnLOgXap06dauMeozF48GBbf5gNmcIEfRirZTJHrPIgIj5ZUfy4MSL5MrOLMmTIEGvuprN7MOkSmOzXTUHEhkKv4X7pZG1q0qSJ70KXxRn6qxf/I9IPAensGEvG/pEME6dKlSqmfv36EcdIslKL2FC7L1KMpAcJX1CiqT0XjrdOCHd3Yy1AchiUiHBIp85vNXfuXNeSB+8hTgkLRzgsNinETbzQtGnTXOtWFi9ebFO1U7AfxTIc73tGWtdkCxKdhNfj9SAuiwyUZE+PlIWW7x3JpXD58uW2JER4/Bwb9GR4JEt7+BjCb4lCEikBSDrkXJAyxlrM/0wcWiTIKIpsKFQfiWTlzKYT2SL79OnjWrZCnCGbTl6ehlAoso5Cd9lll+UrleYxadIk65JKCYLw93vyLSg5ly1b1tZ6TOaIFnMbDdZojEnJJMIBfrtItRqj6TRFhe1vDeKeJwxKWaLBlaQ0ZjeEzohfNIPE8ccf717NC+xkcGBniB0qUqfy+aSOZaJl54NrEklVW1xBXuyAJLoLgu89GdfYbSKD6syZM+2OEbuwxTVxAe4VkKgMGUAohEocxZtvvmmLOrNryW9BzIXigLYlmXED2BFl4cbCbsmSJTY2iPGAXf/iaplO9l6XDPNItu+h+P3vf/+zFj4WGSNGjLAWFlLIFycYFzkSkR1ua2Q6JMU+liHKOZx11lnu1Txw0yIrHwsx5nr6IsoLKdrJjMl4ythKO/MSZZ24nnrAxAUyd5EdPBQW3nXq1LGJVlD2sBqhZGDhIDthtLUDf5fvy/tYn+CqiFJDkXmStRBPGFrDC/hOKDEspFn8cX9R9zH8/0yWZOYfvgMuhsw7/J/8f8w5HsiPDQosQGyo0/f5PfiOWN4GDRpkX0Mh5P/mc1AQ6ePXXnutdQnEkhVuWcINE6WBxCqerIgxRBbIJJJSDn7kjLKIQYBMk2xYMbfyvVLN9p7M+IkF8tJLL7VjJvIhcyp9zQOZsgYgwyjrWvowYwTfMRU5UyoCRZrMsOTG4L28B5nhwhsN7lG86CgvQEZK5IzFm/uA+4gjXIElWQ73KxZ6lFGuxw2UcS8VRo8ebdq2bevOCg76JVZv+hr3AmMIsqUfs8EXC8Yj/g/WdsydBx98sJUTKhM1HdFnaMdYUtjylMTr5yUCXn7XJOAf96EvxoVOh/KHIsiNhKZNJqVM1Q/JFfgtuOmTWdgAHRdfaeTNIjBWCvNchxsFkpWhSJxMjRvFCb/3enHHT99jhxgr0sKFC+2CKXTDsrjAuMhRFO5blD4W31iRvKLxkXILRIJFPAfKXI0aNaz1Kptuh0Vp/iHJkVecHUU8ESXKo6DlXJTGTxRDlBTA1Za1cCIwbrGpgsKK5Ze8DSgt2QT5en1aZJ94/bxAY/zCOfDAA60SAuysMKBI6cscBARfcskl1je/OCt9QggRDmMiyt7ll19eLJW+ogZWDqwtWGlwG0xU6QOUROZCrBS1atUqlLFmhQXWZFjEsVYlo/SB5Jw4uIHi+smRqNIHjFu4QxLSQ03HbCt9ovBTqBQ/IYQQQgghhBDpR4qfEEIIIYQQQuQ4UvyEEEIIIYQQIseR4ieEEEIIIYQQOY4UPyGEEEIIIYTIcaT4CSGEEEIIIUSO46uOH+n/qd8iCgevv/66LYWhtL3+oUAsSIaZg36aaqHj4o7udX+o7/mDcZH6upJdZtH8kx00fmYHCvB/++237kxkm549e5ozzjjDNG7c2LXkp1AVcBf+KEpFSQsrKuCeeTRupI7udX+o7/mjKBVwL8po/skOGj+zA/JVAfeCI14/l6unEEIIIYQQQuQ4UvyEEEIIIYQQIseR4ieEEEIIIYQQOY4UPyGEEEIIIYTIcTKu+N14443mnHPOsZlAY/HFF1+YVq1amfr165tHH33UtYpM8uuvv5oPPvjALF++3LWIZNm0aZP59NNPzaJFi1yLyAT//vuv+emnn9yZ8INkmDyMjYyRv/32m2sRicKY+Mknn5h//vnHtYh0o/knO2itJEIp6vpKxhW/e+65x5x22mlm7ty5riUyhx56qBk9erT57rvv0ro4adiwoWnRooU7Ex533nmnue222+yk/Oqrr5p27dqZ9evXu1dFIrz22mumbdu2tr9+9dVXdiD4+uuv3asiHfzxxx/mzTffNA0aNDCPP/64axXJIBkmD2PhFVdcYcaOHWtKlChh57G77rrLvSpiwRjYsmVLM2fOHPP333+b9u3bmylTprhXRbrQ/JMdtFYS4WRKX8kWWXH1rF69unsWm9KlS5v99tvPnaWH8uXL20NsZcyYMWbevHlm8ODB5tRTTzUdO3Y0Rx11lOnevbu7QsSDiRZ5jRo1ylq0mzRpYvr06WOaNm1qNm7c6K4SqTB16lQ76cKSJUvso0gOydAf3bp1M8cee6zp3bu3OfHEE83dd99tPvzwQ/PUU0+5K0QksEAxFvbv398ukGvXrm1GjBhhunbtuqVWnUgdzT/ZQWslEY1M6CvZIiuKHzumiZLMtYkwbtw4M3z4cHcm4P777zfNmjVzZ3m0adPGDnK4NIj4PPjgg9aCUqpUKddizNFHH23+++8/8/bbb7sWkQr16tWzlhbcxEuWLOlaRTJIhsmzevVqW4A40hjJfS+iM3nyZOtSfPjhh7sWY3baaSfb/1AARXrQ/JMdtFYSsUi3vpItlNylmIFpesGCBeaQQw5xLXlUqFDB7Ljjjuatt95yLSIWLHDCZQhVq1a1LjhCiKIJ7ly77LKL2XfffV1LHtzbxKz9/PPPrkWEo3ExO0jOmUdrJZGrFKjih28scRNDhw41jzzySNw4wGTYvHmzNctfcMEF1u3Eg0DMCy+80O5A4rP92GOPmRtuuMFMnz7dXZHbsHCBvffe2z6Gstdee9kAZhGbtWvXmu+//z6iDGmTDIUoujBGRru3A4GA+eijj1yLCCeW7EiI8Oeff7oW4RfNP9lBa6XsgnfekCFDrC6Aaz1JizxIqkPMNa7MDzzwgJk9e7YZMGCAueOOO8ytt95q1qxZ467MD266JJjEVffee+81L7zwgnslD1zTBw4caP/mww8/bMMiVq1a5V7NT6L6ClZ3vuNDDz1k/ybhAoUtOViBKX4zZ8405513nrn44ottPEXnzp3tDku64gBwa+IH3bBhg51wPAg05+8S+4LS17p1a+svz49UHMCNCXbYYQf7GAptyl4XH8lQiNyF+zvavQ26v6Mj2WUezT/ZQXLOHldffbVd//fo0cPqAtdee61VmsaPH29fJ5YORY/kRazbly1bZq677jrTt29fc8IJJ5jjjz9+m8y2L730krnsssusYadXr15WAfvss8/Miy++aF8nQQ+hEMcdd5z9m3wH4pKbN2++zWclqq+wMYhyCsQ18zdJbsmBC3xhoUAUPwR+6aWX2h+jSpUqrtVY69zuu+/uzlJn1113NQcddJA7y4MbluBcfoTddtvNlC1b1mZuI6ajOOCl1t5+++3tYzhkABSxkQyFyF24v6Pd26D7OzqSXebR/JMdJOfsgGvyhAkTzPXXX+9ajHWlvemmm6yChWs9sXToBjVr1jSHHXaYzRrsce6551rFqkOHDlbxgt9//9106tTJJjzaY489bBtg4EGJAzK14rZ7+umn23NAwUTxC/2sZPQVdIlZs2ZZBdajcePGNuES/2NhoUAUP4KPv/32W3PGGWe4lq2grKWTSMGXtPGjoukD8Rw777yzfZ7r8L9CpN0H3HAIxBexkQyFyF24v6Pd26D7OzqSXebR/JMdJOfsQImhOnXqbJN8zEtWNGnSJNeSt3YvV66cO9sKiiAKnVfOhPJFuGbWqlXLnnt8/PHHVuED/i51+MJBEeSzPGteMvoKFkqsj+F6B8amUNfVgqZAFL/58+eb7bbbrsDLLOCnXdzwbhp8m8NhlyTdincuIhkKkbtwf0e7t0H3d3Qku8yj+Sc7SM7ZgQQ60WRJ++eff+7OonPAAQfYRz4LCO9C+dp///3tuceBBx5oypQpY1auXGnWrVsX8e96bd7fTUZfoWQStUvxIAw9sEpSZ7OwUCCKH8GyaPKRdlKyCT9mccNzffX81z34Lf76668tVlARHSaEPffccxsZAu4fkqEQRRfGyGj3NlDfT0QmluwqV65sx02RGpp/soPWStlhn332sbk4IkE77pjx8JK7eHX1+Ey8+n755Rd7Hg7un4R9Rfq7Xpv3d5PRVxjj+NuXX375Nkdh6i8FovlQCBOla/Hixa5lKwhYZI4jjzzS7o5gug4FszhQG0jEhr5LoG+4DIGdpEguAUKIogHB+SygyZ4YCvd2tWrVbMp8ERlkF21cbNiwoTsTqaD5JztorZQdcK2MlCGTzLWMwXXr1nUteURSwObMmWM3Q3CpBGL+uE8iWQv5W9S/PPnkkyP+XVwyyf9xzDHH2PNk9BVcR8kkGgkykRYWsqL4UVqBw4PgTAIvydITCpl0yLAZybTuF/4uptdQvO/Crk1xhMymZDwK5eWXXzZNmjTZxjQuItOuXTtb7yv0xqf/EhBOMK9IH+zcEWDtxQmJ5JEME4cAfibwSGNkly5d3JmIBIofC+OlS5e6lrz5ljgZEiaI9KD5JztorZR5yHyJMvfGG2+4ljwomXDRRRfZ+L9QZsyYkW9Nj3L44IMP2jILXtwlSWDIqkn5BS9JC2C9JfkKcD31MCkV4YHuMXLkSKub4BIKyegrZCNFSXz66addSx7EKSZiMcwWGVf8qLNBWQWEQ2ac9957z7ZTrwOzKJl7pk2bZn9kfpCDDz7YCp5JIhXrHzu2TNJTpkyxdZdI1er9qNT1IHD3qquusj9UcYP/nyxDI0aMsDKhhuHzzz9vxowZ464Q8WAwon8xuODv/80339isTxMnTtwSGyBSg926nj172sBt+ukzzzxj7+Obb77ZXSHiIRn6Y/To0TZDG4sM5DZ8+HA7Z3CPi+gw9pHgoHv37tZSQsp7xkn620knneSuEqmi+Sc7aK2UeUqXLm2TqSBTdAWUMdblxOiNGjXKXbUVXCapx42iSO0/SiwwPrdp08ZdkcegQYOs5Y92lPXnnnvOHqz7AYsu7WTgfOKJJ+zviqKPkhe+SZWovoLi+f7779vvhtJJkX8yiaL0YTksLJQIasNb1eEEoWAiRzpgN5BMPJUqVbIaNjuFmGEx2xaXTJupwm+BuTw0LW0iIHdM5Pgw47YQKw13ruNtSCQrQ3zLGQgAFxvKg4jIpHPcKK74vdeLO376HpM1rkALFy60u75kaytuMC5yJCs74mRYzJGKvXbt2luSL4jIaP7JDn7HT62VkgP5en06GfDCo0YfLvWRZMwGJhsbKOJsKmHgQXeIBeM4GyN4clAmIhLcR/xtlLtYJKOv8HkrVqyw/0t4ls9ME6+fF3h2E1K41qhRY4tZFSEhVCl9mYfg5UsuucQ0atRIA5lPyPRE3RcOTbpC5A6MiSh7BOYXR6UvFZi/UUTYjZfSlzk0/2QHrZWyA9Y/rGiJyJj+Hk/pAz6revXqUZU+4D6Kp/RBMvoK/wv9JttKXyIU6rSW+N5iYvVzhFfeF0IIIYQQQhQ9cLfF9VakRqFW/CpWrGj9b/0cBHcKIYQQQgghiiYYgYhN//HHH22NPuJbqcMn/FGoFT8hhBBCCCFE8QQj0MMPP2xLLXz88cdm2LBhthaf8IcUPyGEEEIIIYTIcaT4CSGEEEIIIUSO40vx+/XXX90zURjg91Bh5tRAfpJhZtG4kTq61/2hvucP+ppkl3k0/2QHjZ/ZQTIuWOL1c191/M4//3xz9NFHuzNR0FAvhZTZSpvtn++++84+SoaZg36abP0kkR/d6/5Q3/MH4yKHZJdZNP9kB42f2eHZZ581ixcvdmci28Sr41fgBdxF6vgtSiq2woQAkmHm0LiROrrX/aG+5w/GRQ7JLrNo/skOGj+zA/L1+rTIPvH6uWL8hBBCCCGEECLHkeInhBBCCCGEEDmOFD8hhBAig6xZs8Y9E0IIkW1Wr17tnomMx/jdcMMNZsGCBYY/M2XKFNfqH4o33nPPPXYi7dy5s2ndurV7pfji12+dzD9LliwxlSpVsgUyizN+Yyw2bdpk+/fOO+9satas6VpFJJIZN0JRP92K7nV/JNP3Hn/8cTN//nyz3XZ5+6L//fefOfTQQ81VV11l5eh9TokSJey8BrwW7f6fNWuWnas+++wz17It06ZNMy+++OKWv8nn8vkkUqtbt65t83jmmWfMV1995c7ic/HFF5uDDjrInSVHKjF+ixYtMn/99Zc58sgjzQ477OBaRSQ0/2QHjZ/ZAfkWphi/v//+2/52CxcuNBUqVHCt+ZkxY4YZM2bMljGdsXjHHXe0zzdv3mz2228/c+6555pjjz3WtoWSynszQbx+nnGL33333WdOPvlkM2/ePNeSGscff7x54oknzBdffBFxF3XZsmXumYjFnXfeaW677Tbzzz//mFdffdW0a9fOrF+/3r0qEuG1114zbdu2NT/99JNdiLVq1cp8/fXX7lWRDtRPU0cyTI4rrrjC3HXXXTYz3ZNPPmnlh2IH5cqVMw888IA55phj7CMKDY+xFt0oaiiSLNCjgXI3aNAgm92Rz2vSpIkZPHjwNkofDBs2zPzwww+madOm9nuhVDLueJP91VdfbcclFK6xY8fazdJswndp2bKlmTNnjl1wtW/fPi2bviI/mn+yg8bPzHP77bebAw88MGNlIF555RWzdu1a8/zzz7uWbTn11FPN8OHDze+//25Gjhxp+vTpY4YOHWoPxuT69euba6+91o6vbLiEksp7C4KsuHpWr17dPUsPu+22m9l7773dWX4eeeQR90xEg50JFHEWFnTYjh07mqOOOsp0797dXSHiwUSLvEaNGmXOOeccu1DjZmcxtnHjRneVSAX109SRDP2xyy67bNndL1OmjGvdSo0aNfI9RuPff//dskE5btw4+xiN7bfffotljt8oGsx9WCUpqbTPPvvYcy89Pd9nr732MlWqVDEXXHCBefjhh7PqZsqihrGwf//+doFcu3ZtM2LECNO1a1fz5ZdfuqtEqmj+yQ4aP7ND2bJlrSWOMTATzJ49246R8cZgLHUHH3ywfV6+fHn7CKVKlbJjGRtYbM6hyGHJCyWV92abrCh+uKykm0ifiZn1k08+cWciGvfff79p1qyZO8ujTZs2dpDDpUHE58EHHzQNGjSwN7UHCzHcwt5++23XIlJB/TR1JMOChbEAi1etWrXiLjoSJZkauvXq1TPr1q1zZ5ln8uTJVtk9/PDDXYsxO+20k2nUqJFVAEV60PyTHTR+ZgcUaZQzXJbTDVY4FMsLL7zQut17NTP9wFg2YcIEW6MwWSNTKu9NN1lR/LLF008/bb7//nt3JiJBp8fl6JBDDnEtebDbgk/yW2+95VpELFjghMsQqlatal1wRGqon6aOZFjwvPPOO3aBzmLx22+/te6PqYBShUUvUUqWLGl23XVXd5Z5NC5mB8k582j8zA2Incb7gTEYcOFPhdKlS1slEq+GZF1TU3lvOsmq4ocLwlNPPWV9YHv06GHmzp3rXtnKu+++a2MdiGNgFyDSNeGg0eM7ixkef/du3brZAzcIkR/PIhrJVZYFxQcffODORDTwFWeDIZIMaZMMU0f9NHUkw4KF+DZiAHFfIv6Kx1StfnwGc10y9OrVyz3LPPS5aOMicfkFudjJFTT/ZAeNn9mBPCAkaUQ5CwX5owdg0HnooYes2zpHshBffcQRR9iY58MOOywtnhcnnnii+eWXX3zlLknlvekiq4of5nF80K+88kqbaYykL6FuKAiCnaxrrrnGdOnSxdx8883mrLPOMtOnT3dXRIaYPzoEAaLEPHhBlcQYiPx4KW0jZVmj7bfffnNnIhqSYeaRjFNHMkwdJmgSvIQfJHmIB9eQyQ2Yl3C7fO6556zVLlehz0Xrb6A+lzq6r7OD5JwdevbsaRUyMmN6rFy50gwYMMDqAegKxAijbP/444/uisRYtWqVHXs9sPqhCLIJlQreZ/JZyZLKe9NF1hS/n3/+2WrcKGng+aOHKnUzZ860GXC8YHRM6meccYYNZBfpgcxUEC2I9o8//nDPRDQkw8wjGaeOZJg6xGUQrxZ+kIEuHsSTsLnpwaIDj5TClOY83dDnovU3UJ9LHd3X2UFyzg64zVIuJxQyEaMHeOURoHnz5hETbcWCLJ4tWrRwZ8a6WUKqVj8vxwjjebKk8t50kTXFj4w3pMD24Mcmcxp1fjwuv/xyq/V7GXHIEMYPjdYu0gMyh0i7zrjhsNARsZEMM49knDqSYeqQbOC4447b5ohXM43wAxYuH374oXUJ46CWE5N+KosO3EfZMC2s0Oei9TdQn0sd3dfZQXLOHuHJGk866SQb5kU2TDKqeiFfvXv3to+JwriL5dYbgxmTq1WrlrLi53kqhiusiZDKe9NF1hQ/JlCUvXBCNXqUPK7r0KGDrZsyadIka04v6NSnuQR1qCBSLREWK9lMBFBUkQwzj2ScOpJhwTFx4kSb9p26at5BbBYp4V944YWIv0kiELceulla2KDPRetvoD6XOrqvs4PkXHAQV0liLH6Dvn372sLnbLgtXbrUXREfkvOgnIeOwRwk2+Jz2JTzi1cvHC/GZEnlvekiqzF+8SDbDgGeJH4h6w0B8fvvv797NXmU1nhbvDpRnv+6B7taLCi4uURsGIz23HPPbWQIuH9Ihqmjfpo6kmHBgasSserEp4QexKqQBt5vQXMKtyfr7pRN6HPRxsXKlSvbcVOkhuaf7KDxs+BAaaMmHhlqGS8JA6PPJ5PYavz48aZfv37bjMEYlfBATMXqR/w2Mdt+rHapvDddFBrFD8sfCh8TIzEUHqHJX+LF+pG6OtSCSL0MkR92GShkSWrxUDx/Y3ZDRGwYNM4777xtZAgEJROXKlJD/TR1JMOCgYVipEyAwLiB4uZn0YHnC3GDhRmSt0UbFxs2bOjORCpo/skOGj8LDtwyvXIZJNI55ZRTzEsvvZRQln8PLGuVKlVyZ1vxEm2hGPpxm3/zzTdtSBoZR5Mllfemk6wofkxY7JKEE9rOI/ELoe6gnOMes379entOOQgP3hvuAkrcxYoVK7Z8ZrTJt7hDQWFuolBefvll06RJk5QsrMWJdu3a2Z2b0IFj0aJFNiC8cePGrkWkgvpp6kiG/mFXnyMSXnuk18kuHanGGhDKQKZPsldHygrofV743Ia7GYkJ2NyMhJdowoulKyhQ/FgYh7pk8b/gfUMIh0gPmn+yg8bP7MAYEbq+h/DSDcQBkhQyEajdF0nn8CDhC5skuJOGE20MBpRFxjH6QKQ4b7/vpaQFFuRsJQza/tYg7nnCkJXs9NNPd2exYRKkdh9BlUuWLLEV9KlBw58lpSoHyhq7VGRKGzhwoB28mBSZLG655RabPhvTL1o/iiBtFML95ptvbLu3k0jxUkpC8P0QIMUSo03AuQT/LztTHImAHMl2hAmd+iaY0bnJ6JjFNWCZfgSJyrBKlSr25qbGzGmnnWaWL19u606OGDHC9kOxLcmMG6B+ui261/2RTN/DswQZYV1DkSIuhEXC8ccfb+VIgoGxY8dabxQUHDxL+D2+/PJL07JlS7urO23aNJukjDg/jw0bNtj05FOnTrWbmnwnUnpTsojnd9xxh43/47qvvvrK/la4OvG3qMVHTAq/Z7NmzeznMebgykQ8IfHwKAEfffSRnQN5PwkSUoVxkSNR2dGnkBPfi++KdYrvjtLKYllERvNPdtD4mR1Gjx5t2rZt685iw7jH9WT+R0fAxZOEjqz1GR/RB9ATqP/dp08fm+0/GozJ559/vnnkkUfse/kcxtdQ7rzzTjumoiNgfWOsRE9YuHCh1VcouYMCx3jO67jlT5gwwQwfPtx+Hu8l5jAUrvP7XnjjjTfsfMPYmUjG6HjE6+clAqG+kQmC0uZDX0wIBjMmU24qBjcPfvxI9VQigWJZqlSpfPU7chl+CybmZBbVwIIGBRrLKG4LsdJw5zrcKJCsDNnQYJEHbF6wsSEi43fcUD/diu51f/jte8UdxkWOZGWH8soimcUcmfkSXWgXVzT/ZAeNn9kB+Xp92g8oZbjEs5mF7MmwWrFixW2yf+YSGMDoY97GXirE6+eFKrkL4MqC9h2q9EGiSh/w3uKi9KUCwcuXXHKJadSokQYyn7CrT30ZDk26mUH9NHUkQ5FNcGlFESGZgpS+zKH5Jzto/MwuZExFyUPW6APE6uWy0geffPJJvvwmmaTQKX5CCCGEEEIIkevgeIkrP26u2UCKnxBCCCGEEEJkmffff99cdtll7izzSPETQgghhBBCiCxTp04dU716dXeWeaT4CSGEEEIIIUSOI8VPCCGEEEIIIXIcKX5CCCGEEEIIkeP4quN37rnnmhNOOMGdiYKGQveUsMimj3CuQRFPkAwzB/2UFO/CP7rX/aG+5w/GReriSnaZRfNPdtD4mR0oWr5gwQJ3JrLNjTfeaOMGzznnHNeSH1+KX6dOncyFF17ozkRBM3r0aHP00UfbQ/hj3rx59lEyzBz007Zt27oz4Qfd6/5Q3/MH4yKHZJdZNP9kB42f2eG6664zH3/8sTsT2SZeAXdfih8fyiEKB/F+ZBGf9957zz5KhplD40bq6F73h/qePxgXOSS7zKL5Jzto/MwOyNfr0yL7xOvnivETQgghhBBCiBxHip8QQgghhBBC5DhS/IQQQgghiiA+onWEKPSsWbPGPRPpRopfMebXX381H3zwgVm+fLlrEcmyadMm8+mnn5pFixa5FpFu1E9TRzL0z7p168yGDRvcmUgUxsRPPvnE/PPPP65FpJMlS5aYK6+80vTu3dv07dvXJtQgO+iQIUPM559/bq+ZNm2a6dWr15ajZ8+e5vrrr7eveWzcuNF06dLFvsY199xzj3slLwtmhw4dthxXXXWV6datmz26du1q2wYMGOCuzl00fmafiy66yEycONGdRebaa6/d0jcHDRrkWreydOlS20+9vk8/37x5s5kxY4bp2LFjxH7duXNnc/vtt9t1Xa4ixa+Ycuedd5rbbrvNTsqvvvqqadeunVm/fr17VSTCa6+9ZrPd/fTTT3bCbdWqlfn666/dqyIdqJ+mjmSYPFhRVq1aZZ566ilz3HHH5fQiIN0wBrZs2dLMmTPH/P3336Z9+/ZmypQp7lWRDr755htz2WWXmfvvv9/cd9995o477rAKG0oYi9b//vvPXle3bl3btmLFCvPAAw+YSy+91L4nlFKlSpkjjzzSvPnmm+bss8+2i2SPDz/80IwZM8ZUrVrVLrKHDh265TjxxBPNyJEjTdmyZd3VuYnGz+zz888/m3fffdc8/fTTriUyAwcOtL8PGxT0T36fUKpVq2YTnaAA7rTTTubee+81JUuWNKeeeqoZPny4+f33320f7tOnz5Z+zX1Sv359+3lXX3213dzPNaT4FUMYyEkfPXjwYHsDsPNx1FFHme7du7srRDxQ9JDXqFGjbK2UJk2a2MGjadOmdgdVpI76aepIhv4YMWKEeeyxx8zOO+9svvvuO9cq4sEiibGwf//+doFcu3ZtK0t23b/88kt3lUiVW265xVovdt99d9di7IKWhSt9NpTtt9/eVK5c2T4/4IAD7GMoWLO+/fZbM3v2bNOoUSOrCHr8+eefdiHM3FajRg2z44472va1a9fahTFjClbHXEXjZ8Hw3HPPmdNOO80qcihnsdhll13s+HL88cdby91vv/3mXsmjfPnypnXr1nbTo0yZMq41qPxst505+OCD7XOu8aD/M26xWcXYjxKIlTCXkOJXDGHHr1mzZu4sjzZt2thBjklAxOfBBx80DRo0yDdJUhuInVZ2n0TqqJ+mjmToDxZ4uM8dc8wxrkUkwuTJk82///5rDj/8cNdi7E47CgUKoEgPWOL23HNPd7YVFDMsgYmCAscYgVUkkuWOTUwstuGg9LEgf/TRR02JEiVca+6h8bNgQOGiCDkeA/HcPYFNjyeeeMJ6aeDyHA5jEEcycD2F6BcvXmweeeQR15obSPErZnBDLViwwBxyyCGuJY8KFSrYSeOtt95yLSIWLHDCZQi4xOACKlJD/TR1JEORbTQuZoc99tjDjBs3zp3lp2HDhgktclkk4yrXr1+/qNdjEQnd3ISpU6eaJ5980sYWHnrooa4199D4WTBgfWa8YGN9r732itrPwzniiCPsZh2um+n6bUqXLm0uvPBC68GA9TtXkOJXzCDYHvbee2/7GAo3GQHMIjbskn7//fcRZUibZJg66qepIxmKbEOfizYufvHFFzm1eCpILrnkEhv/hHWPWMpQVzSKNkdSvkMh5u+GG26wsWvhil0ouM6FggWwU6dOViG8+eabXWtuovGzYHj++edtjDBWPPImvPPOO2b16tXu1djcdNNNNl6VhC3pGmuIZf3ll1+sy2+uIMWvmOHdQDvssIN9DIW2cP9osS2SYeaRjFNHMhTZhj4Xrb+B+lx6IL6PrIckHzr55JOtBfD88883L7zwgrsiOj/88INp3ry5jaPCqpUMJJEhVpPEGLEUxlxA42fBQGIXrKqAWy2bGiiDicDvgssn2VexSKeDffbZxz7Onz/fPuYCUvyKGV5qbQK+I/HHH3+4ZyIakmHmkYxTRzIU2YY+F62/gfpceiAxBRY/MnGSeZCF8ksvvWRatGixjZUuFDKu8r4XX3zRJoEhfs/LABoPLLZkEG3Xrp2pV6+ea81dNH5mH1xrQ+ODTznlFJuYKFF3TyALMyVLiMujnEmqeDGsZG/PFaT4FTPIgAQE4IeDaTzZANjiiGSYeSTj1JEMRbahz0Xrb6A+l16I5xs2bJjNMk1s1Lnnnmuz0b7++uvuivyQqRB3uH333ddmAKWeGYnK4kF5ExRKEsCQ8CQULIi5iMbP7PPss8/avokbLQdJjE466SQzc+bMpPoZMXm4O19xxRXmr7/+cq3+oI4r5FI8qxS/Yka5cuXsY6TaJGTp2nXXXd2ZiIZkmHkk49SRDEW2oc9F62+gPpcevPizUCjVQAZELCavvPKKa80PBao9cBXFPZRSDSiOsSBhBkoiRbLDs4k+88wz7lluofEz+5A7gRwKWKa9A6sfGw8ohYmCGzIun2yGkPAlFZYtW2YfiR3MFaT4FTMOOugg++j5r3uwq8XOCGZyERsmBCa/cBkC7h+SYeqon6aOZCiyDX0u2riIy1akEgQieaIpW8Q4NW7c2CZvSQRi9chcGMvlk5gr4qWwLpJUJpxcLWug8TO7kKTo7LPPNhdffHG+o2fPnqZmzZpJuXsCsa89evQwQ4YMsRZDv1BLENdmWfxEkYVdC3YG2QkJxfNfJoWuiA3xFeedd942MoSVK1eaM844w50Jv6ifpo5kKLJN06ZNo46LKA4iPbz33nsRXRAB5S/RRSqxgQ899FBMl08W3tRTi1TLDKUol7IdhqLxM7tMmjTJNGnSxJ3lB+s0/YyaeuFgDeSIBMmIKA2RiDtzJIih5d7AnTqXkOJXDGF3j0DwUF5++WV70+2///6uRcSCAHd2gkJ3SRctWmQDwtlxFamjfpo6kmFqeAkcvBg1ERsUPxbGS5cudS3GZuV7++23bYp1kR6Id6JQdbiVDrdE7u+OHTu6ljy8RCWhZR88qFNWt25d6/JJApdQiBXExY5af9WqVXOteVAHkKyLWAxzFY2f2YHssmxmlClTxrXkh6RFQBbbcJYsWWIzzUaCvombcjRrthf/F+m+GD9+vB2z+L2xOIZCiQlKmnz88ceupWghxa8YcuONN9p6PCNGjLATxfTp02263DFjxrgrRDzq1KljU2p37drV+vt/8803plevXjbGwosNEKmhfpo6kqE/uI9xE+L+JskDNcs4HzVqlLtCRIKxjwVT9+7draWElPeMk8iPJA0iPWCJwu3y0ksvtcXUP/roI1sgn/pnWDlwqwUW08T1YU2hH5PsgoyHoRALtXDhQuvJctZZZ9nPXL9+vX0NZZCshp9//rnd7OTg7zZq1MgqgiyASfiSq2j8zDwkDcItk3IJWFE3bNjgXsljwoQJdm2FEkfiIupIYokDMtpS62/s2LG2RMncuXNteyjUtWQMCs3OihUPpc5TJFHwuU84eI7LKX9j1qxZ9p4Ihz7BpuC7777rWooWJQLRbKQxuPXWW+0hCgf8FnRujmQgcBa/agqUcsPFSsOd6zBBQrIyXLNmzZaUwbh45vIkmCp+xw31063oXveH375X3GFc5EhWdizeiKshPqx27dpWURHRSXb+wcKBxYHlG/f2p59+aq0lJMLYfffd3VUiHI2f2QH5en06l8FNms3Bwka8fi6LXzGG4GVv904DmT/Kly9vd5o4pPRlBvXT1JEMRTahRhwbYSRnkNKXflD6AGtc9erVTevWrW0pByl9mUHjpwgHT6+iWtJDip8QQgghhBBCJADJjnCtLopI8RNCCCGEEEKIOJDYiIQvRdXLS4qfEEIIIYQQQsSBWM9opSeKAlL8hBBCCCGEECLHkeInhBBCCCGEEDmOFD8hhBBCCCGEyHF8KX5///23eyYKA/wef/31lzsTfkB+kmFm0biROrrX/aG+5w/6mmSXeTT/ZAeNn9lhxx13dM9EQRCvn/tS/Ipq7Ypchd+jdOnS7kz4AflJhplF40bq6F73h/qeP+hrkl3m0fyTHTR+ZodNmza5Z6IgiNfP5eophBBCCCGEEDmOFD8hhBBCCCGEyHGk+AkhhBBCCCFEjiPFTwghhBCiCBIIBMzChQvTnrTkl19+MV999ZU7E6Lo8N9//7lnIhJS/IQQQgghihgoe82bNzc//PCDeeCBB6yylg6ef/55069fP/Pjjz+axx9/3LUKkX4GDhxoevToYXr16mV69uxpunXrZr744gv3qjEvv/yy6d69+5bX//e//7lX8jNz5kzTqVMnc/PNN5sBAwaYa665xr5n7dq17oqtzJgxw3Ts2NF06NDBHryvS5cupnPnzuaee+4xr732Wk4rj1lR/G6//XZz4IEHmj///NO1CCGEEEIIvwwaNMjUqFHDnH322ebqq682kydPdq/4h3Uan8UCuH79+mb9+vXuFSHSz7XXXmtuuOEG884775ghQ4aYU045xRx66KHuVWPOOOMMs2rVKqustWnTxtx4443ulTxQ0O666y5z//3328c777zTfh73RosWLUzjxo3te0M59dRTzfDhw83vv/9uRo4caZXFYcOGmYcffthupKBE8h3C35crZEXxK1u2rKlQoYLZfvvtXYsQQgghhPDL+++/bw444AD7fIcddjD//POPfZ4Kn3/+uf2sXXbZxZ7jSipEJqlYsaJ59tlnTalSpcz48eNdax4777yzPd58801z0kknbVMj8LbbbjOPPvqoGTdunNljjz1cax61a9e2yiAbGLhDh7LddtuZgw8+2D733leiRAlTvXp1qzxecMEF5pxzzjGLFy+2r+USWVH8MNPOnj3b/nhCCCGEECI1UPQ8907c0xo0aGCfp0LoZ/7777/2ECLTYGHDjfOll14yTz31lGs11jLXtm1bs/vuu7uWrRCDeu+999ojmn5Rr149axHHjTOZTQze88cff5ixY8e6ltxBMX5CCCGEEEWMSpUqWUvGr7/+alauXLnF+pcKfObff/9tvvnmG/Pkk0+a1q1bu1eEyCy4fdaqVcsai1asWGGWLl1qH+vWreuuyE/fvn2tJyHumbG47LLLrHWceMFE8YrQ56LFO+OK33333WcHDsymHk8//bS56KKLTMOGDc26devsTtWYMWPMTTfdZM29kZg3b5717R08eLDV7l944QX3in/ee+892yEw506dOtU899xz9vPpTA899JDZvHmzu3IrtPE/cRCUynf56aef3KtCCCGEEJmHWKV3333XxieRoMJjw4YNNmHGddddZxfTLKSXLVvmXo0N+Rj23Xdfc/fdd5t99tnHuuF5sO4iaQafS+KMxx57zL0iROqgxI0ePdpuPFx55ZU2zpT4u0hgiZ4yZYo54ogjrGtyLI477jj7+Morr9jHRJg4caLZc889bRKYZPjwww/t98ZSScIl9IpQuG9QVLmH2KwZOnSovT9JpJQtMq74kYXnsMMOyxckiSKIwvX222/bHaWDDjrInt96663WHIsiGAqmX14nYBOh9e7d23z22WfmxRdfdFf447TTTrNK3htvvGET0NSsWdN+/h133LFll4EB1AMXCFwpSpcubb8LAyoKbPv27d0VQgghhBCZh8QXy5cvN0cddVS+2Cfc3lhYskbi+S233GIteYnC57LZzqZ4KCTK2G+//azlpFWrVtYFT4h0csghh9gYO5S6qlWrmp122sm9kh8MLrhili9f3rVEx7smWnkSDDookiQ2mj9/vt3cwOI9Z84cU6VKFXdVfDBqYQzi/WzEoP989913dhPGg5jDvffe23z66afW4EU2UdxJ05GYKVEyrvgxGIVm6IGSJUuao48+2p2ZLQGWBHYygBHE6UHWHQTYp0+ffIGbWOTIvJMK7C7wt/EdRgNn58ADRRDlj0cPrIFkFyLjlQe7AiiOv/32m2sRQgghhMgsrJWOPfZYa50LZ6+99jLNmjWzG9k8TxQsDyR2+fjjj81bb73lWvNgjcZ6iQQcJ5988jaJNoRIB3gD7rbbbtZyRqmSSIQaZeLhuWtGy1CL4oWlkYPsoEuWLDEPPvigNUolCtY7dIP+/fvnuy9QAp955pkteg0bMRjDPvjgA3t/kmQGhTTUYp9pshLjR6accLw2FL1QGFRCC5EiLDR7/H5DYVAim0864LuUK1fOneWBUoh7KhZJD7RzsgrxQ3nwY+FjT+ZSIYQQQohMQ329E0880aagnzVrlvWMCoXXw1Pfx2PNmjU2vT2fSXILvKtCY5xI+sL67JhjjnEtQqQXPOswstCnscTh8hkJrGZAuFg86NeA63IksFxfccUVpmvXrjaxTNOmTa176Ndff+2uiM+ECROsy+mRRx7pWvLA0EV20VGjRrmWPJ2DzRUyiAIupaF6RabJ3l+KQiSFKXSgoZAjQtp///1dSx74oZcpU8adZQYCpbH60bEwA7MLEG72RbOnjo4QQgghRKYh1u6jjz6y1j42owmfIUeCl5cAKwkWk0Tc4Dw2btxomjRpYhfArLmwfOD2hrXC44knnoi6EBciHeAq6YWI4RaJ1XnEiBHu1a3Qv1GyFixYELfYOv0YiIlNBPo4a35yeSQK32PXXXd1Z/mhnTIpoSRjhU83Ba74xQMNHUXQSy+cTdglQCvHGogFkB9q7dq17lUhhBBCiOyBcnfVVVdZK4IHxapZr5AngfUS1oWLL77YvZoYWPl+/vlnU7lyZXvOwhuLH4tw3NjIikg4jMpyiUzBZgYxfZ7VjKQnKGvk04jk8snrxPnFC/t6/fXXraJIrpBEwPqGYYk4vERBV4nmfko7tcxDyaaFL5xCr/iRgAUBhWvLMHfuXPcsdSLVqiGwkwQv3g/E80jfgzhE0s4KIYQQQmQKYvDYgA6NVyLhCpY5LBQki7j88svzLSzxnIq0xgmFZC7hMVDUVUPZu/DCC222wkaNGrlX8oi0HhLCDyhHjzzyiE2w6EEfxsoczeWTxIoohgMGDHAt28JmBjF8WA/JVpsouG1+++237iw+p59+us0BQrKlcFAgeb2wkBXFjx8NN4JQPJeE8MGI9tA2Mm3id8uPFuoCunr1ausDnC7Cg5jJQsrnDxkyxLXkmaBRNtn5CoWOmYxLhRBCCCFEshCCgqIXngWQTJznnnuuVQBZgIaCayheS7E45ZRT7CIZq4sH70GZZC2EYhi6NsMCk4xFRIhosO7HGkf/De+nxMGRlZY1OkkdQ8ElmfX34sWLbXm1cDDKkHmffB1UDAjHyycSmlfEg79LmJdnaaTsQqgOEg6F4nG5Dv+OWBv5n8iy68H/G+lvZouMK35klOIHYcDghyURyrhx46wyhxslNTqoBYOWTBtJW6i1QdIUL2gTNwYsf23atLFphKmLwYG7Q7ogZpDdBmri8MOx00XWndCsPrhAzJ492yaVoT4H2Typn1OnTh0ldxFCCCFERmGxSyIJSlqxmMQSh2JHIhfWJmxWY6FjPfPJJ5/YjJ/hCSci0aFDBxvfh4soSiWb3yh9eD6R2p5wG2IA2fim5BYb4SyqhfALVr527dpZqzLlG3AtDt14APobFjvKqBHHinIVGvOHgkY/x/qMjjF9+nRbs5JSJmyGXHLJJTYxY6gFHNfQbt262fsGPYTvQIm2UIhxJYEMmT5R/tBHuPdi4SWDvP76660ew2eQLIZ7yXOR5n/EFZtNFiyW1PvLNiWCGmx0FTYK+JFzZBuURwYgEqykM40wsXsocgx4KKB0MLKLxgJXCzptMrVxMgW/BWbkwmRKLmpQzB8kw8xRUONGLqF73R/qe/5gXOSQ7DKLn/mH9ce0adOs9xNZNimb5S1usSawic1ilU1z6qElCtYTNuDxYiJraGgZLTbuWWSzZsLtM54VsbCh8TM7IF+vT2cT1u9YpymvRkJIwrOi1QFMBCyGKIm4QGONTDS+FV2F8C++Q0HExMbr51lx9UwXDDJo95msHVOxYsW4Sh+QfrUwKH1CCCGEKF6woDzrrLPMpZdeag4//PB8Fg02rym2jgUkGaUPyFKOlYTPDlX6gIQvfCalHoqa0idyH9bvLVu2tPGAZ555ZkpKH5AQhr7eokWLpBQ47g1qhBeE0pcIRUrxiwSmWlwbkj1Ca2ps2rRpmxhEIYQQQgghhMgVirzi17x5c9OjR4+kD3x6MUWT/QpzLD7EVNwXQgghhBBCiFyjyCt+qYD/K8GYFF7EH57AaCGEEEIIIYTINYq14ieEEEIIIYQQxQEpfkIIIYQQQgiR4/hS/H799Vf3TBQG+D3+/PNPdyb8gPwkw8yicSN1dK/7Q33PH/Q1yS7zaP7JDho/s4NkXLDE6+e+FL9y5cq5Z6IwwO9RpkwZdyb8gPwkw8yicSN1dK/7Q33PH/Q1yS7zaP7JDho/s4NkXLDE6+dy9RRCCCGEEEKIHEeKnxBCCCGEEELkOFL8hBBCCCGEECLHkeInhBBCCCGEKHasWbPGPSseSPETQgghhBBCZJXHH3/c9OjRw/Tq1csePXv2tI/Lly93V+RnxowZpmPHjqZDhw72uOqqq0y3bt3s0blzZ3P77bebTz/91F0dn1mzZpkGDRq4s+KBFD8hhBBCCCFEVrniiivMXXfdZZ599lkzatQo069fPzN48GBTsWJFd0V+Tj31VDN8+HDz+++/m5EjR5o+ffqYoUOH2uOBBx4w9evXN9dee625+uqrzaZNm9y7ovPMM8+Y+fPnmwULFriW3EeKnxBCCCGEECLr7LLLLqZSpUpm//33N3vssYdrjc52221nDj74YPu8fPny9hFKlSplateubaZMmWK+++47qwRu3rzZvbot//777xY3z3HjxtnH4oAUPyGEEEIIIUSRZ6eddjITJkwwixcvNo888ohr3Za3337btG/f3tSqVUuKnxBCCCGEEEIUNUqXLm0uvPBC079/f/Pnn3+61vy88847Nr6vTZs25ttvvzVz5sxxr+Q2UvyEEEIIIYoIxC+REGPAgAHm0UcftQdJMR577DF3RR6TJ08299xzjxkyZIh9fdGiRbadxBnEVjVp0sSMGTPGfPjhhzY+6rrrrrPubx60835iqnj9ueeec68IUfg58cQTzS+//GLmzZvnWrby999/mx122MFsv/32plWrVvaxuFj9pPgJIYQQQhQB1q9fb2bPnm1uvvlmq6iR1fDAAw80Dz/8sDniiCPcVcbcf//95oknnjC9e/e2SuL1119vGjVqZJYuXWr2228/+zoK4MyZM82SJUtMvXr1zMCBA+1zePrpp829995rrrnmGtOpUyerOBI3xWcJURTYZ5997CPJW8J59dVXzbnnnmufcx39n42N0I2PXEWKnxBCCCFEEWDdunU2bf3ee+9tz1etWmUuvfRS69J28skn2zaUu759+5pbb73VlChRwraRJfGcc86xVkLaSKJRtWpV895775mLL77YHHXUUfazDj30ULNy5UprVeQzd9xxR/t+QAkkC+Kbb77pWoQovHh9/6effrKPoVDGwbtfAHdPruN+yHWk+AkhhBBCFAFwTyOlPQQCAXP55ZebmjVrmptuusm2wcSJE63r2uGHH+5a8kC5C61xxsKYNrIkwl577WUfSYzB3znyyCPtuUfJkiVt1kTS7guRTf766y/3LHHYJAE2M0KhFATZPHFl/uCDD+yBFZz7oTi4e0rxE0IIIYQoAuCW5i1kBw0aZBevY8eO3aK8Ae6au+66q21/8skntxykzadOWiieshcKNc14fyRo//zzz92ZENlh2LBh7lniLFu2zD6Gb2CwMcKGx9dff73lWLt2rd1QeeGFFxKq/1eUkeInhBBCCFGE+Pjjj23x6scff3xLsWuSuUDlypXtI9bA8MOLa/IIVRg9UC43bNjgzvJDe4UKFdyZENnBs94lA3F8xO6FW/y4d3BbxsU59Ojatav59ddfbR3AXEaKnxBCCCFEEeGPP/6wMUlXXnmlOf/8812rMXPnzrWPFK4mXm/FihX2PBQSw8Tj9NNPt+8n+Us4uIryuhDZAgszClkyEIc6Y8aMbSyFq1ev3hIfG855551nypQpk/PunlL8hBBCCCGKCCReoUg1WTg9SOjyzTff2OfE4WHdIzlLKD/++KN1DfXYvHlzxNgprCStW7c2Dz30kGvJ4/XXX7exg2QTFSKd0A/pj+Gw+UC5BWLwQvH6baT3jB8/3nTo0MG8/PLLNv41lNtvv90ccsgh7iw/O++8s7WIYzn/7bffXGvuIcVPCCGEEKIIgPsasXtkJKR+H8ofJRZq1aplM3V6jBw50uy7777WfQ2FjRi/F1980XTp0sUupmknqcUbb7xh295++233zjy4HigD8corr9jyD0899ZS1orBAFiIdUHsSN0tqTLJ50bFjR9OtWzebubZp06amRo0aZvHixbYvA/0PpY6+CO3bt7fXc/D87LPPttY+snaeddZZ9hqgbMlJJ51kS5zg5kn9ylBwYeZv8z6SvGD969Wrl3s1tygRIC1UkpAimEMUDvgtcL2Q+4V/vBS+kmHm0LiROrrX/aG+5w/GRQ7JLrNkcv6hLhmWQOL+SpUq5VoTh/ezIN9///2LvMKn8TM7IN/iUBahsBKvn8viJ4QQQgiRg+CaWb16dV9KH/D+gw8+WFY+IXIEKX5CCCGEEEIIkeNI8RNCCCGEEEKIHEeKnxBCCCGEEELkOFL8hBBCCCGEECLHkeInhBBCCCGEEDmOFD8hhBBCCCGEyHF81fGjSOJll13mzkRBQwHMo446yhanFP6gkC1IhpmDfkqBVOEf3ev+UN/zB+PiZ599JtllGM0/2UHjZ3a46aabzOzZs92ZyDY33nijqVOnjjnnnHNcS358Wfx23HFH90wUBvg9/NboEXkgP8kws2jcSB3d6/5Q3/MHfU2yyzyaf7KDxs/s8M8//7hnoiDYaaedTOnSpd3Ztviy+FEVnkMUDuJV6Rfxee+99+yjZJg5NG6kju51f6jv+YNxkUOyyyyaf7KDxs/sgHy9Pi2yT7x+rhg/IYQQQgghhMhxpPgJIYQQQgghRI4jxU8IIYQQQog4rF+/3mzYsMGdFV58RHGJYkLGFT+yy5BZplGjRq4lMl988YVp1aqVqV+/vnn00Uddq8gkv/76q80mtnz5ctcikmXTpk3m008/NYsWLXItIt2on6aOZOgP5IXcfvvtN9ciEoUx8ZNPPlGihwyi+Sf7DBkyxK5rY/H444+bHj16mF69etmjZ8+e9jHa+Bt+Pc9D18GbN282Xbp02fI53bp1i/ib//333za+i+vuu+8+07dvX5uRd+LEie6K/PB/dOjQYcvB3+CzO3fubG6//Xbz8ssvm//++89dLXKFjCt+99xzjznttNPM3LlzXUtkDj30UDN69Gjz3XffmZ9++sm1ikxx5513mttuu81Oyq+++qpp166d3ckSifPaa6+Ztm3b2v761Vdf2Y2Lr7/+2r0q0oH6aepIhsmDfK644gozduxYU6JECTuP3XXXXe5VEQvGwJYtW5o5c+bYhSjln6ZMmeJeFelC80/B8Mwzz5hnn33W/Pvvv65lWxg7GC+4btSoUaZfv35m8ODBpmLFiu6K/IRe/+STT9ox+6qrrnKvGlOyZElz77332myNKHyM5zVr1nSv5rFkyRJzxhlnmMMPP9w88MADpnfv3uaOO+4wQ4cONW+99ZZV5rgfQ2FcQ0kcOXKkVS6HDRtmr3/44YdtybaXXnrJHH300Wbx4sXuHSIXyIqrZ/Xq1d2z2JB+dL/99nNnIlOMGTPGzJs3zw5Ep556qt0RorZN9+7d3RUiHky0yItBHYt2kyZNTJ8+fUzTpk3Nxo0b3VUiFdRPU0cy9Ae73scee6xdPJ144onm7rvvNh9++KF56qmn3BUiEligGAv79+9vNxhq165tRowYYbp27Wq+/PJLd5VIFc0/BcPnn39u9t57b7Nq1Srz7rvvutbI7LLLLqZSpUpm//33N3vssYdrjY53PcphmTJlXOtWaEMZa968+Taft2bNGnuvXXTRRaZFixauNQ/KV6DI4VXHJkw4NWrUsI/ly5e3j8BmV5UqVawlkr9F/yoK7q0iMbKi+NGJEiWZa4U/7r//ftOsWTN3lkebNm3sIhGXMBGfBx980DRo0CBfTSB2xnCLePvtt12LSAX109SRDJNn9erVdtc9kty470V0Jk+ebC0hWB08sFIQ6oECKNKD5p+C4cUXX7RjA3LH8pdt+Lvbbbftsp0Nqn322SeflTCcQYMGWYtisv2jYcOGdqNhxowZrkUUdbKi+InCA660CxYsMIcccohryaNChQq2uCkuASI+LHDCZQhVq1a1LjgiNdRPU0cy9AfusOy+77vvvq4lD+5tYtZ+/vln1yLC0biYHSTnguGPP/6wFjysrMTNFQbr6sKFC63l9+KLLzbbb7+9a92W4447zhx22GHm+uuvdy2JscMOO9jHv/76yz6Kok+BKn74puPXjE/xI488EjcO0A+Y49npwHcZ14hofwNTOYGu+EYTFMv1uRiUzsIFcFcIZ6+99rKJDERs1q5da77//vuIMqRNMkwd9dPUkQz9gdyi3dtkyvvoo49ciwgnluxwNfvzzz9di/CL5p+CYfbs2ebkk0+2z3GpJOFTYVCy2ahiXDrmmGNcS3RQ/nD9X7ZsmWuJz6xZs2y/qlevnmsRRZ0CU/xmzpxpzjvvPLtL4WURYoc6nXEAdHB2xq655hqbrejmm282Z511lpk+fbq7Io9vvvnGxnEQHE2g6w033GCqVatmbrrpJndF7oAbE3i7OKHQpux18ZEMM49knDqSoT+QWzSZgeQWHcku8+i+LhheeeUVc+6559rnjRs3NrvuuqsZN26cPS9IcMOE0Bi9aHjXJJIEiGQvJJT5+OOPbXbP3Xbbzb0iijoFoviRMe3SSy+1aWkJIPW44IILzO677+7OUgflEgse1jzAxYmsRwSshkLgOTEIBPN7PPbYY2bq1KnuLHfwrJjRXAJwZRCxkQwzj2ScOpKhP5BbLJcpyS06kl3m0X2dfYhbRe7EqwKP559/vlUGC1reySRd8Wr7Rcrq/P7779tsohwkZ7rlllvMnnvuaRXLk046yV0lcoECUfwILv3222+tEhYOuyjp4vLLL7cBqd4uBxnHyIxERiYPlEJSTdeqVcu15EEgOrscuQaxKxApFTFuON7AJqIjGWYeyTh1JEN/ILdoMgPJLTqSXebRfZ19CBkiuyVutN5BCTKULkoe+CUdcXMYNGDdunX2MRaeEYREMOHgKopXHAflIshkfOWVV5qdd97ZXSFyhQJR/ObPn28zEyVimk4FlDw6LYUp6ciTJk2ybhCYsD2IO4BQyyOw0xGt5kpRply5cvYRJTic33//Pa2Kd64iGWYeyTh1JEN/ILdoMgPJLTqSXebRfZ19Xn/9dZvUBRdJ7+CcNWwq2T3JJREKWTtD16fhUIcvPPM9ZXqAdXU8uIb+ceSRR7oWURwpEMWPQFHSDkfasUonpK7FfbRHjx7WdE0MHzdrKN7OBwHTxYGDDjrIPnpxAh78Fuw+EfwrYsPEy8ZAuAwBtw/JMHXUT1NHMvQHcot2b0NoSIDITyzZVa5c2Y6bIjU0/2QXMndiqCAfRfjRsmVLmx3Zs6QlS7iVDoWMXBesjyNB8fbwuthnn322ve/wXIvFihUrbB1C8mlEig8VxYcCUfzYoeBGWrx4sWvZSrQOnyz4MqPwEb8XWlMo9EYj1o8bhqLx3BDh0BZr96UowsBywAEHWFfbUMiwCtQGErGh75KYKFyGsHLlyoguzCI51E9TRzL0B0WwWUCHbwZyb5P0i5T5IjLILtq4SD0wkTqaf7ILWTMp3xAJsnuyRpwwYYJrSRzWl+G1VM8880xr1fMStoRDRuHwjSdceynQTk6KTz/91LVuy+DBg60XW79+/VyLKK5kRfHjxghVoKgl0qlTJzNgwADXkge7GXT4SC4MycKuNjcQ9ao8OGcy9wJbvZ0cyklw4/zyyy+2HVBAcQ0tWbKka8kd2rdvv41fOvGMTZo02cYiKiLTrl07OyGEblTQfwkAJ+OXSB3109SRDJMHt//69etHlBvZoUV0UPzYWFi6dKlryZv/iesn5EKkB80/2QF5UnKMNWskateubet9PvXUU64lP3hWRDIeLF++3HqgYXQIhfunefPmpk+fPq5lK8QZsunkxXiGwqYKCt1ll11mfvzxR9e6FdayuKQ+/fTT27zfizP0HkXuk3HF74477jADBw60yhyZPN977z3bPmTIEOv6QcmEadOm2Tp+1As5+OCDzciRI+0kkYr1D4WNzJyPPvqozez5xhtv2M+l0CU3MzeWZwls1qyZvbZFixb2xiBTE7sjKKe5CPUKUXpJYMPvQnmL559/3owZM8ZdIeJRp04duwjEokxcBSVByFJLUVcvBkOkhvpp6kiG/hg9erQZO3asTQ6G3IYPH24XTNzjIjqMfePHj7c1c7FIEVPvlVJSZsD0ofkn83DPo/CRBwLviPAa0MTLoWhhSPjss89M69atrQEBWE/iCooyziZIx44dt5QtQ7mrUaOG9XhDaQyHsblSpUpWAUTZY8zu27evtRDGWpPeeuutdt3K57PO5f6jriYF2/lfKMvgxQN6kLnzkksusWMbLqv0qTfffNO9KnKVEgEvv2sS0ME40gG7IQTK0tFJxsJNQoArPuzpyCbE5/OZmMNDE7ig/EXyc6YwatmyZYvU4Mlvcfrpp9sjGZD7nDlzDDGXDGyx0nDnOt6GRLIyxLefjQvAxYa+IyLjd9xQP92K7nV/+Ol7eI2w2Fu4cKFdAB5//PHuleID4yJHsrIj2yHllH7++WdrFcHlWERH80928Dt+FgTE5OHaCaeddprNKpoIjFtsWLHuZQ1NzCcGlWyCfL0+LbJPvH5eIDF+oWCZY/cDpQ+IoUAJTFcKWT7/kEMO2SZrZ7TgVq4rLjtmxDey20MNw+K8mE4FsnqxM8ehSTczqJ+mjmSYPMgJZY+yQMVR6UsF5m8UEaweUvoyh+af3AU3UKx3HIkqfcC4VbduXevm36ZNm6wrfaLwU+CKXyzwg8Yl1M+BiV0IIYQQQgghRCFX/MhARGZOP0fNmjXdpwghhBBCCCFE8aZQK35CCCGEEEIIIVJHip8QQgghhBBC5DhS/IQQQgghhBAix5HiJ4QQQgghhBA5jq86fieccMI21f9FwUHxVkpQJJPyV+Rn3bp19lEyzBz00wMPPNCdCT/oXveH+p4/GBd//fVXyS7DaP7JDho/swPF46mJLQqGG2+80dSpU8ecc845riU/BV7AXaROUSpKWljxW0BXJI7GjdTRve4P9T1/+C3gLpJD80920PiZHZCvCrgXHPH6uVw9hRBCCCGEECLHkeInhBBCCCGEEDmOFD8hhBBCCCGEyHGk+AkhhBBCCCFEjpNxxY/sMmSWadSokWuJzBdffGFatWpl6tevbx599FHXKjIJ2do++OADs3z5ctcikmXTpk3m008/NYsWLXItIt2on6aOZOgP5IXcfvvtN9ciEoUx8ZNPPjH//POPaxHpZurUqaZXr15bjp49e5oePXrY18gU2rlzZ9OhQwd7TJo0ybbHYuTIkVuu9z5nxowZpmPHjlvar7rqKtOtWzfTtWtXe83w4cNtFsdcZsSIEVa2npz5v4cOHWpfY3xAJsgGObGWjQX5FG+44YYt8hw2bJhtl5xFtsi44nfPPfeY0047zcydO9e1RObQQw81o0ePNt9995356aefXKvIFHfeeae57bbb7KT86quvmnbt2pn169e7V0UivPbaa6Zt27a2v3711Vd24+Lrr792r4p0oH6aOpJh8iCfK664wowdO9aUKFHCzmN33XWXe1XEgjGwZcuWZs6cOebvv/827du3N1OmTHGvinRSr149M3jwYHPppZeaBx54wKbQ5xEoWfDII4+YWrVqWeUEZSMWf/75pxk/frxV/pjXhgwZYttPPfVUq3T8/vvv9rU+ffpYpeehhx4y9957r9l///1t6vj+/fvb63MRFDHkXLlyZSvfqlWrWqUMTjrpJCtnNoHp8578ozFt2jQzffp088ILL5hBgwaZLl262HbJWWSLrLh6Vq9e3T2LTenSpc1+++3nzkSmGDNmjJk3b54dyBhs2GU66qijTPfu3d0VIh4oeshr1KhR1qLdpEkTO1A3bdrUbNy40V0lUkH9NHUkQ3+wqDv22GNN7969zYknnmjuvvtu8+GHH5qnnnrKXSEiweKXsZDFKRsMtWvXttYSrBZffvmlu0qkG/oqHHDAAXajIpQaNWpY5Zs5C6tSNF555RVz7rnn2ue8J5TtttvOHHzwwfZ5+fLl7SPstNNO9j2MM//73/+swpKrIFdPzih+oXjyQc7PPvus+euvv9wr28LGCGviihUrml133dW15iE5i2yQFcUvfCCKRTLXCn/cf//9plmzZu4sjzZt2thBBZcwEZ8HH3zQNGjQwJQqVcq1GHP00Ueb//77z7z99tuuRaSC+mnqSIbJs3r1avPkk09GlBv3vYjO5MmTzb///msOP/xw15K3aCXUAwVQFAzHHHOMnZ+eeOIJ17ItWPzCFZFEoV7YjjvuaDdCizOXXHKJtXJPmDDBteQHl/GyZcu6s+SRnEU6UHKXYgautAsWLDCHHHKIa8mjQoUKdkB56623XIuIBQuccBkCO4G4gIrUUD9NHcnQH7jD7rLLLmbfffd1LXlwbxOz9vPPP7sWEY7GxcIL1qjnnnvOKnjhLF68eBsrXzKwYb/99tvHtHQVB7DSnXfeeVEVbMYWz6rqB8lZpIMCVfyIjSJuAj9mfKTjxQEmA0H5xGjgeofP9ezZs82AAQPMHXfcYavar1mzxl2ZH9yiSEiDaxR+1fhh5xIsXGDvvfe2j6HstddeNhZAxGbt2rU2liKSDGmTDFNH/TR1JEN/ILdo9zaJGT766CPXIsKJJTuSXkRSOkR2uPjii83mzZut8hcOLqC4gvuFddOGDRtM69atXUvxBQWbOL5I8f4obIQ0+UVyFumgwBS/mTNn2p0RBiPiKcg+xQ51uuIAiBVE0ePme+yxx8yyZcvMddddZ/r27WtOOOEEc/zxx2+TifGll14yl112mQ2CJnMT8R2fffaZefHFF90VRR/cmGCHHXawj6HQpux18ZEMM49knDqSoT+QWzSZgeQWHcmu8EKyFzbCw61RKIMlS5Z0Z8nDGot1HBvtrJmKO2eddZb1FiBZYSgLFy7M5wKdLJKzSBcFoviRMY0sVChXVapUca3GXHDBBWb33Xd3Z6mBSZzPqlmzpjnssMNsljEPTO1kGiVTEzu4QCalTp062QQdDJAeZFRCSc0VvNTauAtE4o8//nDPRDQkw8wjGaeOZOgP5BZNZiC5RUeyK9xgjWI9s2TJEtdizBtvvBG33FYoZAnmwHvq5ptvNs8884yNGSbhiHI05I23l19+uVX8iPn3mDVrls2wmiiSs8gUBaL4kfyCeiRnnHGGa9mK3+DiaHCDlCtXzp1tBUWQAdAzx7/55pvW9TT8xvz4449tKvRcgdgVIAA/HNxwCMQXsZEMM49knDqSoT+QWzSZgeQWHcmucNOwYUNTqVKlfMlBVqxYkVQ2dWrKoYjgPYVi0q9fP3Pccce5VwW0a9fOhhuxrgQ2RIirTgbJWWSKAlH85s+fb9PWhqarzTakPQaSHwDxByiJ1EoJ5cADDzRlypRxZ0UfTwkm7XY4WD3TrXjnIpJh5pGMU0cy9AdyiyYzkNyiI9kVblh3UaNvzJgxVkEnURHJnkR6oSQDMZOeWy11LHEBFaIwUCCKH4HemMAj7QxmCy+5i7fTtc8++1i3z19++cWe5yoHHXSQffTifzz4LQg81o5SfFjc7LnnntvIEHBlkgxTR/00dSRDfyC3aPc2eLW8xLbEkh3Frxk3ReqgsK1bt86dJQeKH95Nr7/+uj3OPvts94oIZ+nSpVtc5pMFt1ryRpAMTgq2KEwUiOLHTgg7T6QQDifUJzpdRFIw58yZYychihkDMX98p88//9yeh5LObKMFzZFHHmmtnbjahsJEANSmE7Ghn5CYKFyGsHLlyoguzCI51E9TRzL0BwkwUFRYsIXCvV2tWrVtijeLrSC7aOMiboYiPVAYnyR1Hl7SnEgum2xoe7kMgD5cp04d8/jjj1ulJlIyHmHMjz/+aAutk/vBw6t9Gk3OoRBOhHsntVQp1i5EYSErih9Zozg8SLbCzUTWzVDIsvnVV19FdBVJBVIVU1TTgwmdQryUkfBiDkgC07VrV1teIvQGZveSoNxcwtuJCuXll182TZo02cbVVUQGH35q8oRuVNB/mUgbN27sWkQqqJ+mjmSYPCQcq1+/fkS5denSxZ2JSKD4sbGApcSDuZ+4fpKpifSA1xQxYB6UqyKpyJlnnulatkKmdNZVoTAuTJo0aZucBl59OO8xlFiv5SKUXSDU58ILL3QteXJG6aMYfjjhciZECOUPt9rw5DnIMJoci5ucRfbJuOJHRqKBAwdaZY5Mnu+9955tHzJkiHX9uOmmm2zNE+r4oWDhG03WIiaJdFn/cGl69NFHbfaqcePG2ZS4w4cPN23atHFX5DFo0CBr+aOdSZ56NxxXXXWVuyI3oE7hxo0bzYgRI+zvMn36dPP888/bAUokBjumLALZLCB+5ZtvvrFZaidOnLgltkqkhvpp6kiG/iAj39ixY+2mIXJjviBxCfe4iA5j3/jx40337t2t5Q9LFOMkSSpOOukkd5VIFTbN6ZerVq2yCepIADJs2DBr5ffAFfSSSy6xYwDyZ93jueG2aNHCKiVeeQE2LfnNvH7OmofyV0ASPEpuUdOY1yi9VRzuAzzCWJ8S/oMHwFtvvWWVZeQQaiVFGWTDg7mfTd9rrrnGvWKsgQN5eeUyJk+ebK6++mo7ruD+iQKOzKG4yllknxKBcPt0AlAAnSMdsBvIwEWmKXZI2CksVaqUvel23nlnd5V/GNyYjFj4MAlxA/O3YoFrKAt5dn6TzcRUEPBbnH766fZIBuSOyyu7h7h9xUrDnet4GxLJypBYUTYuABfPsmXL2udiW/yOG+qnW9G97g8/fY95ADd/6m/hpULt1+IG4yJHsrKjyDQLWRa3uCV6ydREZPzMPyh2U6dOtWsoNqyTycxZXPEzfrIWxCjBOrJevXpWKROxQb5enxbZJ14/L5AYv1DYCalRo8aWzJn4n6OYpUPpC4dFeTylD1gU4dtdFJS+VCAQnx1B3BCK82I6FchM27x5c3tI6csM6qepIxkmD3JC2aMmV3FU+lKB+ZuNMKxMUvoyA/WGmXdat24tpS+D4O7J2Ik1T0qfyAUKXPGLBXVQcAn1c+C6ALhD4OokhBBCCCGEEMWVQq34kQmJAGY/x2677WZ9qcnMRI0+4gz8pj8WQgghhBBCiKJMoVb8UgGl8eGHHzaffvqp+fjjj23gM64RQgghhBBCCFHcyFnFTwghhBBCCCFEHlL8hBBCCCGEECLH8aX4/frrr+6ZKAzwe/z555/uTPgB+UmGmUXjRuroXveH+p4/6GuSXebR/JMdNH5mB8m4YInXz33V8TvmmGOUur4QQY2u3Xff3dY+FP5Yu3atfZQMMwf9lLICwj+61/2hvucPxkUKWEt2mUXzT3bQ+JkdyKpPDU9RMPTs2dOW06EESSQKvIC7SB0/RUlFfvwWcBeJo3EjdXSv+0N9zx9+C7iL5ND8kx00fmYH5KsC7gVHvH6uGD8hhBBCCCGEyHGk+AkhhBBCCCFEjiPFTwghhBBCiCj4iIpKif/++889EyK9SPErxpD554MPPjDLly93LSJZNm3aZD799FMbzCwyg/pp6kiG/kBeyO23335zLSJRGBM/+eQT888//7gWkW40/2Se1157zVx55ZWmd+/e5pZbbrHHH3/8Yds8Zs2aZW677baEj7ffftu9Mz8zZ840nTp1MjfffLMZMGCAueaaa0yvXr22JP8RIh1I8Sum3HnnnXYAYlJ+9dVXTbt27cz69evdqyIRmBDatm1rfvrpJ/PVV1+ZVq1a2axhIn2on6aOZJg8yOeKK64wY8eONSVKlDD33HOPueuuu9yrIhaMgS1btjRz5swxf//9t2nfvr2ZMmWKe1WkC80/mWf8+PFm3Lhx5tFHHzX33Xefuf32202XLl3MJZdcYl544QV3lbHj6ltvvWXq1q1rFcKrr77a7LXXXjbJxg477GDf06FDB5tpEeVuwoQJ7p15YN1jfLn//vvtI2P2DTfcYAYNGmRatGhhszPOmDHDXS1EakjxK4aMGTPGzJs3zwwePNiceuqppmPHjuaoo44y3bt3d1eIeDDRIq9Ro0aZc845xzRp0sT06dPHNG3a1GzcuNFdJVJB/TR1JEN/dOvWzRx77LF2l//EE080d999t/nwww/NU0895a4QkcACxVjYv39/u8FQu3ZtM2LECNO1a1fz5ZdfuqtEqmj+yQ7XXnutVcK2335712LMPvvsY8eDUPCoeO6552wWxYoVK1ql75BDDrGvVatWzZQvX97st99+9n54/vnnzV9//WVf82BjDuUSJXOPPfZwrXnwHpTB+vXrm4ULF7pWIfwjxa8Ywq5Ss2bN3Fkebdq0sYtEBjARnwcffNA0aNDAlCpVyrUYc/TRR9udu2huHCI51E9TRzJMntWrV5snn3wyoty470V0Jk+ebP79919z+OGHuxZjdtppJ9OoUSOrAIr0oPkn8+DmzRGuiMGhhx5qTjnlFHdmzN57720Vu0SgBvYBBxzgzvKU+HvvvdceO++8s2vNT7169czZZ59tOnfunPVYQ5F7SPErZnz33XdmwYIFW3ajPCpUqGB23HFH664g4sMCJ1yGULVqVeuCI1JD/TR1JEN/4La1yy67mH333de15MG9TcyaChNHR+NidpCcM0+5cuXMdtttZ5599lnXkp/zzjvPPTMRlcNYUETeo2/fvtai2Lx5c9cSmcsuu8y8//775uWXX3YtQvgjo4rfmjVrrMsM5vLrrrvO7lJNmzbN9OjRw7bxOHfuXHstAawEstL2ww8/2HNuBN63cuVKM3ToUOva8OOPP9rrhT9YuAA7VOHgnkAiAxEbAq2///77iDKkTTJMHfXT1JEM/YHcot3b7LZ/9NFHrkWEE0t2X3zxhfnzzz9di/CL5p/swObP+eefb+PziO0Ld1UmCYsH69xkYH0LWMeJfz3iiCNsLGAsjjvuOPv4yiuv2Ech/JJRxQ+/ZnyhX3/9dTshEPBK8CtBrihymMqPOeYYey2B9C+++KK56KKLTOXKla1PM4MYGatwS+LmI9CenS7hH9yYINIgQ5uy18VHMsw8knHqSIb+QG7RZAaSW3Qku8yj+zp7DBs2zLp19uvXz1pYid8jeYu3qZYqJOYhQyhr5Xh41+AaKkQqZNzVs0yZMtYvmWxTXoAs/v8kGFi6dKk9h+rVq9tdkJNOOsme4+t82GGH2d0rYi0wudPhQ3dZRPJ4qbVDg5VDYRASsZEMM49knDqSoT+QWzSZgeQWHcku8+i+zh4kcmENSlKn1q1bW9k//vjj5uSTT7YGiVTZsGGDexYfL7ZPGZlFqmQlxo80w7hr4p8M7FjhE/3000/bcyCuItRnGkijjbkdpRD23HNPqwAK/yBPwMUgHNxwCMQXsZEMM49knDqSoT+QWzSZgeQWHcku8+i+zi7EQ1O+gVg/4ntRBPfff3+bqXbVqlXuKn947rrr1q2zj7EgdApQRoVIhaxoUXRuMlA988wz9nzSpElm5MiRNpaPVOPwzTffmAMPPNA+D4VYFJE+CFgG0m6H8/vvv5tdd93VnYloSIaZRzJOHcnQH8gtmsxAcouOZJd5dF9nB5QxEmSFgjGC8i7kqqAkw/Tp090r/thtt93MkUceaZNwkZE1FvPnz7ePlOURIhWyZj4jdo/6JZjKCU5mx4TAWax+DFbcAJGQhS+9HHTQQfbRixPwYPeQgcwLIBbRYeLF+hwuQ8DNRjJMHfXT1JEM/YHcot3bQH0/EZlYsiN2n3FTpIbmn+yAl9rUqVPdWX4qVapkTjjhBLNixQrX4h+SFvK7Udg9FuTKYJ1Mdk8hUiFrWtUFF1xgFxsUqWQCAJRBClZiAaQAqcg87C5RQ+bbb791LXkQZAxYZkVs2IzALTlchsBkccYZZ7gz4Rf109SRDP1BEWwWYmxQhsK9TTFmUuaLyCC7aONiw4YN3ZlIBc0/2SNWTUQS6ZD4JVXat29vrXgDBgxwLduCiynJDUl6GF5mRohkyZrix07Fueeea2699dYtSh4TwcaNG80777wT0W958+bNVlkU6YWB5qWXXnJneVAbht8FS6yIT7t27Wxcaqh7xqJFi6xFu3Hjxq5FpIL6aepIhslTpUoVU79+/YhyI7u0iA6KHxsLoYnbmMdZQJPNW6QHzT/Zgbi+CRMmuLOtLFmyxPz999+2sHo0PA8BL741GriPPvHEE2bx4sVm4MCBrnUreMRhJMF4QqJEIVIlq36UF198sd2NItMnlCxZ0iZ+iXTz9O7d24waNcrudLB4GT58uHtFpMqNN95oFe4RI0bYOAH81HHDHZOGLFXFhTp16thFIAHeDMzEqJKVduLEiVtiMERqqJ+mjmToj9GjR9sd9hkzZli5Mf+QVMOrvyUiw9g3fvx4676GRYrSAoyTN99885aM3SJ1NP9kB9anZE9F0cYzjfJijAs9e/a0j5Eyq9500022rl///v3tmIElj9+J90SL4yOBISUiPv/8c+vKyTi9bNkyW+KMNTPJZRizFfok0kGJgJcjNgmw2nH4gYmgbNmy7mxrMDK7HsIf/Bann366PZKBEhtz5swxXvKdWGm4c5333nvPPiYrQzJtEegNDNChfVvkx++4oX66Fd3r/vDT94iFnDt3rlm4cKEtLXT88ce7V4oPjIscycqONPXELLFxW7t2betyLKKj+Sc7JDN+sjalH1eoUMFaUlHKSMKCqzebGGT7zATLly83s2bNsmtlvDKofV3UMrUiX69Pi+wTr59nffsgfGDCBVRKX8FAID47SY0aNSrWi+lUoKhq8+bN7aFJNzOon6aOZJg8yAll7/LLLy+WSl8qUIcXRQQvHyl9mUPzT+ZgbYrSB8TzkdQJa9xpp52WMaUPKBLfsmVLWyj+zDPPVHkOkXZkNxZCCCGEEEKIHEeKnxBCCCGEEELkOFL8hBBCCCGEECLHkeInhBBCCCGEEDmOFD8hhBBCCCGEyHGk+AkhhBBCCCFEjuOrjh8F1UlrKwoHjz32mDnqqKNUIDcFPvjgA/soGWYO+mnHjh3dmfCD7nV/qO/5g3Hxs88+k+wyjOaf7KDxMztQxH727NnuTGSbG2+80dSpU8ecc845riU/vix+maxhIpKH36NUqVLuTPgB+UmGmUXjRuroXveH+p4/6GuSXebR/JMdNH5mBwrei4KD2o+lS5d2Z9viy+JHVXgOUTiIV6VfxOe9996zj5Jh5tC4kTq61/2hvucPxkUOyS6zaP7JDho/swPy9fq0yD7x+rli/IQQQgghhBAix5HiJ4QQQgghhBA5jhQ/IYQQQogiiI9onZT477//3LPiheQscoUCifF74YUXzNixY82aNWvM4MGDzfHHH+9eEX7w67f+66+/miVLlphKlSqZihUrutbiid8Yi02bNpkFCxaYnXfe2dSsWdO1ikj4HTfUT7eie90ffvve8uXLzbJly0yNGjVM2bJlXWvxIZUYv0WLFpm//vrLHHnkkWaHHXZwrSISfuYf7uf777/f7LHHHjZpyd9//22uuuoq89prr5n69eubI444wqxYscKMGDHCvSM+jA1XXnmlO9vKjz/+aO677z47z+29995m1apV5o8//jCdOnWyWTKLCn7GT+T54osvWjl7iWFuuOEG06tXLzNy5Eh7PmvWLPPWW2/Z54lQu3Ztc8YZZ7izrcycOdM89dRTZs8997TjzU8//WQVzr59+9q2ogLyVYxfwRGvnxeIxa958+bmrrvuMjNmzDDr1693rcnBgnv16tXuTCTLnXfeaW677TabfenVV1817dq18/1bFFeYENq2bWsH56+++sq0atXKfP311+5VkQ7UT1NHMkwe5HPFFVfYDcoSJUqYe+65x85ZIj6MgS1btjRz5syxygjln6ZMmeJeFengm2++sSW1UPxQyO644w7bRwcMGGBuv/32LdaihQsXmscff9wccsgh5vLLLzdXX321Of/88+3C8OOPPzadO3e2ymKzZs3MunXr7PvDeeWVV8yFF15oS3rwt6677jr7iDJy/fXXm+HDh7src4/x48ebcePGmUcffdT+z8i2S5cu5pJLLrEGDA/GVRS/unXrWsUZOe+1115Wzmx68J4OHTpYZQ/lbsKECe6defB7Mb7we/LImI1yOWjQINOiRQvTuHFju14WIi1g8UuW/v37u2f+CS5CsDQG3nvvPdeSHPPnzw88++yz7qx4w+8xdepUdxafJ598MhAcTNxZHoMHDw4EJ2h3VvxAfsnI8MsvvwxUq1YtEFzYuJZAYO7cuYFDDz00X5vYSrLjhvrptuhe90eyfS+oHAceeughd5ZH06ZNA2PGjHFnxQP6WjKy27hxY6BmzZqBzz//3LUEAhs2bAgceOCBgSVLlrgWEU6y889FF11k7+1wkH+lSpUC8+bNs+fPPPNM4LnnnrPPPTZv3mzXXp06dXItWznvvPPcszzeeeedQMmSJe16KxJr164N7L777oGgYuRaCjfJjp8VK1YMfP/99+5sK0GFOlCuXDl3FggEFb3A8uXL3Vkeb7/9tpVz+Dr1119/DVx66aXuLI9+/foFKleuHPjrr79cS37efffdQFCBDCxYsMC1FG6CCrB7JgqCeP28wGL82EVNhY8++sg9E8nCrhI7fKG0adPGBBc11iVMxOfBBx80DRo0yFcT6Oijj7Y7d8EB37WIVFA/TR3JMHnwJAkuqiPKjfteRGfy5Mnm33//NYcffrhryasp1ahRo6RcDkVsPvzww4iuf7h8Ygn0oC9HcimMxnHHHWd/P8CrCksVlm/cRiOB++Mtt9xiC0bnmgcWbt4c/I/hHHrooeaUU05xZ8a6v+63337uLDa4cB5wwAHuzFhvoXvvvdceuNJGol69eubss8+2Ftrgut21CuGPIpnchbiBIUOGuDORDN99952NScP1I5QKFSrYSSMZP/XiDAuccBlC1apVrQuoSA3109SRDP2B29Yuu+xi9t13X9eSB/f2J598Yn7++WfXIsLRuJgdUEZwQYxEw4YNrbINbLDvvvvu9nkiVKtWzfzyyy/2OS6iixcvti6isbj00kvtJlKuuUKXK1fObLfddubZZ591Lfk577zz3LO83yMZQn8TXGa33357GwIVCxT6999/37z88suuRQh/ZE3xY8LEP/qRRx4xw4YNizp5vvvuu9avmWu6d+9u5s6d617JY9KkSaZOnTpm/vz55oknnjDdunWzR+jnLV261Pqq8xn4SYf7U6eDL774wu504d+On3tRuRn5HYAdqnDwSf/ggw/cmYjG2rVrzffffx9RhrRJhqmjfpo6kqE/kFu0e5vddnmbRCeW7Jgz//zzT9ciUoEYs6efftoqA8RSbt682b2Sl1jDU75ZGyUDn1u+fHn7HCUejjnmGPsYDa6vXLmyjQXMJdj8IR4Sqydr1y+//NK9kgeJbTySlTOJYQDrKvGvWFTjJUDCGgu5JmeRfbKi+KGAEeSKEoapmhuGzEXhzJs3zw4211xzjb3Zbr75ZnPWWWeZ6dOnuyuMvREJSi5TpowNGh86dKg92MUGgslRxLp27Wo/g4Bn3HPuvvtu+3o6mDZtmg24JciZ/8UL/CcQuLDjuWNEGmRo++2339yZiIZkmHkk49SRDP2B3KLJDCS36Eh22YG1zUUXXWTXUSeffLK1OLE2Ck04kiq4IKL8eNbDWKD8kXDGcxPNFVi74tbZr18/q0x7WU+9TbVUITEc2VE9ZTsW3jX8LkKkQsYVPyxzKEjcQF48FGbtSO4DZDt64IEHbJkHQJnDPx2Xg0TB2jdx4kTrrgOY6nFFSFfmKXbWyILF4aX35v/p0aOHVW4LO2T2A75zJBiERGwkw8wjGaeOZOgP5BZNZiC5RUeyyw6sa7D4vfnmmzaDJGull156yW5IszZJBxs2bHDP4oMlnPh2Nt5ziX322cd6RqBgt27d2vZv1qMo28RJp0qyMgZlZBapknHFb9SoUda/H1eAUHbddVf3bCsog6Ss9XY2CC7GskfNmEQ57LDDbP0Q0t8CgxE7Vsl8RiywSlI/58QTT3QteVDLhnbiDwsz7OBBpJ053HAS2d0r7kiGmUcyTh3J0B/ILZrMQHKLjmSXXYjnY1MdK9C3335rzj33XPPYY4+Z119/3V3hH5RJlIyNGze6luiwWc9azRtzcgnioXGBJdaPkCIUwf333996laW6rvTcoimlEQ/PIIIyKkQqZMXi57lhxoOBg6xG1Duh7hTxfLiGhPqvJ8JBBx1krW/4UbMrQ/HRZD8jGih3gF89md+8g7gPHiO5uRQmCFgGlOpwfv/994gKuciPZJh5JOPUkQz9gdyiyQwkt+hIdtkhkqshmSLxdiKjajriwE499VT7+Pnnn9vHaJDYhTWWd32ugDJGgqxQSJbDpj/hPmzyh4Yh+WG33XYzRx55pE3C5dVejAZracg1OYvsk3HFjx0Nz+UoHuyoXHDBBdZtsn///rYgNjsrieCl0F+0aJE59thjzfHHH28GDx5sC2xjjUsXnuWS2EMslKEHLqWFXfFDKQYv/seDXVoGMi+AWESHxQ2ptMNlCLgySYapo36aOpKhP5BbtHsbmF9EZGLJjrkzUgkCkTzPPPOMe5Yf1h94O61YscK1+If8BXxevOL7b7zxhnVDTDbBSWFn5cqVZurUqe4sP5UqVTInnHBCWuRMEkPuD0KdYoEVF0UxtFyHEH7IuOJXt25dmxI4vPZI+O4Gr6PwYT4PrQEUagIPjfUrWbJkvs/kbwAKI0pfaGrcaJ/hBzJcsfDH5TMcduEi7XYWJthdYmcQt5BQCDIGatOJ2BBfQSrncBkCk0UydZNEZNRPU0cy9EfTpk3tQozsvaFwb5PuntAFERlkF21cxC1RpAfCWSK51ALKGglJUqVmzZo2Ud6jjz66xVU3HNZxbLATW3jOOee41twhVk3edMmZJIVY8chEHw1cTMeOHWuTCIaXmREiWTKu+JEBid2R0aNHu5Y8vPIHnqLEIEZgMP7UHpwz+XrBrKG+5gxKP/zwg33OTcEiB7g29DNg2bJl9vN5fyL+6rHAHZWB7o477sin5PGcshHhf7swwkBDIHgo/B5NmjRJ2MJa3GnXrp1NIBS6gYG1Geu2F18qUkP9NHUkw+SpUqWKqV+/fkS5kU1RRAfFj40Fkqx5EGbBApoQDpEeWPuQNC98A511CP20Y8eOrmVbPMt1NGUuFGrM4THFfBeeuIWNdwq38/uSWT0XwQstUjkwQn6QB4XVo5GonHEfpTQZxouBAwe61q3gJk0GV7zhyIovRKpkXPHDMvfOO+9Yn+iHHnrITgDU6fOCgCndwE4H1xGUzO4SmT1xHxg5cqRNDsNiuk+fPvksgZRQYAfkueees++pVavWlnYmHXaq+LsMSJ4rJoNhOmIMcB/FsnjxxRdbn/oXX3zR3H///fZ/KQowWKMAjxgxwk4U+Kk///zzaclSVVygliSLQCzUDMyksiamlP7gxVaJ1FA/TR3J0B9sVDK/kGwMuZEVmjnLq78lIsPYR1kj3New/BGj75VmOumkk9xVIlWw5JNwhPASL8cABfJbtmxpN6XDk+kB6ym8qgihoS+zxkIZp097uQvCIecC8YJksTzzzDNtua3ly5fbessoItwbs2bNytmEI8iKLLUovuSc+PTTT+240LNnT/sYKYPtTTfdZN1eWSMiZ9a3rBN4T7Q4vurVq1uPMeIpceVknMZgwdoSDyJ+a8ZsvI2ESJUSgXAfzAQgcYqf0gVY4+jMBx54oL1h2OHA558aNF5sHLtHKG5k/2Ln1QPlz7vGgzgVCmlz06A4hkI7OzLEHHg3Z6TPSBX+DmUdCnKxz29B0VaOZPj6669tkhriMHH7ipWGO9fBdQaSlSGZttjUAAZor8SH2Ba/44b66VZ0r/vDT9/DS2Tu3Llm4cKFNls0IQTFDcZFjmRlR5p6Ypbwxqldu7ZVVER0kp1/KCZ+8MEHW6sb9zYKCd5Ip5xyitl9993dVekFCxZzHW67ZF7HPXGvvfZyrxYNkhk/2dClH5OckLUjShlJWHD1ZhMjU95dKNYo02ya4JVBuFRRy4aLfL0+LbJPvH6eVcVPZIZkBjMRGb+Kn0gcjRupo3vdH+p7/vCr+Ink0PyTHTR+ZgfkK8Wv4IjXz4ul3fiFF14wQ4YMSfrA7VQIIYQQQgghihrFUvEj4ye+7ske+HkLIYQQQgghRFFDkaJCCCGEEEIIkeNI8RNCCCGEEEKIHEeKnxBCCCGEEELkOFL8hBBCCCGEECLH8VXOoUWLFrZ+mSgc/Prrr7bOS1Gr9VKYoOYjSIaZg36q4vapoXvdH+p7/mBc5JDsMovmn+yg8TM7/PTTTzlb1L8oQD+fNGlS1PqpvhQ/IYQQQgghhBBFB7l6CiGEEEIIIUSOI8VPCCGEEEIIIXIcKX5CCCGEEEIIkeNI8RNCCCGEEEKIHEeKnxBCCCGEEELkOFL8hBBCCCGEECLHkeInhBBCCCGEEDmOFD8hhBBCCCGEyHGk+AkhhBBCCCFEjiPFTwghhBBCCCFyHCl+QgghhBBCCJHjSPETQgghhBBCiJzGmP8DP6yXytQX2RQAAAAASUVORK5CYII=;" parent="1" vertex="1">
          <mxGeometry x="-900" y="40" width="894" height="413" as="geometry" />
        </mxCell>
        <mxCell id="NwhNxAAmWLPMmotNrUEd-3" value="" style="shape=image;verticalLabelPosition=bottom;labelBackgroundColor=default;verticalAlign=top;aspect=fixed;imageAspect=0;image=data:image/png,iVBORw0KGgoAAAANSUhEUgAAA1AAAAFFCAYAAADinwwwAAAAAXNSR0IArs4c6QAAAARnQU1BAACxjwv8YQUAAAAJcEhZcwAADsMAAA7DAcdvqGQAAKd/SURBVHhe7Z0FvBXF+4cHW1RM7G7FbjGwW+xGbP3Z3YXxtxUUu8XCwMBA7BYUA+zCFgPFQBQV9z/Pe2dg77LnnD33ngsX7vf5fC6cnbNnd3byfed9591WiccJIYQQQgghhKjIJOF/IYQQQgghhBAVkAIlhBBCCCGEEAWRAiWEEEIIIYQQBZECJYQQQgghhBAFkQIlhBBCCCGEEAWRAiWEEEIIIYQQBZECJYQQQgghhBAFkQIlhBBCCCGEEAWRAiWEEEIIIYQQBWmVeMLnknTp0sW9++674WhspphiCrfAAgu4du3aue22286ORW3566+/3E033eSefPJJ98knn7g//vjDzT///G755Zd3Rx11lJtjjjlc165d3eyzz+522WWX8CshhBBCCCFELSmkQH366adu+PDh7rTTTnO9e/d2M888s3vqqafsu//++88NGzbMPfzww65bt25unnnmcT169HAdOnSw70XjefDBB92RRx7pfv/9d3fMMceYkrrwwgu7P//8073wwgvuwgsvdDPNNJO7++673eWXX+4OPvjg8MvmR58+fdyoUaPcFltsEVKEEEIIIYSYcCjkwrfQQgu5ZZdd1oR0mHzyye2YPywg6623nrvkkktMuP/yyy/dtttu677++ms7VzQOynXrrbe2z6+99po7/vjjTXmCqaee2m200UbuoYcemmDKG8X7ww8/DEdCCCGEEEJMWNR0D9S6665r///888/ukUcesc+i4QwaNMiddNJJ9vnss882l708pppqKnfbbbeFo+YL1sr77rsvHAkhhBBCCDHhUVMFCstUBCWqMRTwLCzJP//8Ez41DAT95sChhx7qRo4c6eadd1630047hdR82IO2+uqrh6N8GlOmteDYY491n332WTiqzPjOrxBCCCGEEFlqqkB9/PHH9n+rVq3c+uuvb58vvvhit8gii1hwg2222cYNHDjQ7bjjjm6llVZyJ5xwQj0hGTe0Pffc02244Ya2z2eDDTYY/Zss7AuK57GfBle2yy67zO2www52vyOOOML2CBHYAgUE98P+/fu7k08+2W222WaWP1ziIuzbWnvttS0Aw/bbb2/uibvvvrv74IMPwhl1sLcLZaVt27bu0ksvde+995474IADzG2RQA577LGH++2339xPP/1kLo2dO3e287fccksL/lAUFNAXX3zRPi+55JJu0kkntc/lID/RChh55ZVXrHw233xzyyP5P/DAA92PP/4YznDunnvucYsttpibe+653QwzzGBumPD222+7JZZYYnT5PfDAA5YO2XIgyMi+++5rit6iiy7q9t9/fysHIA9Yz3BHhPPPP9+uy9/jjz9uaZG+fftavVOfm2yyidXD9ddfP7qdPP/8827xxRd3c801l5t11lmtnPbee2+35ppr2r0pdyGEEEIIIZoML5gWxis3SLGJV4ZCyhgGDBiQeEE78cpTcs4554TUJPnrr7+Su+66y37nBWO7hldsEi+QW5oXvO08L2Qn0003XbLVVlslI0eOtDQ47bTTkskmmyy57bbbQkqS3HTTTfZbr4CFlCTxQrSl3XfffYkX6JPjjz/e0r2AnXhlzb475JBDkvvvv9++59grW6PP4R6TTDJJ4pU4S/vqq6+SNm3aJLPMMkviFQpLA68UJF7Bst8fdNBBds0RI0bYd6eccoqle4XK8vPNN99Y+sMPP2zpq6++uh0XgfLkN/zts88+IbU6unfvbs/kFZaQUlcfXjmx8vfKn6X9/fffiVcmR9/v888/t/RRo0Yl3333XeKVKku/9957LR3S5XDooYfWK4cTTzzR0r0Cacf//fdf8u+//9p9SSc/HPPHd5Gzzz7bvj/33HNDSpK88MILiVceky5dutgxvyF/k08+eTLVVFMlRx99tB17Rdt+e8UVV9h5QgghhBBCNAUNUqBQNtZZZx3769ChQ7LyyiubcoDS8NZbb4Wzx/DOO+/Y7xB6n3/+eUu74IILkv33398E6H/++SdZcskl7ZzXX3/dvo8MHz48mWKKKUyIR5iHqBA99NBDdgw33nijpXXs2DGkjCEK+ptssokdf/LJJ8l2222XPPPMM3ZMHjbddNNkww03NKUhsvXWW9vvunbtGlLqQHEjfc4550z++OOPkJokd9xxh6Xz9/bbb4fUJBk8eLCloQigrBThxRdfHH2tww47LKQW59NPP02mnnpqKzeUjjRPPPGEXXe11VYLKXWKVbxfVKAiiy++uKWnFSiI5TDXXHPVK4cePXpYevv27UNKHZQ/6RdddFFIGQOKNO1j+umnr6dAA4o3yvWwYcNCSmKKbVpZf/TRR62eowIshBBCCCFEU9AgFz4vkDuvfNjfs88+61599VX38ssvuxtuuMFcrkoxySSTjN6nw36Ya665xtz93n//fXOFA1zJ0kwzzTQWGv2XX34ZHTo9urMRDjsSP/tnsv/z8AK9/U9UQa8MOK8A2jF58AK4uZORR/Ydffvtt84rivb9F198Yf9nWWGFFVzr1q3DUd37sIAw70sttZR9hphOHkeMGGGfK4E7YOTXX38Nn4pDEA9cGInYl3X/wwUO+vXrZ8/ZWIjEmFcO0YWvCI899pjtXSO/2feIcX1CuBNUIw11jeseeAXYXBFx7RNCCCGEEKKpqOkeqEqwjyYqJWnSYa2zwjPENBQtOOWUU0zpefrpp+0YUK5QfnipbClmm2228GlsCG5w2GGHmVK08847256o77//PnybzyyzzBI+1Yd9QY1lwQUXdPPNN599zu7DKsW11147ep9SLNNy5QmxTBtDqXKohsGDB9v/33zzjQXPSP/xDjL2bbGPLku5OhVCCCGEEKLWjFMFqlQgBCxMkb/++it8GkNMi+cRVIGACEOGDLGAEASaQHkiKES0KuVR6v7333+/W3rppS2AAZYpjglwkbWGjWtOP/10+//11183xaISd9xxhwXQgFhW5coT0mVfiqaKSkjAh1tuucU+x3dboRB179693t+VV15pfwSnyFKqToUQQgghhGgKxqkCVYpllllmtBUjaxHB+kBUOEKkR+UIJQeF5+677zbXOxSe22+/3axHDYF3Lf3xxx/uyCOPNMtPpLGh2BvLXnvtZS/RxWXy8MMPL6vIELEP6x7KJRCNDysdlqi0qyNEd0ki40XFBQWUP0i7QfLbWr2kN4a5j/kZOnToaIsZkffIP3mjzrM89NBDegGvEEIIIYQY7zQLBWrqqac29zME/nPOOaeeAE/IawTu0047bbQFYsYZZ3RnnHGG69ixo4XOxr2LsOXnnnvu6NDf1RBfUJsOgY3SFvceDRs2zP4fH9x4442uU6dOrlevXva82VDolBUvp8X98NZbb7UyhFVWWcWULhRDwoxHKMsLLrjAlBmuHZUmjuPeqK+++sr+B/apTTvttPa5seXAXiaIz0CYdBRhYM9Yly5dbB8UimwaLHB8p/1NQgghhBBivOMF8IrsvvvuiRdwLXz5NNNMk7Ru3Trxgq9FZxsyZEg4Kx9CVnvFx35HWHCukw4/nqZ///7Juuuua+fsuOOOFm2Pv969e4cz6vCKTTLbbLNZRLe8v80228wiuREZbokllkhmnXVWu79XlOw4G6mNMOVE3OMcIvF5hSw59thjkx9//DHxikgy5ZRTWoh2IsWttdZaFn2Pc8kD1wNCl3N90ol8R1RBIhJeeeWVVk6kU26k33zzzfabaiB6IVEPCd298MILJ5tvvrmFfCeS3sknn1wvCl4awr8vs8wy9hyUKWVLxEEiI2ah/DmXc7zyley2227JLbfcYvelXMm/V1jt3FLlwPfZcogRCX///XeLkkh5knei63ml1b6LEPKdOl9wwQUtzDyhzzt37jy6nRE5sV27dhaVj3tQtuuvv759J4QQQgghRFPTin+8cNzs4EWvRLOLFpII0fhw95p++undcccdZy9+BaxFBCLACkNEwJtuusleylsNWD9wKyPYhRfyQ2rzgsh6WMeIcIe7IWVUBNwAKbsiAR9woeNcgjbgVkddYNnCUshftk6qhUiEPEe5vOOuiAtlLQJUCCGEEEIIUSuarQJVit69e7utttrK9j2xPygLe6jYB4SLH25/QgghhBBCCFErmsUeqGpYY401bM/SFVdcMVaQB6wa3bp1M+sUUfqEEEIIIYQQopZMcBYo+OGHHyy4Ae9+ws2MUNa4qJFOoAKCSsRw3kIIIYQQQghRKyZIBUoIIYQQQgghxgcTnAufEEIIIYQQQowvpEAJIYQQQgghREGkQAkhhBBCCCFEQaRACSGEEEIIIURBpEAJIYQQQgghREGkQAkhhBBCCCFEQaRACSGEEEIIIURBpEAJIYQQQgghREGkQAkhhBBCCCFEQaRACSGEEEIIIURBpEAJIYQQQgghREGkQAkhhBBCCCFEQaRACSGEEEIIIURBpEAJIYQQQgghREGkQAkhhBBCCCFEQaRACSGEEEIIIURBpEAJIYQQQgghREGkQAkhhBBCCCFEQaRACSGEEEIIIURBpEAJIYQQQgghREGkQAkhhBBCCCFEQaRACSGEEEIIIURBpEAJIYQQQgghREGkQAkhhBBCCCFEQaRACSGEEEIIIURBpEAJIYQQQgghREGkQAkhhBBCCCFEQaRACSGEEEIIIURBpEAJIUQL59dffw2fhBBCiImbf//91w0fPjwcNQwpUEKkeOKJJ9ygQYPCkRATN//884879NBDXf/+/d3+++/vHnjggfBNbUmSxN1yyy3up59+CilCCCHEuOeee+5x11xzjXvmmWfcxhtv7P7777/wTXVIgRIicMUVV7gtttjCvf766yFFiImbP//8000++eRuo402cnPMMYd77733wje1AyWtc+fO7ogjjnDffPNNSBVCCCHGPXhcrLjiiq5Dhw7ugw8+sHmwIbRKWBps4VAErVq1CkeiJXLqqafaKvwll1zillpqqZAqRMtgwIABrl+/fu7ggw+u6ViIi8ROO+3k5p9/fnfGGWe4WWaZJXwjJnRGjhxpyvG0004bUoQQYsKBOalTp05uoYUWCinV0SItUJjrrrzySlt13XXXXd2JJ55oBfnkk0/a9zfccIN75ZVX7HNLA0Fq++23d+uss4676667QuoYMHe+8MIL4agYX3/9tdt5553d+uuv784///yQWgyUW+pm2LBhIaVh9OrVy22zzTZurbXWsmdM884777hVV13VPf7441KexGjKtRno0qVL1e15XII1accdd3TrrbeeuSuU44svvnCHHHJIg5Sns846yyy3q622WkgZAy4SF1xwgVl3m6vyVKsxJo/ffvvN7bbbbm7DDTd0xx9/fEitD4rrHXfcEY6q55dffrF5jHucdNJJIbVpufHGG93tt9/uHnvsMbf55puH1HHHcccd5zbbbDO36aabhhSRhXn8kUceCUfVw4JilAXuvffekFobjj76aLfffvvZH4uWWT799FMbj4488kizXLOww56VpqIhck1zp7k+0/fff29z0uDBg0NKw2jsuPfXX3+5lVZaqcHKk4EFqiXx5ZdfJuuuu25y6KGHJkOHDg2pddxzzz2Jn+yTGWaYIXnxxRdD6vjnq6++Cp/GDb/++mvStm3b5PLLLw8pYzj77LOT2Wabreo8+caarLzyyokfFENKMainNdZYw/5+//33kNowvECJtTV59tlnQ8oYPvnkk8QPOIkfcEKKKMLIkSOTH374IRxNfJRrM08//bSNFV64CCnNjz/++CNZYIEFEq/shZQx0J86deqUXHXVVcl///0XUhsG1yg1nXghO/HCbvL111+HlOZFLceYPP7555/EKxmJF0ZDyhgGDhyYLLbYYslSSy2V3H///SG1erjHRhttlOy8884hpWnp1q1bMmjQoOTbb79N5p133sQLt+GbcceZZ56ZzD777OFo4qYhMsAVV1yRzDjjjMn7778fUqpn2LBhyUwzzZRcffXVIaV2eEE6mX/++W3cePjhh0PqGH788cdkyy23TI4//vgm6ZdpKsk1zHFzzz23tfsJhYbKak0J49Taa69t88Gff/4ZUitDW/n777/D0RgaMu6l56PGznstygLlO6Fbc801Xfv27d1ll13mZp555vBNHay2eIHINNvmhBdOwqdxQ5s2bdyss84ajupz8sknW9mxp8E36JBamSmnnNL5iTYcFYNV4QUXXNB5ZdZWudnkjttINbDKwEoafz///LOlsTKf3uvx4IMPuq222sqtsMIKturlB8nwjajEhx9+6LwiEY4mPhZZZJHwaWzWXXdds1T/3//9n/lRNyfeeOMNa/Nvv/22m2666cwKzHHEC1W2Csh45wV3t8cee1TtB+6FitF9C1cu4DP3Aiz9Xsh1p512mmvXrp1Z/JtbW6nFGFOJySabzFwYs3z88cdWNng+YIWiHqIXRLVwD68oh6Om5/DDD3dLL720zQUvv/yym3TSScM3445yfXNioyEywEEHHeTuvPNOt9deezU42hjjQ9u2bcNRbZlmmmlsvsUKcMABB4wVCRSLNe6/u+++e5O7iVaSa+hfXhkx2WhCoaGyWlOCFZ76fuihh9xUU00VUiuDN1SU39JUM+7lzUd4SDSGFqVA4aoH7Hcpxb777muF21zAzJnXcJqacq48uAXhltO3b9+QUoxq3IMQLnD5w3wPCKsXXnhh1Q0ewe7zzz+3P9yU4LvvvnNDhgyxzwi+uO68+eab7pxzzrH/EXaeffZZ+16U57XXXgufJk4qtdnFF1/chN4+ffqElObBV199NbrdoxCwKMTnJElsUeHRRx+1PHfv3t36Mf0sz2W3HCxIxXvglgF8jq5wXH+NNdYwpYrxgraC4kbemgO1GmOKkNeOUL7vvvtuN/fcc5swSZRClM+Guio1xP2yMfz444/mRjfXXHOFlHFLrZ6XvnHddde5P/74I6SMDX2Gc3jmcQ19tqGBjXDjuummm9zDDz8cUqqnKdsVAjDuoCzGHHPMMSF1DAjZ1QjajaGcXDPjjDOaGzfK6IREQ2W1pgD5iy0SF198sZtkkupUj3JyRtH22STzkdmhWgCYsX1BJ0cffXRIKc2xxx7bbFz49tlnn+R///tfOBp34FKS58LXGHBhqdaFr5bgZkKTz3PHEtWDe9gyyyyT9OzZM6RMfEwMbWbNNdfMdeGrJV6JLOnCJxIb9/Jc+GoJ88S4cuFrDjDu1MKFr0ePHtZ2vYIUUsbGK9V2zumnnx5Sxh233nprsvjii4ejcQ/3bgoXvuHDh492iTvjjDOsfB9//HE7juAejXu9aLl88MEHyTTTTJN89913IaU+43PcazFR+FhZZOPpfffdZxvDy4F7FyuC8803nx1j/mSltnXr1rYaxAormx+jmxuaLJukhw4dahE9CJgAbIBkRRH3tdtuu83SONcrJnbuUUcd5WaaaSZzs8Eqwn0wcRJWmDQsZb1793ZLLrmkrY4CJm3cECOYQt9991039dRTu88++8xM4UsssYR9x/2//PJLM3GyaZONoKy6egXRzTPPPHZOKXDP8A3TNm9G2NiJmwn3YjVhlVVWMbfHouywww7OT3hmUh44cKCtQrDyRFlm3Snh1VdfNZcf3AhYAZxzzjltRaUorNqx0o4rAOZb6p3VUqxLhK+MsALJRlbKhNUI7kfZsbJRqr5wNyBPhx12mFm5eK8A9UdACtwSFltssXD1ylAvWL64Nu4SlA9uhHFlnHaAqxwrpHFTMM/AyiL5wp0Gc3SEMnvrrbes3fE7Vs2WX3758G3xNlgO3hd09tlnWxlz70UXXdTSTznlFHN1KNL2uB8BW7g/9UM50t7ivdmkzvOy6ot1BDcn8syq0bLLLju6n6WhffI916Ms+cNSgpvmtddeWzGQQaU2Q72zUko+sD6de+659juCNDz33HOWTr65b0PKmX7BGIXLCu2Le9Km+KOv4XZXDq7Nii5ue6zuEtiBNrrBBhs4L/yFs+rcGXDv4BzaFVZuNuJOP/304YzykEfaFv2WfowVhQ392emEsRQ3IsqQ8YOAHB07drTvStXvt99+a+6+bBBmTHvqqafMvZAxh75QNI9c66KLLrIxh/JmTMdFL5Y57YI+RP4J9kB/p57oN5Fq+14peNcWdcM4kabc+M29sZAz71x//fVmraJN8J66Pffcs16fhgMPPNDGsq5du9p16U/0OTwvSrlkZ8H6FTf145bHMe6dlCH1Rd/guS+99FJr/4Slp12Rxuou/TtSpHwrwbhBn2FMpg1gUSH8MNBmGCOxelI2WFo5N1s2eXXI+/68YmL5Zp6jn+LCSTAh2gpBpugb9BPm+3322ccCxtCPmIeq7dcNGZcosxNOOMHdfPPNVmbIFoCrOWM6ZY87Ev2HsYH6wJ0SmYO8YnWivfE9LoC4qsbxi7S1117brsl5tKtSbYX2SDmvvPLKNq/w3EXniXJQH7Rr+hBtFdcu8sdYF132COSz3HLLjbXRv+g4WUSGqCTXUG9YLCizvffe22277bbhm3yKzH2V5uhKUAflxjZg3EW+mmKKKWxcoO/QdqAh7aAU5caMSKW5vhTnnXeeyda0acqI52Ruw1soUs24V24+ahAoUM0R35BtY7J/WNuo3lj23XdfW+HwA0xIKQarJO3bt7cVqIgfuGxV11eGHY8aNco2pPmKTXyjtjQYMWJE4ht1svDCC4eUMef6Dm2WLl/h4Zsk8QKIpaXZYostSlqgfKdOtt5669Eb4bguGx3jig3357cEzfAN0e7NplI2l1Yia4Fiw58XJkdv/ONavvElviHbcRH8oJT4wbDeKpMfPGwTdSzLiFc4Ez9Q1at7PykkXhgMR+Uh75SdHxDsGEsCZUAbSFsT2Jzohf/ED7QhJTErpe+U9rlSffnBMvEDw+hy4XvKOB6Xg3pj5cQP6KM3SFIefsJM5phjDjsGnsFPVomfLEJK3fP4QSLxA5aVVcQrYomf7MJRYqs2fhBJvHAfUqpvg+UgT3kWqEptjw3oXrivt8H1+eeftw2m/Bb8QJj06dPH6swP0FY2QHmQdy8M2XGE1Uw263Mv8MJNsttuu9lnrlOpToq2GT/5WD45N0L9xZVsyhaqLWevcNmmajZuQ+/eve2Ya/vJNhk8eLCllwKruRdCEi9QhpQk8UKG1X/aAkW7I+9+wgkpde126aWXtmcuB7/1ik296/nJK9lhhx3s2dNQZl74su+Ba3sBdXR7qVS/lGe6bdMvKbci+MnRgmd4hTik1LUBrhFhbI73hJNPPtk2JKeppu+VI88CVWn8pr2SJ8ZHyod2B/3790+84JX89NNPdhyhv3lhwKwF8ZqMmQTvKQLtjHbdvXv3kFIXdCmWOfXFZn/qa8CAAZbGfcjHsssua3NsmiLlWw6vPNjYGNsk/xNUANkAogXKKyBly4b+xLXSdcizIgvwLNRLfB6v1CSrr7568tJLL9kxUAbt2rVLzj33XDuutl83dlxCpsizQMWy90KxlTX9hXGCZ/JKuZWXF9Tt2CsW4Vd1/dUrGMkuu+ySeEW4Ylvh3sy7XnkOKdXPE3mkLVBAHXilNTnooINCSr4Fqug4WUSGoOwryTWUz5AhQxKv5Bbyyqk09xWZo8tRZGxDfkk/A2VAX0rP1dW2gzwqjRlQZK4vB+2CNkw55VF03Ks0HzWEZqlA9evXzwY7Co0/BohKg0wliDbFteJAWRQGCTpYFoQPojbFCoNFFlmkngIFnJdWoCJMilR6GtwDmIjSlFKgGFSmmGIKGzDSMJCmz6dht27dOvnoo4/seOjQoaMH8nJkFSgGYMqPAS3CxEUEpqIwUSFoZUEYS5clkZ3atGljEarSMIEziPXt2zek5MPvpppqqtETbYRBkGdIC8N77723CTFpuD8DeRSEoVR9cV5aYCVaD/coEs2PAZVJOHboCAMf10hz++231xMAItNPP309IY4647c//vhjSElM4O3cuXM4GkPRNliOUgoUlGp71DMDF4N2lq222io58cQTw9GYOkOATNOhQ4fk8MMPD0d1oHRef/314SgxIQi33VIDb5pq2gzst99+9RQoYGLk3HS7gaLljDLNOBWhrMjTXXfdFVJKgzDCpEo7ycL90woPgtZMM81Ub+wCFhIqTSZXXnmlnZf9LQtd6TZLX+W+aQEJ7rjjjnrCYLn65ffpseruu++2/pa9dx5M4AcccEA4qoNxnLkkwliSdimmnZKXrKJatO+VI6tAFR2/KdfJJ5/c5sQIwhBp92ei9vE76jU9V0bXsyhslgOhg7pJlzl9dJJJJhk9RrF4yPWy8yj9NqtAFS3fPF555ZWxxmD6KL9HYAbaKv27SNlQjnl1iGtQus0jhCJoZrnwwgutTaYp2q8bMy5BKQUqst1221mfjPXGHBRhHqDM0goU0DcQ2ou0Fe5N1LI01c4TeWQVKGDsp2zieJunQBUZJ4vKENXINSjRRRQoKCd3VTNH51FpbGNhsW3btvasaZifUOTS7a6adpBHpTGjmrm+FEUUqErjXtH5qFqaZRAJTOm+c4WjuohSjXlPBvCWfcD0WQ2YHaM5OA3vRvADofMdJKTUmS+z4LaQB+l+AApHdfjG7bxGHo7Kg8mZ+7EpLw3XpLwi3AezZ4xYFF1uqoXAGn5Qs/e9gO8YtrkTE3E15Lnf4J5IWfqB0o4xeWPaXWaZZew44idUcxPBLaQcfI/5PBv1D9NvGt/+zfUDk30a2gp1gatMpFR98RddPQETNRSpR9wX2ISdLZNoZk+T17Yg274wnRNRzE8Sdvz333+bm0NePTW2DVaiVNvDzYKNnKX6Vbp+4/NVyid16QfJei4BtE/SvVAVUkpTtM1EmqKvU1fp/FNWHP/1118hpTQEssAFDBejLNlnwPUJd5lsfrNjRx64GxF4Ifvb7D28YmCuKdm+xT1Ij89ern7p/+mxir7177//Wj2XgzG+T58+Y72XiiAAuERHeO8b7l0RXF0g21eK9r1qqGb8ZqxNu/eQT/pVXj9lnKbdRyhHKNKnvWJtLmzpMvfCibkYxjGqmrIoWr55eMXU3Gz4i9AeGDsYMyPktUjZlKqrbDrur2kX+cjaa69tLrq03Qi/rdSvGzsuFSHmI9Yb7oGRcs/tBcrCbSW6TUbyxq9a4BUzyxcuk6WuX2ScLCpDVCPXlCrLPDi3lNxVzRydpcjYhsxKe+VZ0+AKyfPhfh+pth1kqTRmVDPXN4ZK417R+ahaxjx1M8JrjeHTGH766afwqWHEPUT4QFYCYR4fyiFDhtjegDwhKqbh+9xQ8pQJBtYiUOnkgYmG6E3xj06LX3Sa9IDaGBZeeGF7eSg+vnQc9gsh0DSWmD86W/w/r8yB9EpljuLDPpxKsNcCRR0f+nQZ8seeOfaBpcmrr7w0qFSPDGQ8Z95L3LIDXzUwEOPLzb4yQjQzWOLvXKqeGtMGi5DX9mI9l+pX33333VgLHZXyyUSw/fbb28QUoR8zkWSVojyKtpmGUqSc8c0nMtuoUaPsmHaOj/ymBV4WSv6ZxOKkXA7GDoSNbJvnhajkoRS0WSbGIuUUBU32NaXvwb4w/k8LQFDLvhXH+PTCBiDEpAVyBAf2iCCs4Wc/cOBAS6/FmFaJasZv+nNUPtLklUNDy4w2R56yZcZ9F1988XBUHY0pX+owmxdAUEorcdWUTSWY75E98salGL46Kz809bhUlIbM8dW0lUrPWSsY71BiWQxiP20eRcbJamSIppZrslQ7R6cpMrZVKz815ZjRkLm+IVR6hmrno6I0SwWKAScNFRJXCBoKbytG20yvQJaClSYGN1Y8Kdg/c96PEtMqCRMIHbUkvickDr6sZmT/sm+GT68ONBQ2UmIZYeWazXps1M2uvjWUX36pe+8WGzyBzYd5ZQ6kVyrzWWedteIqNXAeAy8rM3nlyMb4poI6YdBj4GwM2fbVs2dPC3zAxlxW85hsKgUMqSXZ99jktb24ubRUv6JOSg2I5WAjMatQBENggy1KBSuRRSjaZsrR2L7OqiJ/1B19jGdgs3sR4Yj8c/8oVJSDsYM6yGvz2ZXmNLHNFimnOD5tsskmY92D97o0dMIqQmxf5RbdWDhhUQ1BDasaG5qxrFVDY+q7mvF7XIBSQjtr6EJltiwaW77UYWMXTYuQFhJZtaYc8lajCXgADVlkacy4lEd2jIVazPHNhdVXX93GwEsvvdSUzSxFxsmiMkRTyjWl6qQxc3SRsa3oszeWImNGzG9efkhryFyPgpv2/CpCU81HzbLXEfHl/PPPNwsAKzVEzomRiRoKq/qYNlkJeqbMez4wp3IuFcsfnZkIaVlws2BVKu0+wCCZ1dqJlNMYyEv6mvGFnZhEMfliRcnC6kytoaMzyGy33XYhxdV7PxVlW4S8VQ1WVRDM4sCFaZdnyys7yp3vy8GERTll75Wd5Ok0RGHBvJuFQaHaTlot5JMVkCxRoUyT17aI4kSkpgjfMygTBTDtGtSQeipKqfZZDoR0Vp9K9StcLBoyoOEqQGQ5IvQQYQi3hiLKBxRtM5Gm6OtEOCNy0OWXX26roayModwXAbcjJuy88s8+A2NHXpuHSmMH5YTQkSV7D8bFGWaYIfc+RDpknG0qWFFmMSbPUk0aK72sNFNWzDPRopHuJ6xUxtXeIn2vWsb1+F0E6javzHhOIlYBZQGV2n415ZsHeeGeecpM3rhRCfpGNs8sXkXFCHg2BPO8MkDpQcFqiHDdmHEJGjLGTgjwTNk6iRDhFZdqyi1LkXGyqAxRK7mmKDxvY+boImMbz5bXR4gwiFxD36oVlcaMWsz1tH+IbYV6TZdXEZpqPmqWChRmb0KOM2hhDcrz628IVCauBKwy5FUoQgBhiQkjHenevbuFRkx3RAqb/SusfGCOjeCORfjKCCu1hBXNqxwaena1OC8NxTF9TVaagYaH9swAkAbtnNCdEa7ZEP9OfsdfhIkm6yrx9ddfW37x5S7qz82kmZ60WIVgkKSc4+TMyiXh2hkg0zz22GM2GTMJlWPfffc16xHhX9NE62O6PrgvbiZx/1WEsK/pSa5UfaXLCOJxEUvAeeedN7qNRxgk2KOShbZFuaVXewg7yuAUn4d74pqVrieO+U0s83Q9lXqmInmPpNsnL1NN+5xzrby2x8IDLpJXX311PWsG7YkX/rHyGClVnnn55LnZc0E7IUwsfY8wrUWops1Atq9DrMfsuUXLmRc4ExoYAYFVZhZ7ouBaCVyb8D1nTEqDsoM7cjpPRx99tAmUhKVOgytJpbqnzbJnICvEMUZCrE/GRVZ0EYTS9+Yzq++xjZar3/hdpNS5WXg2+jWhqNPu4IzvPCMTMv0hO3EPGDDAVmf5jt/hZgNF+l4lss9Tzfid97x56aXSoFKZAcoO8+ILL7wQUurApSq6hvLMzEHpto97DK446bKopnzzwO2PsYWXbqahX/B7qKZsEDyZa9LjDc/J86S9AGg3hMdOjxv8hrGKvOBiGSlaB40Zl4ByQNGO140yQIR7lprj+Q6y+yhL5R2KPFNeGgvTKAV5AnUetJtSi5QxdH/eAlaRcbKoDEFbKirX8MzZciwF5+bVCdetZo7OUmRso2y4T/blucg0vBoCo0SkVN1CNj2PSmNGNXN9KXhFCs8Vxxx+mzZcFHmGovNRtUzaBefPFgRKFAoZAzTmYaxMaMsMbAhPrAxEVzJgwEfLxh8XtwQEbd4JsMsuu5gilob3NbF6wKCMtk8HZ8UKky2+oJgRmWjwe2UFjnNwceA9IjR63nlA42CfAf6sCHRY4RgE6CD8BotYFOxxa0SL53d0LJ6Hxoy7BMdck8bBpEy+8fFmtaUcXI/BnnsNHjzY9gfh/ohgzIBGGgMQVkHKgI6PkMkgX2l1js2PKLAEBOE58YmnA/KOFN4RlaZjx44mqNHJaOS8L4NNySgXrCSUg2fneriOcB/ql8GFuuT3lBGDW/v27a2T836Ek08+2eqX1Q3KE1Mv781g0i9XX0xslAnXpuwIgEKZUd+skuRtSI7wHNQhrh0MolieUOaoIzaZp7smkyYDLGXAJE7ZcE/KhwmEfFNP5JmJnsEKwYAJhvpklY588cxM3tW0wXKwSRahGgsieeHdTLSPSm2Pzwxa5JW2jVBBO2diiKuJvK+BwTea7CkjXAIoL94NxATMxMkzIYwxWPNeFsqD8qP+WRBhYmdCLdduqmkzgMJC/2YSo14QqHkmlBKsigiP1EE15Uwd036oM/oXkxBjDdfkfqzIloN2zAob7izcn/5G++S+tBfKkPbGd9QTZY2CRblyLu2Kdl8OypBzzjzzTFP2qVvqGT94rsFqO+ew/4V6ZKzimbgn96IfM8Zyr0r1S5nRt7AKMAGzco+/POXLYgtjTin4jraJoBQnX+qIcZ97U55ch3pgvKbNUL78jnGO6zMGQZG+V8o9DUsVbZK2Qv+jvTL501Yrjd+U263hXUW0dVxdKBPGBRai+KN+cUE69thjrfwpS+qb8ZqxBGGLOYdVVig3RnN9npl3DzF2MX7wjIxhse2xuMk8xnjC2El+o/BKf0FZx6pPXyhavnnw/Lg2MSejUCIIIaSRTjsvWjZY+oDAQHE8pH2y2EG/Y5ygf7JASt/kPOZ7xkzGANo3ixLM9bwrByrNCdl+3ZhxCSg3+jXtjvaEckH/Is/0FZ6JfkI9IM8wBwDjFlYv2gRlRD7oX0XbSrXjF/dA1mEcJa0cBx10kM0bXJvyREiOgb4iKErUL4sN6TIqOk4WkSGKyDW0vSgT0YeRE8hTKcrNfbTfInN03v6/SKWxjbEW5ZEy4Xo8C22Oc7t162bPiawxrsaMInN9OXgexhDetUgb5nkp/2qfodJ81CD8JNhi8YOShaH1HWqs8MV5EHay0nm+syW+IkeHr/SN18JwekGrUPjdPLimr2x7R0UeXtu2+3kBJKQ0Hb5D2puhuWfED07hU3F8R6v3XoBScB8/MBd6X0AefrCz/JJHytEP+BYOMy/P1G+RPDUFvI+KP/CDIbZq+5yFcnv77bdHv/eEZ/MTab269wOzpVNXaRpST0XwwqW9x4v7NgTyST9pDH7is3fEZJ/RD7IWGpr3sBSlmjZDOvXBs1MH9FMvUNfrH0Xwk4K9t4K6TMN1/QRv4WeL1h+/SY8XjD+067w+RN3xTqOGjE20Vy942G9pj4xBXuCpF9I2Qh0zBo4Pyt2bPv/OO+9YOURKlXORvtcQxuX4XRTqsdxYGNu6V1LsmPbL3Jido6op31LQbhvaRrMwzlCHXjmyY+qQZ8gr+yLzfSVqOS7Rjr0wHo5aJg0ZJ4vIEJQtbaGxck1RyG8t5uhK4yr9jmevdj5qCJXGDCC/DZ3ruT5zWS2oVG5FacU/daqUEKI5wCoYq9PqmsVh1ZDgM2lf9ggrtVhuWblqrrC6htWSlbM8WHFkZS+uLgshmj8T+rjU3NA4KZoTE0/oFjFRwuSCayQuAy2Fv4OP7j8pn+GJFZRE3J8wxTeGbbfd1lx6/g2+z2lw7SgXnrs5gFsxLj7sI8tCUAFcJCUUTJzQ9nG/FRMfE/q41NzQOCmaE7JAiWYNvskI2P/3f/9nGyAndtgTxv4P/Pfx591tt93GS1jjcQU+0fgz4yddalWxKPi3s9cE32smUvYw4LvPhLr//vvb/o3mzAcffGD++Phps8cGBZp9BuSbwA/4gYuJD3zw2ePCHp/m3kZF9Uzo41JzQ+OkaC5IgRJCTHSw0ZeNoROqcELEMDa6svFXCDFxMKGPS80NjZNifCIFSgghhBBCCCEKoj1QQgghhBBCCFEQKVBCCCGEEEIIURApUEIIIYQQQghREClQQgghhBBCCFEQKVAtAMKmXnfddeFICCGEEEII0VAUhW8iZ8iQIW7TTTe1dyW88cYbbsoppwzfCCGEEEIIIapFFqiJmI8++shewrrHHnvYixqlPInmxK+//mqKvRBCCCHEhESLVqDOOusst8UWW7jVVlstpNSnY8eO7oknnghHzY9///3X7b777m7jjTd2//vf/0LqGJ577jl7C/qRRx5pL5trznz//fduvfXWc4MHDw4poii//PKL23XXXd2GG27oTjrppJBanP/++8+U7F69eoWUpuf44493/fr1c2effbb9jWtuvvlmt9VWW7k11ljDff755yFVpHn66afddttt50aOHBlSqkflLIQQYmKkRStQp556qilQ/fv3Dyn16dChg9t5553dp59+GlKaF7x9+5ZbbnEzzzyz+/DDD0PqGPbbbz930003uQMOOKBRQlBTgyK44447uqmnntrNOeecIbU2/PDDDxOVlSPveWaYYQbXo0cPN8kkk7jPPvsspBaHfvDyyy+75ZdfPqTU8eOPP7p55pnHXXrppSGldvBG/nXXXdctvfTS7p133gmp444999zTHX300fbczblv1JKvv/46fCpGu3btbEHj0EMPDSnV0xLLWQghxMRPi3fhW3jhhcOnsWHiv+GGG1znzp3dn3/+WZfYTPjkk09M8XvttdfMNY9AERzzP+Aexeoxq/yjRo0y605zXQHGGrHSSiu5hx56yE011VQhtTbcdddd7ueffw5HEz6lngdleoEFFghHxendu7e1G/4WXHDBkFoH15xtttlcmzZtQkrtuOKKK8xyNnDgQLNSjA8WXXTR8KllcNVVV4VPxaDuX3zxRffTTz+5G2+8MaRWT0srZyGEEBM/LV6BatWqVfiUz9Zbb+2uvPJK98gjj4SU5gHWARQi/lCW/vrrL/scFb2ePXu6c845x9yyrr/+enfPPffYH+5azYkvvvjCLbXUUu7iiy82C0qtQcGcmCj3PJXachbix7z99tvuscceczPNNFNIHcOMM87oBgwY4Pbaa6+QUlt4llNOOaXmSnNRqi2vUqAIEuXyjz/+CCn50P8GDRoUjsYtWJIaspAwzTTTuHvvvdfGG8aYhlCrchZCCCGaCy0+Ct9TTz3lNthgAxMmJ1RwwWKl+JlnngkpAnBrXHHFFc0Fk9X0CZ1Kz3PggQeaMH/nnXeGFFEO9t3NPvvs7oMPPnCLLbZYSK2eW2+91azUKFH77rtvSK3P33//7aaddlrXvn179+yzz4bUcQf5Yh9ktVaoWlCrchZCCCGaCy1OgbrvvvtMEGXfEBaPueee28J8x2JgVRz3oqFDh7pOnTrZHiggEAN7CHCXu+222yyNcy+//HI796ijjrJVfFb0v/vuOxOYcE3LBm+4//773fvvv2+WoLZt29rf77//7h588EF37bXXullmmSWcmQ/Xveaaa2w/Aa5Vc8wxh3v11VdzFShc4t59913bW8TeGPZCLbHEEvYdShcCTevWrc1Cdffdd9s1v/nmG7f++uuboMc1P/74Y/fVV1+Z8HfEEUcUthKxr+mSSy6xz5NOOqkdE6gAQSqC4Il7ENfEekZ55SkGRBDEosZ3PD9ul7gnluO8886zeqTOsKCwkj7ddNOZVQ6ozy+//NLc3nDVZJWdZz322GNt3w9Uyt/tt99ulklW53Gtw12StkD9LrvssqPbToS9S7QX4DdrrbWWWeAo24cfftiesRSVngeiAtW1a1ere+7HM5144olu1llnDWfVQYCAGJmR/sA103ugeIYLLrjA8rn33nu7bbfdNnxTHp7/oosusnqmrsjn/vvvb/2ANse9sNREiy7KBPv0+N3hhx/uNtpoI0sHFEX6C+2XclpllVXc9ttvH74tRrm2EwV7nhWXWJ6VyJXZusvLN8FlaB/kmwAu1CtBaVZddVX7HiWW6/Pc7FsjkAL97fXXX3ennXaaO+aYY+x+a6+9to0z1D8WnlL1hasjYxdthfPYn8neMf4oE1x082A8Iv+4ai655JK27wx22mknt+aaa9pYwriBdYpnoy4oC/aGMgYcdNBBls9lllnGnXHGGfbbatt90XIWQgghJhhQoFoCXmFJdt1116RLly4hJUm8sJnssMMOaE4hJUlGjRqVeCE18cJp4gXBkJokI0aMSLwgmHgBLKSMOXeGGWZIvOCdeKE1fJMkXimztDTdunVLNt98c/sdeKUr2W233exznz59kj///NM+l8ILYokXIpO+ffuGlCQZNGhQssIKKyTrrLNOSKnDC7/J1ltvbc8N5NMri4kXYOyYe5188snJYostlnhFJ/n1118tvX///slUU02VPPbYY8lLL71kabDSSisl559/fjgqjxdUEy8YJt27dw8pSeKVFSuTiFcGEi98haMkefzxx5M555wz8cJVSKnjgQceSJZeeunEKzIhJUm8QJj06tUrHJVmwIABVrdeoQ0pY6A+veCbeIEy8cqJ1cmMM85o+YIi+fMKitUb96AMvZBt6V7AtTbhhUw7jmyzzTajy9ArlMnKK6+cXHfddXbMc1ai3PMAz9OxY8fk6quvHl3v3I/7pHnzzTcTrwyHo8Su5wX25Lnnngspdf1lyJAhiVfoE68chNTyeIUn8Qpp4pWEkFLXrr2Cap8pF6+EJl4JsGOgHLzSkHglO7nttttCal37pLxin6B+vMKZeIXRjotQqe3w3JQnfaVc3Q0bNiw54YQT6uWbNv7yyy/b770CY3UT2W+//ZKLL744HNVd0yskiVdakpEjR1oaY49XepJddtklufTSS8vW12uvvZbMP//8lg/wypAdkwevICaDBw+29HJwf9pHFq5BuU822WRWz+SLcYNxEX777bdk4403tmeMVNvui5azEEIIMaHQYhSoK6+8Mll00UVHCyqRO++80yb3LIssskg9BQq6du1aT4GKoIQguKY5/fTTk2WXXTYc1THHHHMk119/fThKTEFp1apVSYE4y4477mjCWZYDDjigngKFkjTFFFOYcJUGBTAtRPHsk08+edKvX7+QkpiAR1r2PgcddFCy/vrrh6PyIAQuvvjioxVFQEicZJJJTEADBLKlllrKPkdQUG688cZwlJhSN/vss1s+06DooHxWopLCgYLXunXr5KOPPrLjoUOHjs5zkfwBSkYUJNN06NAhOfzww8NRknzwwQd2XlRg4f/+7/+SJZZYIhxVpogCNdNMM9VTxJ955hn7TRS+AUGZtLQyyOJC586dw9EY2rVrV1iBQkGmLaZBCULBj9x+++31FJHI9NNPX0+BeueddyyP9957b0hJkmuvvTaZd955w1F5irSdtGCfJlt3wHXy8j3NNNMkPXv2DEdJ8vDDD1s/RzFMgxLEvWljEcoKxbVSfe28885Jp06dwlGdMskiR1rBr0QpBQrefvttG4d69Ohhx8OHD7cFhsjBBx9cT4GCou0eqilnIYQQYkKgxQSRwD0O17TshmbcoPLA7SxLqc3QpOOOkoYN+F4ICUdeevDKKi5VaZc+Ns+TXiS8L65ZuNmxXytL9hlweyL/BGdIQx7feOONcFSXb69Q1nPd8oqXuV0tt9xyIaUO3BPTz1MOQmrjypR29/PCm7kTekHZjr3gZe4/EdwYcavE3SnCO6y88DXWe7q8IjHanagx8Pw8q1eW7Ti6dUKR/EFsE5XqH/cxyNb/Xw3cmF8KQk+ngzKQD0jnBVdK3DOjuyh5wzUs+2xQqs1nwYWrT58+Y9UV+4JwH4vk9SvI3ofnwL0PVzKgnfJceXnMo5q2w76yNNm6g1LlkE3HHXb11Vcf6zmJMkld4yoa4bfsCapUX9RPut3QRjmuVdshH4xDsRzoE7hNRvKePaZVavdpipSzEEIIMSHQIhQohC+E97z9NbUiKgZpEEoiCBzbb7+9Ca6Rl156yfZAzDvvvCGlNOxlgCLPwH4NlCr2avGeqPiHYMT+izQISihNWSo9TylGjRpl959vvvlCSh3cY/HFFw9HzvaesR8CYf7CCy80YRkFk71Skffee8/KLe5JihBuG4G/FrAHLY8i+UtTqbx43xH7z7L1z4uQa0lePiCdF8qOeuc9YSgTDzzwgEVyLPVsRaCuIFvvKJ1zzTVXOKoO9it16dLF9quhlLMXr2geq2k7DW3reXDfUosy7FmM5RQpUl+8I+2VV16xvgWMBexdY+9mLSnVF8pRTdnVspyFEEKI8UmLUKBYsUWQQwBuDChijYGN36w2n3TSSbbRnpDG6RXpcsRN5UWeISpkCP/Zv80339y+aypYeUcQI/hCOQ455BB7QSsBDwjcsOWWW44l2LLxHAFr2LBhIaVxIICzeT1N2kqWpkj+qoXyf+GFFyzYwMknn2xKFRv8G0re8xSBoArbbLONBW04/fTTTUDPKhrVQl1BpXovRbZvEXBghRVWMMsNdcALWbPWjnLUuu2UIqsA0PZLWVUIQtGQRRysaPxRX5QFYwdBLBqi8ESefPLJ8GkMpfqCEEIIIerTYmZMlBeEsiyllCIUnaxwRIS6xsDLSi+77DKLnEYULtybigpBuJkRca/IMxCRC1enb7/9NqSMgZXspoayjhazNLzkl8hqrMLzbi0iy6XfP5R+Tw0vMCZKHUJd3rXefPPN8Kk0vAgWYj1SJkXehVM0f9UyZMgQCyON0vR///d/Zl2JeSxCQ58nDb9FEEdBTLt4NvbZsBbNOeecuXVFWrQc5fUr3CPjC6AjKHYoT+loi9XksbFtJwvXyuYbq1323U/rrLNO7j15D9Pw4cOtb1TLo48+apH5iPSHNQ5rctbFthK0nXT+iQgohBBCiIbRYhQohGHcsLKCA+GeIWvZWWihhSzMdYTvX3755dF7WdIgHEb3mkheGm5sCM+8uJQw0lyPkL5FQIDDIkIo6/TeB4RPniudrzXWWMOsHQihabBYEPI8kpdHID0KvJFS5+Zx/vnnm5CKtSXNjTfeaPtuotCZdh0kfDMh1fnuzz//tOfF5Q1BH4UzLfxRZpRdJRZddFETHGM9EgI8vd+LZ8qzFhTNH8RyKlL/CNaEie7bt6/VGQo11ypKkefJywfEdP6n/aSfjWMsR/G503vy+H2RvTaUR/fu3U3xTFt9UO5xEYzKH/2K+6QtVYTwxu0t3YY5J51H4HnJP/mrtG+wSNuppu5QEKmr9DhB+ybfKFKRE044wc7j/XJpKBveFUXfjBSpL5h//vkthD6KFJYj3EBZiKgGyiM9nqXDpMd7lrKc8X22DeTlE4o+E+Sdi3WNPWRF9oUKIYQQ44tJu7AM3gKYYYYZ3CabbOLOPPNME6jY34L7HHs22PyOMMs58UWPvDOFVW4EJN5Bg/CCCxHuT7x7BTc5Nqmzh4T3oHAO71riPTYIO7169TKBj71X7AFhTw17IHhfFAIQgR4IbHHuuefae1h4Pwv3Lwcb6xF8Lr74YnMn4zoI4lyXjfoI+ZyDksLmewJGkA+EW/bboNQcfPDBdowbWXyPDXuW2J/AM9AcsMDwLFhMeFcM739CyCWNckMITgtgWbhWx44dTZjEaoCAidLAtXjvEpYKhDWEbZQS7s+7YhAwETSxnPFuHJ6R8iRfV199tQnUvA+H92/xTquoxJSCjfbUH++6oYwQIKMASx1R/yiVPBPPisUDiuYP5Zv9UdGVDiET1zFcNBGg+R2CLu/TYc8Rwjv1/dxzz1mACpRhfs85G2+88WgloxSlnocAI7gZ0o7JC/XEe3vuueceyy/tlPcPAQoX+4BoQygD1A1COYo9lg3ed0V+UXBIo22ThvUkLfzngZCOpRTralT0aDf77LOP7b8D2g3KEUEeSKP94tZG+6A9Y1Uj2Av5JyADlhvcQh955BG3yy67WL5o69yrkktfubZD+VdTd1h/Y1nRT6lD+jX9mDLCOs39uA/vWLrgggus3OhfWJp5VsqcZ6mmvnhGyoz+yr0pBxYiuD7vY6K/06cqgbsoFiwUWvKLkoL1mzLmnrR/FHzGDNoisDjDeMXYR11SFxtuuKEFsyladijP1ZQz7YI6iu8OE0IIIZojLe5FuoCQhhDHyi5CAsIxrlpEhUoL5QgbCA4ImgiGKAOsrrOfCiUhLzpVKRBCEORQaNKCAULZcccdZwIYwmZREGZQMBCuEH5YseUZEKzTsMLLuSh8bDwf1yDwsiKPApmFOkB4RDilTIFV6TxFIj4HCm/WMlEJ8oDQiuJXDdXkrxIE7+B32SAePBOBJNiThOJRhIY+TxqeA8EVl7p04Afaei0EVxQX+kipRQFc9uhbtEvaLII0yiHlnG6nXAehGwtQjGxXbR4b03ayMAagQHMt8ku+yT99L9u/UMLp19RTJWW/FCgeuDGiiKDYR6g/FF4UsfjC3kownqHE0Bcbu59PCCGEaMm0SAVqfMDqOVH40ns6IghZrAgjUIqJE5QwLJdREUuDJQELDJHmhEiDtZF2g5UoDxZ2aDtYFYUQQggxbmgxe6DGN9tuu625zLFynAUBmkhoovnB+gIuZaz0NwaU57zAB7QHXAn5XogsvPcN10asTFkICINCLuVJCCGEGLfIAjUOwb8fVz72LCD44MaEixICED7/1bgEinEDbk/s/WF/VCkrQBHoZkTgY18M9Y/7F/tjqH9Cy+e9IFkIIPANe5XYs8R+MVwY2V/JeHH00UdbWxJCCCHEuEMK1HiCTflsLJfS1PKgy7G/SvtQRLWwn5D9Tg3ZhyeEEEKI2iAFSgghhBBCCCEKoj1QQgghhBBCCFEQKVBCCCGEEEIIURApUEIIIYQQQghREClQQgghhBBCCFEQKVBCCCGEEEIIURApUEIIIYQQQghREClQQgghhBBCCFEQKVBCCCGEEEIIURApUEIIIYQQQghREClQQgghhBBCCFEQKVBCCCGEEEIIURApUEIIIYQQQghREClQQgghhBBCCFEQKVBCCCGEEEIIURApUEIIIYQQQghREClQQgghhBBCCFEQKVBCCCGEEEIIURApUEIIIYQQQghREClQQgghhBBCCFEQKVBCCCGEEEIIURApUEIIIYQQQghREClQQgghhBBCCFEQKVBCCCGEEEIIURApUEIIIYQQQghREClQniRJwicxrvjzzz/dH3/8EY6EEC2dn376KXwSQgghmjctUoH677//3JVXXuk22mgjt+uuu7oTTzzRnXHGGe7JJ5+072+44Qb3yiuv2GdRml9++cXKb8MNN3QnnXRSSK3MVVdd5Xr16uXuv/9+t/3224fUhnHzzTe7rbbayq2xxhru888/D6kTHmeddZbbYost3GqrrRZSxoZnfeONN8LR+OGpp55y2267rVt77bVH95c8Gto2mpLu3bu74447LhxN3AwYMMD61jrrrOPuuuuukFqf6667zr399tvhaPzx+++/u0MPPdQNHDjQ7bbbbu6JJ54I34xbmBcOOeQQt+mmm7rOnTuH1DqGDBliaRtssIE7//zzQ6oQQoiWSotToL766iubBD/44AN35513ujvuuMOdd9557vTTTzeh78ILL3THHHOMTabNha+//jp8al7MMMMMrkePHm6SSSZxn332WUitDALTKqus4tZcc00TmrL8+OOPbp555nGXXnppSCnNnnvu6Y4++mj38ssvu5EjR4bUcUst6ufUU081Bap///4hpT53332369q1qykl77//fkgd96y//vq2+EA+f/3115A6NtW2jWrqvCE89thj7pRTTjGFoiWw0koruRtvvNG99957bujQoSF1DNQN9bjjjju6Tz75JKSOH0aMGOGmn356t95667kZZ5zRffrpp+GbcQtt9fLLLzfr+NRTTx1S65hjjjncTTfdZIrprLPOGlKFEEK0VFqUAoXgjtDevn17d9lll7mZZ545fFMHK7YIfihSzQksNs2VySabzC2wwALhqBhYARZddFGzCLzwwgshdQxcc7bZZnNt2rQJKeXhWuOTxtTPDz/8YMoIf//884+l8TmtlPXp08c9/vjjrl+/fq5v375mMR2f1rbZZ5/dTTfddOGoNNW0jWrrvBq++OILs4LR1jbbbLOQOvFDWeYJ+1h+WXDAyv7www/bAsT4XKSh3s8++2z3zDPPmOL3v//9L3wz7sGdG6tcnqJNn2PRoKUo4UIIIUrTohQoBE9gtb8U++67r2vXrl04Gv8MHjzY/fzzz+GoedKqVavwqThYJXbeeWcTxrOwCs1K71577RVSytOQ+9eKxtYPSj2CGX/ff/+9pfF52LBh9hmlCgvC9ddfb6vi8803n7lkvfTSS/b9+KJomRc9r9o6r4ZHHnnELFDLLLNMSGk5ZMsf6woWn6uvvtpNNdVUbqGFFnI9e/Z0zz33XDhj/EE/wqI8Phk0aJDlI09JevbZZ81KWu2CkRBCiImPFqNA4bKHy8oOO+zgppxyypA6NggczWmV+pxzzgmfJi4QQlZeeeVwNOHS2PpBgN1pp53sb91117U0Pi+99NL2efLJJ3e77767fY7QftkrIopx0EEHye0qgBKebTt5aeOD7bbbLnwaf6AkLbbYYuayl4XvYh8VQgjRsmmVtJAQdOxtwnXsvvvuc9tss01IzYd9A9NMM42t9sPff/9t7matW7c2Fw+sA/vtt99ooey1115zV1xxhVkKOnXqZJYVOPLII801BoH3tttuszTOxc+ec4866ig300wzmcvId999Z/c5/vjjTWgmDUtZ79693ZJLLllPuMYNMfLQQw+5d99914QgrDoHHHCAW2KJJew77v/ll1+asoKbzr333us+/vhjd+yxx9pKain4HXvFcAFibxi/GzVqlD03z7bsssuGM+s48MADze2RPTrkB6sJ98HilxVcn376affWW29ZmXz44YdmcVh++eXDt87291xwwQW2J2bvvfe2gAWVwHKDJYvfsp+D33700UeWz1gXaV599VXLB+6af/31l5tzzjltL0ga9mHg6kS54gLGnq10wIui9VMO2iJlgCsp+y/mnntu28Ce7ZK0DQKb0FbYm0f5HnzwwdZO4PbbbzcrC8+NdQpXP9oX5VGqDHg2vud6bdu2tT+sYQ8++KC79tpr3SyzzBLOzIfzsWJEofeII46w/Pz777+2T4r9XFCkbTSkzoFnvOiii6zu6Tv02f333390uQD7HHGTnGKKKSwfG2+8sVthhRXCt6Whv1APk046qV2b/FNHMZ2FFup8rbXWsj2T5GXxxRd35557rv3+mmuuMasO6dQP5VW076dpbD2hiOMSR3uJcC1cmHGbJBImFhdcHNmHhIsaz0NdECiE8Qw3P/pJqT5dDsYOnpG+hvWL8l9xxRVH36dIuUVuvfVWi9RHPWClpbxw/6uWN998073++uvWJqaddlpz6Y6WcOYGPue55TJmnnnmmTZmMR4ShANQtghkI4QQogXhhYFmiRdaEz+JJV4ASkaOHBlSG86+++6LVJq8/PLLIaUYw4cPT/wEmzzzzDMhJUm++eabxAvJiVe07NhPpolXlJLpppsu8QKdpcGIESMSL9AlCy+8cEgZc64XKBKvyCReqAzfJIkXni0tjRdEEy8AhaP6eKEz2XrrrRMvENkx1/VCeOKVCDvm/vzWC3rJeeedZ/eeccYZE6/s2fel4HdeSEi8YJ94gcF+B16pSBZaaKHEC+l2HOEeHTt2TLxAPTov559/frLyyivb54gXXBIvaIejJPGCY+KFscQLTCElsd8PGTIk8YJh4oXNkFoerkPdUh5eIbE0L/BZGXvFwo4jXpFNvIBer02R18MOOywcJYkX9BIvSNn/wPN7QTk555xz7DhNufopBc+46667Jl26dAkpSeKF+2SHHXaw50gzaNCgZLXVVku8QhtSkuT5559PvHBr9QReKUn69Oljv73kkksqlkG3bt2SzTfffHS9emE+2W233ewz14nPXQ7qxwvH4ShJvDCbdOjQIXnppZcsP5EibaMhdU5bXGCBBRIvCIeUurx7BSccJYlX3urVGXXuFeWkZ8+eIaU0nNurV6/EC9n1rnHaaadZP6VevLJoaV4ZsPqgLUS8QpT06NHD6oR+CdX2/VrU01JLLVWvTClr8ukVwpCSWD68ojX6eWiL6623XrLLLrskl156acl6q8QJJ5xg5R2vy/9bbrmlje1QtNyAMSs97jz++OPJnHPOmXhFL6QUg/6x55572n1gwIABdgw8p1dqc9uHVx4tT4MHD7Z+xbjolbnk9NNPT+abb75wlhBCiJZCs1Sg+vXrl0w77bQ2YfG3wgorFBIWytGpUye7FhNmNSDUIExnQQBZY401RgsXsMgii9RToIDz0gpUZLHFFjPBMg2T8bLLLhuO6igloKMkIdy99dZbIaUOFLb0+d27d09at26dfPTRR3Y8dOjQ0QJZOfhd27Zt6z0fXH/99SYAfv/99yGlTkhG8EjXEQon5T1s2LCQkpggR1pa6EGR6Ny5czgaQ7t27RqkQKVBoD/88MPDUZJ8++23SZs2bZKBAweGlDoQ+BHe+/bta8fvvPOOXS+tIFx77bXJvPPOG47G0BAF6sorr0wWXXTRscqWxQLuG+H7VVdd1YTYLFtttVVy4oknhqPEFBB+i4CYJlsGMMccc1g9RlB6WrVqZeVYlLQC9cYbb5hwndeuirYNqKbOUTgOOOCAcFQH/ZSxAlAaab9pZQ5Q4llEKPqsl112WTLPPPNYv0GpOu6448a6Juy33371FAHgXjxnWhGAon2/FvWUVaBQTqiPbNujPaYVB8qWxY0i9ZbHK6+8kkw22WT1np1+x+979+4dUoqX2/bbb2/PkgYF6sYbbwxHlUGJX3HFFestnqy++uqjF3UYS7lvXvled9111g5QvBhnfvvtN0vnOatdlBNCCDHh0yz3QPFOnOHDh4cjZ+++Idx4Y4g+7biGVAOuU4TXzcImYzby4yoWwd0nS3YTd4T0rCscG+nZ4F0EXHu4nxcqQkodXDP9riDug2uTV+7sOLqLVYLf4dKTzT97yHCFwoUoDYE32JQe4Vkg/Tx77LGHe/HFF0e7HeG2hAsNLlZZSpVbOXANSpMtT9yJcJHKBhPAlYn3SBGmGHgW9jt4wc6OvbBpz5aXz4aA6xVubtlnzEa284qcReQr1f5ifiFeq1Kb8n3e3OjSrmI8G+lesAwpxSE6IO5OuMeWaldF2gYUrXP6MJEJs+/MwqUKl0qg3+KCRt2mWW655aw+H3jggZBSHt5P5JVYewdQdAPOXhNq3fdrXU8RXDyJdJfNW964wV6gIvWWBy7Lc801l/1F6He06fQe06Lldskll9R7nxVujIxlRfvkt99+a3VHfeK6FyHyH+6ZQJ/H/TnPLZDv5p13XnPBxC019lXaoFfC7LMQQoiWQ7NUoNhrk6Wxb6mPe1TY31QJFCP8/Xl5IvsD8kI2xzT8+xsKCkoWBKQisHeGPCCo3HLLLaP/UJZOO+20cFYd6X0EjYV9UQhSCEJp8p4F0s+DssSeIvaP8eJihFj2QrBvphZUKk/ynFeXQHq6LhdeeGHXpUsX2w/GO3PYE1aLfCK8s2etyN6NWMal2t9333031oJApTJAOGUvF4pshPaOsoGAWA3s4SK6HXtV0gsJWYq0jWqIfTjuUYwgUEeBvZq6rgTKGNdjXOIetWBc1lMaxg32M6XHDP4233zzsfYBNqbeqKNs/QDKdJ7SVAn2B7K/kUUYFFkUGhTMon0SxZrzs/vr0gGFygWJiAoUe69OOOEE63tCCCFaLs1SgUpv1gdWDKM1oKFsuOGGtsoaV6jLwSZmJks2ebMC/Oeff4ZvxhDTKgnCCMy15Mknn7T/oxCFQJH9QxhKU8TiVBSEkN9++80CL1QL4ZLZpH344YdbcAoEtnLBLGoNm8Pz6hJIj3XJpn0CDbBSz+o0oZWzFoNSxPopBXWBEE45ViJubC/V/hD+Sgm55ejQoYNZFggcQBAGQjdjnauWTTbZxCwDBM7AQjNq1KjwTdMSy6XcokrRui4CSgeBA2KAg6I0tu/Xqp7SMG5QNnnjRtaC2xi4R0MXvfLK7ZBDDrGXLNMfjz32WLflllvagkxRCBzD85VSqlEKn3/++VwFisW0b775xiJukgcWkbLKphBCiJZFs1SgiOh1/vnnWwQpVlyJMBYjyzUU3G5YSWZFF7eNUuBWxrkIp/zhnkHUpiy4uzCRpiPIRRebNEy8jYG8pK9JOHbArQv3FVxTsvCCzFqQJxATSYz0Uiu1peAZUJwQhNJuh+l3KFE/TQlub5RZXp1Qn/HdLyh3KE/psMql8lmqfsqBYIySliUrOEaBr1T7w+0wG7WtCLgFEoUNgZBIaLi+NcRKGZVohEoiIcZIak0N1kHunWdFIg2rBHWZV25EVESwpw6KgIUPpRhrJM+5yy675LqNNUXfr1U9pWHcIApmHrUaN4DyJZJlnrtful6KlBvWLF5Bcd5559miVqSasQOrV6lFH/JJu+F65Jv6xboawfo0//zz2x/giog1DHCnjNH4hBBCtByapQKF+wr+6qy4suK7wQYbhG8aBwIp4caxKOQJVwiwCIGspkcIX0745fSkjpLFi01ZFU6vgvJOH8KGR7Ay8MZ/zs+CkJdVUPLSUBzT14whhBGeWTVG2E+DqxmrrRGuWWTPQh7cN+2aRfngekeoaMJ6R0o9C8R0/sd1KL3/gGOEWUIpQ3pvB7/n+yJk7xXJ5gulD2sJ+xjS4IaGgIWQCuQnnU/4+uuv7VrkMZ3PUvVTDgRBhLKsskU7g2idQkHHXYlw4WmLFXnp27evCfSRomUAPBsh2HluwrnTRglbXQ3p66LkEYacEM/ptgd59y+X1yJ1jhWPfolQnXb3pX3iFopSS4hrrk85pWG/1q677moLM5VAoCaMN4o/EGIdAZvfZ/t0tu9DtFZlzy1VJtm0WtVTLG8gDDvlh9tlGsotff9SeYRseh777LOP9Y2LL744pNSBMhr7OxQpt3h+uk9iFeK1EnyHRbGSlZ0w4+k9XhEseixmUNcoWCiolEW6fdBX4+IKcK/4Mt1HH3203vyEws0+O9x+hRBCTLxM2oWl1RYEShQTHhM8ewqwMuGShoBy8803m4UkvVKJqw9C0ymnnGKBLVh5RFhkJTr71nzeB8RKKAIlK91Mrrh+4brGHgrcZ/CdRwnhXT2cw7ubNtpoIxP4evXqZcIxe2TYy4HfP1Y4BH6EQ36DRSyuQuPWiFDA75jUeR4UQ975wjHXREBAqSLf7OnCslIELE0I+OxjIJ+DBw+2fFN+KABcn2ASuNOwoZ978Cyszt5zzz0m4PKsvG8FsNQtuOCCJlChDLD3CWEKAZE9GOwt4H0sKFSk8aykUeYoi6XgPT8oGdwfZQ8BHPch3J6eeuopc79ihZlrs/+qY8eOJhAhWCOgEQyDQAhsUJ9hhhnsmjwDCjLPjGKFBZT6Jm+4gCIYRpe+cvVTCu6D+xsKB6vv1A31RFlTllgeOIdN/NQXgiPlxj0QorkfygOCGlRbBihmvIcIayzBSAhqwcIBllmUzFgOeVB27LGjPXMvFBiuyzUGDhxo5cm9qLOibQOBvJo6B+qAwCgovShMCOG8r4h+zT5ALHMoy/RVrkndkUfO7datW9l9OLQLlKSTTz7Z+gDveqLt0t7PPvtse3buhfU3Ctbs7aG/Ux4I9XxP3aGo0JfID+2+mr7fmHpiXIhlSjumDHBj5vl5LxjtB8WBtkIdUWa0yWr6dDm3VsYH3NwYU1GqqeMXXnjB0nkXVKRIufFuNBaByDNKE+0ZiycLXeSJekDRLefSt+iii5qSxJjDNSmXJ554wsYzlCVciRkDcK8lQEXaQsnYz6IReQUsUQRwoZ5QmLDqRfgtVkMWmCaGF4ULIYTIp8W8SDcPBD6EISZUoinFfUWlYLJkIi93HkIuwhzCEgIek3bcfM5+lbwIU5XgmgirCFV5QgLCCUIS+Upvim4MWOoQNFnp5VkQ+BAiEYAaA6vYCNi47qQ3mXMP6mFcQZmRDwQnlIo8eGYETFzGosCdl89K9VMO3IUQHBHKEL4QDHFTIlBHtqzJD8p52o2pWhBWsWghsKefA4UWqy+WVoTYCQnKhb5VSqGgz6KcYO0opzjVAuoPKxEvh6WNoYDQ96mzau49LuqJckH5oFwaMi4VBQsR+S13nyLlRj8hnYiqfAeMJyiFRSEvjM9YkLJWZizLLDJFV70ISiMLEmkoO5TNUm6BQgghJm5atAIlSpNWoMTEA5Y0grSk93dFEHKxoGVdqsS4R/UkhBBCNF+a5R4oMf7BjSm916el8tBDD9mqONaq8QnrHLw7CveqxkAY51tvvbXevpgIblOKLtY8UD0JIYQQzRdZoMRY4CLEPhz2jfASUfz/+b8lwt4klBZcqth3M77ATZB9QewPYd9HY2DPF8+DGxOuUOwBjC6a1HVTunOJ4qiehBBCiOaJFCghWjAEbCCAgITx5o3qSQghhGg+SIESQgghhBBCiIJoD5QQQgghhBBCFEQKlBBCCCGEEEIURAqUEEIIIYQQQhRECpQQQgghhBBCFEQKlBBCCCGEEEIURAqUEEIIIYQQQhRECpQQQgghhBBCFEQKlBBCCCGEEEIURAqUEEIIIYQQQhRECpQQQgghhBBCFEQKlBBCCCGEEEIURAqUEEIIIYQQQhRECpQQQgghhBBCFEQKlBBCCCGEEEIURAqUEEIIIYQQQhRECpQQQgghhBBCFEQKlBBCCCGEEEIURAqUEEIIIYQQQhRECpQQQgghhBBCFEQKlBBCCCGEEEIURAqUEEIIIYQQQhRECpQQokWTJIm75ZZb3E8//RRSBPz333/ummuucSNGjAgpQgghhAApUEKIFss///zjOnfu7I444gj3zTffhFQBw4cPdxdddJFbb7313NChQ0OqEEIIIaRACSFaJCgIW2+9tWvTpo37+OOP3TLLLBO+mTDAQvTzzz+Ho9pDubzzzjtuq622cptuuqn74osvwjdCCCFEy6ZVgv9KC+CEE06o56IzxRRTmAAy3XTTuUUWWcRttNFGbr755gvfThh0797dPf7447Y63KdPHzfDDDOEb0rz1ltv2Wo7v6MMynHccceZAEUT4foN4eabb3b333+/5fH22293888/f/imZXHrrbe6F154wV177bUhZeLnf//7n/v888+tXfbs2TOkFoN2g0KzwgorhJSGcdZZZ7n+/ftb++vXr19IreOhhx5yCy64oGvXrl1ImXB46aWX3FNPPeVWX311d+6557p7773XzTTTTOHb2vP999+7Rx991O21114hpRi//PKL+/DDD93cc8/t5pprrpAqhBBCTOCgQLUUvDKAspjsvffeISVJfv/996Rv377JUkstlRx44IHJP//8E74Z93z11VfhU3F69eplz+QFxJBSGq9AJl6BSQ477LCQUpkzzzwzmX322cNRw3juuecsjx988EFIGbc0pFxriRfcE6+oJ3fccUdIaRn8999/yeGHH259qxruuuuuxCtPyWKLLZa89957IbXhXHXVVdb+8njssceSzTbbLPn6669DyrijMe3SKzPW9xmvKN+PP/44fFNbGB87depkZVgtZ599dnLEEUckL7zwQnLNNdcke+65ZzJ8+PDwrRBCCDHh0qJc+BZffHH7P71SO+2005r16dlnnzUrwUEHHRS+Gfd4ISV8Ks6iiy4aPpUHa5sXYNzxxx/vLr300pBaGaxzjaVoHpuKhpRrrfjxxx/dwQcf7Lyg7nbZZZeQ2jJo1aqVW3jhhcNRMbB0Yh3FWtS3b1934oknmhWrWn744QezPPHHPifgs1eU7DP94cwzz3SnnXaaWaAYA55++mn7blzRmHaJS922225rVugbb7yx6nIuwvvvv2/7n7AgYkVmr9iff/4Zvi1Pjx49zNrdtWtXt+aaa7r999/fLbvssu6www4LZwghhBATLtoDFZh55pndyiuvbBP/H3/8EVLHHV6Zda+//no4Kg5CahFwH8N1D7eqaih6/XLU4hoNZfDgwU26T6QSuIndd999rn379iGlzq3puuuuGy/tbFxTTd2j6OBqd/3117upp57aXGrvuusuc1erlt9//90UL/5wPwM+Dxs2zD6jqK2xxhqmVF1wwQXutddeM4Xhq6++su+bmob29yxzzjmnjVtwzz33uEGDBtnnxvLXX3+Zyx7lhJKGMsv4QX0U4cILLzQFLw0LCIyvtH8hhBBiQkYKVIq///7bVqbHB+wPaspN2h06dLDV5JbGOeecEz6NH/bee28377zzhqM6UKpYkb/zzjtDioDJJ5/c7b777uGojimnnNLttttu4ag4Cy20kNtpp53sb91117U0Pi+99NL2efPNN3frr7++fYbWrVubpXCeeeYJKU1Lrfr7jjvuaP8zdlFOtbLwTDXVVO7oo4+2haUI+9GwYlcCRZW9k4sttlhIqWO22WazfZdPPPFESBFCCCEmTFpMEAkYNWqUm2yyydwxxxxjK6RpvvzyS3PxQ4jKfodSddlll9lvsRpg0TjppJPc9NNPb99/9913tkkeAYHVVYQEVrMJARx57733TGBmI/Wnn37q1lprLdexY0f322+/WYALNs0jLHbq1MnOR1gpsmH73XffdUsttZSt3CPscO3LL7/cTTrppO7ff/91Bx54oOWfVXbcyRDosyvDbEB/++23zVUHF52NN97YrbjiivYdK86sPCMU3X333W7kyJF2LoLU8ssvb+dUAgvA7LPPbmXyySefWD4++ugjc+nZeeedw1ljePXVV82divywEs4qexQUIzwnbkVYKhBEV1llFbf99tuHb53l8dRTT3W9e/d2Sy65ZD0hGpeiUvz666/WPsjj2muvbfXx8MMPW1nyHHvssYcJ2b169bK6o165NgJ5hPuycZ628sgjj1gaQiMuotQTVkDqiAAHq666ql37kksusfNivXEfyqwI5eoPKEvcqWhf5It2lVd3tOMbbrjBXFxpM1iE6A8oNg3liiuucFdffbVZMKgL+gZlgAtaVGbS1CIPWPx4TvrDJJNMYgEMuF92qCvVJwEFh7qjHdAHcCkk399++60pxLvuuqv77LPPLJADZU4bpN7jmFCKSv0dV2Ken/vSZ8kXdUtbQOmOkG/aI+WCuyKR8j744AOzal188cXhrLEhj7RL2hlK19lnn22BdJ555hn34IMPWnnh0rjPPvtUHPdKQd+gL2LNo+zTEESG79JjoxBCCDHBgQLVHPECiW1c9oJC4oX2kNo4vGBqm8mPOuoo+8wGbDZye4Er8cJT0q1bt8QrWeHsOrwQkWyxxRZJ165dQ0qSPPTQQ4kX/uwa4IWzxAsY9hm8spF4oTocJYkXipIlllgi8cqVHfM7LzgnXumyY/ACReIVuHBUnBgYwwt3dkx+V1999cQLW4lXUkanDRkyJJllllkSL7hbWsQLc4lXTkY/C/9vueWWVv5AHgkice211yZeubC0/v37J174s6AURfBCseXRC4SJF2wtzStGiRf4Ey+k2nHktttuS7yCV6/Ozz///HqBL7zAmmyzzTb2P1Bn1N8555xjx2moO6+whKNiUE/rrbdesssuuySXXnqplR+QD694JF5xGx10gHO9gGmBIiLDhg2zcp122mlDSpJ4YTV5+eWXrRy8AJkMGDBgdLpX1JLu3bvbMXhl3tpUESrV35tvvmkb+SPUxayzzmqBPdIMGjQoWW211eoFNnj++ectbyNGjAgp1UN7a9u2beIVqZCSWF/hXl4hDyl1NDYP1JNXbJIuXbqElLr62WGHHazc01Tqk4wNffr0sd955XasdtujRw9rq5Gjjz66cJ1Bqf5OPj755JPEK0bJiSeeaPXHuEQZRvbbb7/EK0nhqC5PtPOddtqp4lhJX/FKkD1XfCagfL0Slpx33nn2uci4VwrGba5PW8uy8MILJ/vuu284EkIIISZMmqUChTCK8MkkzN8KK6wwWlhuDEz8XG+jjTZKrr/++uS6665LzjjjjGTZZZdNrr766rGUJ0BQmmmmmUYL0ZFFF13UhK3ffvvNBCr+T0P0OkAQI5oYQlAaIrKlBahaKVBEMLvnnnvsc5Z27drVU6BeeeUVE/7TEcgGDhxo1+vdu7cd84ytWrWqpyAgpCHgoUgUIa1ApenQoYNFaYt8++23SZs2bSwPaShDlD+iJUJ85nvvvdeOAQVv3nnnDUdjaIgCBQcccIApGul298wzz9h9b7/99pBSx5JLLpmcddZZ4agOFP+0AhWZZppp6inOKGXUe7rtobRNMskko4X7UhSpP+qb4x9//NGOASWjc+fO4ahO8UB54L5ZEKoR5BtKVKCyoMDMOOOMyffff2/HtcjDlVdeaf0y21epC8ogUrRPsujA71Cg0tBu+X26zlAGqYvsvUtRqb/PPPPMoxUN7hMXKx5++OFkjjnmGEuJee2116w84zhQDtpV69atx1JgTz311PCp8rhXjssuu2ysNhdBgULRE0IIISZkmuUeKFybeMll5I033nBeuAlHjYf3y+Ci4gUUi8LlBVFzl8FVKAvuOyuttNJYm+FxPyNfuL9wveWWW86dcsop5oKDSw/RwwDXKdyJcDFLw+9JHzFiREhpHL4u7X0wbJJPu7KlyT7DbbfdZu5L6fez8CzsX9hss81CijO3nrTLF25YXhGoOu9ptzLwAl+9a+CKhksSeUiDCxEb/m+66SY7xsWIcvbKkR17Ic/2bODKVCsoK/ZwcN0I+QXqOg3uZtmyKBU8IZvuBVVz46OMI7j44ZpZyVWqSP3hCvjiiy86r4DaMW5bRJ5MlxXnE0whb4/cOuusM7rcG0rec+BGSR/HbQxqkQfescW+pmwZ00fTFO2T8Tqkp6EdUM7pOqMNeKVmdMS/xsK9Y5/jPlwfCLDBu59wwUvDGIW7K32oEtQHrqzpd5J988039d7RVmncKwdjA3jFz/5PQ52n+5QQQggxIdIsFagYKStN+iW4tYZ9NPvtt5+75pprTJBIg0CFYHLLLbfU+2PPS9yXg9CC4Mfv2Q+DIBJfPMvvgT0U6d8T9Yv/q9nbUY7zzz/fDRw40CJmsU+pCOwByXt5MApKWkCjfPJeuovSVg15gnT6GgjRWWE3Qjp7QSKEbe7SpYs78sgjTQlhvwUCbC0ppcBUeo6iIGDSPrJ1QFkvHkLul6NI/aEsxfZ9xhlnuAceeMD2eaXLinKHvLIn7bvvvrP9P7WE/KGIxHs3Ng8o0Sid7EOsRLV9Mq++S7WNhrSDUrRt2zZ8GgN1nldG0KZNG/u+CAcccIDt32KPFRDBb4cddrDPUGTcKwV78QBlPQt7wErlXwghhJhQaJYKVNaCgkAZrQ1NBQIRws+bb74ZUupgwzgbuFnJz/5hUUFIIGQyYanZ+I0AQ2AEQvYigMQIbJtssslYvyfiWCkF6sknnwyfikH0LTamI0iefPLJIbU8PFdTKqbVQn6w3uVBehSOCUbBpntWyHnPDAEtslaCUlRbrrUmLWCjRCAkN7QOitRfz5493TbbbOMOP/xwd/rpp5vwm400x3Ugr+xJI9hBKYWhMaDIESAEGpsHrDQEjShiAWpon2xK8tpl2sIVob2UsvwS6KGIAglYPQnigUWLMYNrphWbSuNeOeI7qRgP07BgwH0q/V4IIYRo7jRLBYqob1hUmODXXntti4a1xBJLhG+bhig0EVkrDZYlXH7ywPUPa9nll18eUpzlkxfV4uaFxQQ3HFZk865BxKy4SoubWlq4JqJWNSCI4hqDWxf5ef7558M3pSG0OSvQeQJZVpEcF+CqhWtZ1goIuA3xPaAIoDxtt912dgzpdz0RxSzS2HJtKAi/WWsECgNCbhrqIG1Zi7BSH60DpahUf9wfxemQQw6xSI2RbFkh0CI859U55Y77ZGOUimw5APnGUhqjI9YiD5QHynUWFIQ0RftkU9LQdkkfyGsvvO8M9zjKoChYoXCN5H1PvEg4TaVxrxy4N2KFz46lWBEhHT5eCCGEmBBplgoUfvfHHXecvRTyueeecxtssEH4pnFEQTNP4FxkkUXs/yjAYT3CqsS7UBCGCWucBleo6OPP/qxfMi+HRBhkJRYXKqwkhAtOC2Z8xvUvusaheBEiOV5z1llntf8rEV2x4u+wzLC/C6tM1hWSc3muCOdx32zYY1bDo6DPb+K105RKzyObx0j2GgjT7M1IK6Tw2GOPmbWG8OJA3rIuhV9//bVdC6E87cLI8xGiPlJNueblN/1/JO9c6h7LSdoiwsuMaRcoUhEWCmhzfJfmxhtvHL1vqRSV6o88Ud/psuIYq1WsX8oK1y9C9xNuPJ1fypTw4ywIRHD7WnTRRd2AAQNCSmUQ7LMKwnnnnWdhueM+pGryUAquyd647L147xbE6xbtk7Ge89pBXhuA7LmlqNTfuV7eOEUIdNoV9ZAG193OnTubolkU3huF9fyqq66yBYk0Rca9cvC6hLi/LUIYe8LEpy2ghDNnT1dRt2MhhBCiOTBpFzaStAB4/wmCAgIZ+2VYAWdvyAILLGDfs5eEdPYu8Y4XLDlsdGeDPi55V155pa1uI4ByDhulcQFCEOUdKuzPQIlCKELo2HDDDUe7qmCNwvWG4BisonMdhAssA3HDNflgxRcBEKGGF3tmX0SZBQUPQZCVXValsUBxHV4ey+ov90DYYbWb52fPB+9zQqBF0EJAwqUL1z/evcS5CPKk8y4h8hvfXcSeCFyoeN8NTQZXRf54XlarS8H7ahCMKVve/UT54RrE+2QQArkuddG+fXurDwQsygChGYGWZ3j88cdtU3vcW8EKN65HrLqjWGGhxGUSxQAhDeE0uvRhxUQhwwrB8yOs5e0tiVCHxx57rNUxeaYcuR97RBBSKWsEdK5HXWINw9rHs/HHSj55mmOOOUxRQpkh3ywE0JZ4dxX5wMrGuZQpz4xgjGWI3/DstL3YNktRqf74f8EFFzQFC+Uh5oe2wH4W2gLlTttHgEZx4Fye7eWXX7Zyo92ng2bw7JQFdVhEWGdfEco87/9ijx79r1u3biZEo/CQx0jRPJSCcqZPnnnmmWbd4Z4oRDwf9UmQCs6hX1Xqk5XaLf2A9rfaaquZ0kdfpJ/wvPRD2mA5SvV3jtmrRn/++OOPbV8X14ptn/JhkYGgN9Qf9+Te5Jlyo+0VhXxyDaxaWQWKMaPcuFcJ2hXthP5EH3zppZfsWvTjdBAJ+jZlhjLdGCunEEIIMS5pUS/SLQKCC4Iebj5sxk/DijAKw0ILLTQ6OhWCHumsaiNsIWggHCGA5IHghdAcBaIsfM9+j7gnZFzBqjZCffrZxicoAyhWCNooVnlQVpQ31p4oOKIoZAUx6gghmJd6Uk/jEpQi2gxCPNYnFEasLURVo57ToABSD9mXjxahXP1hzaAsEVzTQSfyygooV/IaI7/lgWKDslEN3I9ro9SlFac8iuShHLiCsriBKxkKCi+d5VoErsjem3uV65NNCfduaH9n3Il1Xqk8S8E1aAPllJe8ca8oKLEsGGBhw3WvGgVPCCGEaK5IgRJCVAX7s+6++257DYAQQgghREujWe6BEqIo7G8h5DcWFjFuwBU2HfK61rCmg7UCV0ohhBBCiOaGFCgxQRODRqSDAYimA9c49uSUCyneWFCgcBvDPVMIIYQQorkhFz4hhBBCCCGEKIgsUEIIIYQQQghREClQQgghhBBCCFEQKVBCCCGEEEIIURApUEIIIYQQQghREClQQgghhBBCCFEQKVBCCCGEEEIIURApUEIIIYQQQghREClQQgghhBBCCFEQKVBCCCGEEEIIURApUEIIIYQQQghREClQQgghhBBCCFEQKVBCCCGEEEIIURApUEIIIYQQQghREClQQgghhBBCCFEQKVBCCCGEEEIIURApUEIIIYQQQghREClQQgghhBBCCFEQKVBCCCGEEEIIURApUEIIIYQQQghREClQQgghhBBCCFEQKVBCCCGEEEIIURApUEIIIYQQQghREClQQkzEfP755+6+++4LR03LE0884QYNGhSOhBBCCCEmTqRACTGR8vrrr7tVV13V3XvvvSGl6bjiiivcFltsYfcUQgghhJiYkQLlSZIkfBJi4gBr0D777OOuvvpqd8cdd4TUpuHUU091Dz74oClPe+21V0gVQgghhJg4aZEK1H///eeuvPJKt9FGG7ldd93VnXjiie6MM85wTz75pH1/ww03uFdeecU+i+I89dRTZoWoNf/++6/bfffd3cYbb+z+97//hdT6oARTh8OGDQsptYXrcv0JQdmmvD766CP36quvum222SakNpyzzjrL6nW11VYLKWN45513zMr1+OOPu6WWWiqkNj0nnHCC22yzzawPZ8FlsXPnztbPG8L3338fPo3h119/dX/88Uc4EkIIIURLpsUpUF999ZXbYIMN3AcffODuvPNOW50/77zz3Omnn+5++eUXd+GFF7pjjjmmwcJXU/D111+HT82Xzz77zO20005urbXWCilj+PHHH90888zjLr300pBSHZNNNpm75ZZb3Mwzz+w+/PDDkFqfww8/3KwuW265pRs+fHhIrQ0IzlyX6x966KEhtflCee29996mbDa0zNNgYUKB6t+/f0gZA0rTEkss4TbZZBP34osvhtSmhz5LW3vzzTdDyhiWX355y+spp5wSUqoDZX3++ee3Z0YRW3vtta3+hRBCCCGgRSlQv//+u1tzzTVd+/bt3WWXXWYCeZrtt9/ezTDDDKZINSeuuuqq8Kl58tdff5mgee2117rjjz8+pI4BgX622WZzbdq0CSnF+eSTT0wYfu2119yUU07pfvvtNzvm/wiWoQUXXNAEeKwl+++/vxs5cmT4tnFwnf3228+deeaZdv1FFlnEdenSJXzbPPn000/deuut56aeemqzDKHY0var5YcffrCy5u+ff/6xND6nFXpc97baaiu3wgoruEMOOcR169YtfNP0UBd5LLDAApbPAQMGuAceeCCkFodxgfb0/vvvuyFDhrgdd9zRrNPTTDNNOEMIIYQQLZkWpUDhqgesqJdi3333de3atQtH45/Bgwe7n3/+ORw1Tx599FFTSLfddls7RqG67rrrzPIEM844owmzDdkfwzWIJMcfblRcm89//vmnff/xxx+79ddf3x1xxBF2vO6665oV8ZlnnrHjxvLss8+6Cy64wBQSwNK14YYbmgWzOYL7HkpD7969LbDDI4884k4++WTXs2fPcEZxULpi2Ue3Nj5HN0nKgM9Ygc455xz7H8sNZTYuaNWqVfg0NiyE0C7fe++9qq3JPMPTTz9tiihWRxTDKaaYInwrhBBCiJZOq6SFRFBA2FtyySXdUUcd5S666KKQms9xxx1nq+prrLFGSBl/oNBNPvnkzd4KlQYBGkUGt8haWmtQfLEC1Uo5EsVhfxuur81puOjVq5e5KUZFvVaw0HLuueeGIyGEEEKI+rQYBQqrBIoRG8wrbaxn1Rp3nfnmm8+O//77b9e9e3fXunVrEyBZdceta9ZZZ7XvcS9jtX/o0KGuU6dObuedd7b0I4880tydcD277bbbLI1zL7/8cjsXZW6mmWZyb7/9tvvuu+/sPrjAoTCRhsKAJQHFD4UEcMfCDTHy0EMPuXfffdfctdiHdMABB9ieFOD+X375pbk0HX300RbOGovNsccea3uS8iBfuMSx4s4KP9YjLBiAix6KKGWw9dZbuw4dOlieCciBmx4r/ZQN0d/OP/98E7gXXXRRs+Ag5LIvJ1qpKsF1r7nmGnOhw/VvjjnmsKAIeQoU6VgMsDpgoZpzzjnN7aoSKHoEDCFv5BGLA+U+++yzmxtghL1yuLNRJrh3EswClzXAKsaeOa7BXhnq/+GHH7Z8UNYI47GdRDiXMuO5uG7Hjh1dv379zHo0atQoC5BQCsqDPPOsWOH4GzhwoF2PdgO0Jc6hbVEnuN8dfPDBo78vAv2E/Wa4s00yySRu7rnndptuuulYChTlcckll1h7Yn8h+aLd0XZuv/12s4DxvHfddZc9I+3r22+/dfPOO68FcKHNopzxHF988YW1+emnnz5cvTylFKhbb73V/fTTT5ZvLGb0KVxIi0KdYVHDhY/+u/LKK1s/EEIIIYQwUKCaI16YSq666qrEC6+JFxpDasPZd999kfySl19+OaQUY/jw4Un79u0TL7SHlCT55ptvEq/EJF7RsmMv9CZe0Eqmm2665KKLLrI0GDFiROIF8WThhRcOKWPO9YJm4hWZxCtA4Zsk8QKqpaXZYostEi8khqP6eKE/8YpM4oVkO+a6XtBNPvnkEzvm/vzWK1/JeeedZ/f2gmDilT37vhRemE3WWWedxCte9jniBd9kscUWSx5//PHEC/vJ77//nqy++urJSy+9FM5IEq+wJe3atUvOPfdcOyZvQ4YMSWaZZZbEK46WVgmvVCSrrLJK0rdv35CSJIMGDUq80mL5SuMV08QrZfXaiFfeksMOOywclYZnoKy8YpF4oTl58803k27duiVt27YNZyTJgQcemHhhOhwldh+vnCU9e/YMKUnilYhkvfXWS3bZZZfk0ksvHV0f5MML3/Y5wrnzzz9/0r9/fzumLXmFIfGKaeIVgeSFF16w9FJ4RTjxSng4ShKvqFm58D9QTquttlrilRk7hueffz7xyp21h0qQd6/YJF26dAkpdXneYYcdrP+k+f777xOvICdegQ0pdfmjzMArbkmfPn3sd17JSrxCZunklfbfo0cPq78Iv6UPFOXee++1dpWGtu2VtXCUWFv1CrWVbVEYK04//fTkueees/a8zz77JN27dw/fCiGEEKKl0ywVqH79+iXTTjutCV78ISCmBfmG0KlTJ7vWgAEDQkoxUGi22WabcDSGrl27JmusscZoYRkWWWSRegoUcF5agYqgiHTs2DEc1YHQtuyyy4ajOkopUAj+U0wxRfLWW2+FlDpQ2NLnI/i1bt06+eijj+x46NChpkhV4oknnkgmm2wyE/AjKA9nnXVWOKoTeFEmslx44YVJhw4dwlEdKFVFFSiuud9++4WjMRxwwAH1FCgUujZt2iQDBw4MKXUguCNYpxWwcsw888wmNANl89NPP9nnRx55xJQprpcGRQtF9LvvvgspdXmbddZZ67VTlG7a3LBhw0JKklx99dWm5KbZcMMNRysdlaAvZJUslGPqhra46qqrmhKXZauttjIlsRJXXnmlKUXpdg0sZPAsafbee29T4NNQJ7QblHlAeeZ3KFBpaB/0gXRbvPvuu+232XuXIk+B2n777ZOllloqHNWBAnXjjTeGo8r06tWrXp2j8HEflDEhhBBCiGYZRIJIaulQ1G+88UajXwaKCxjgQlQNuEKtFwIIpPGCvHvppZfsfTuRSSedNHwaQ6mN7qR7ZSkc1YGb0IgRI8JRee6//367X/bdO1yT8opwH9wRY8Sy6JJVCQIz4MJ40003hRRnwQl22GGHcOScF0rruRNGcGV77rnn6oUcL1UOWXAJ84K0uf9lmW666cKnOnBJxC1tmWWWCSl14E7I/rV03stB3gh9DZQNrm9A3fMsXC/NcsstZ65x6QhvXMMrBG6qqaYKKXX1Cek6xTUx60rHb3D5K8Lmm29u4bW9wmX3pz3jnol7Ie9kIvpcqfZapDxw06Tus/WVLXs/dlg9rbLKKiGlDvoZzz1o0CA7jtfJa+vUW7otUu64MeJy2FBwJ8RdMEIgDNo8rpJFwc00Xee44K6++uoWOl0IIYQQolkqUDHKVxr2NDSGuIeI/U2VQDFi/wohjImAlxUeIaaxZ6ah5O31QDAtAsoJeWBvFe9Iin8oS6eddlo4q462bduGT8VB8GWf1/XXXz86ihn3REkAyoZ6yiubGK68SFlnieVZZM8KCkPe/YH0auomr4yqvX6pvTvpOkX5QZhnvxCgLBChkL1TRWCPEHv5CE/OXr655pprdMAD8gt5eSaNvVHlFhCoZ/bTFSl79jGxyMEeo3T744/9hksvvXQ4s468silSXtXCXi1C3++xxx6WD/a5UcYoZkXg3Lz3iLGP7a233gpHQgghhGjJNEsFivcxpWF1HcGzMRB6mlVwgjJUAusJm9xZEcdawAb3LDGtkrAZlY9awftogPwBgmL2DytFmiIWpzz23HNP980331goZwIsLLzwwuGbOgsCFrA8ixkvnoVqNu5HYsCFIlYIgj3k1Q2QXs3988qoltePYNWjjrCyEriCF/Pysts8q1EeKAcnnXSS1Qd1g8UFBeqFF16w/EJenknDklJKaQHKAGtNkbKnnrge1rhs++MPRWZ8QMhxyrNr164WLIUX4E477bTh28qQ92iNTIMClmdhFkIIIUTLo1kqULzThyhurGLjQkUkrxhZrqHgkoNLVqUw2LhYcS7CYXTd4f02WXCTw9KSFrZwxcquniPkNgbykr5mfP8QAjeWDCwBWV555ZXwqXGgIBBtD7cuXAbTEfR41tVWWy3XyoP7FgpW1m2rCLga4gZGBLQsWWUUtzTKIK+MqR++bwz8Pq/uiRaHRZQohNWCFY9yoUyxJF199dX13CIrgeIVIdog0fWI5kiEuxVXXNEsTaXaK26NlSLx8UxFyp7rrLXWWrlWGcom7do6rsDiSTRCXO2iGyak36PGGFAOyg8FNQuKK9H4hBBCCCGapQKF+xjCJYI41qC8/TANAQGTcONYVvKETIREVvM7d+4cUpyFLydUeFpIR8nCtY33SaVXtxdaaCELGx5hJf/ll1+287Owoj1q1KhwVEdeGopj+prRQoMwzGo571pKg2sYYb0jXLPovqo8COeN1Y5nQKFMQ9kQ7jodRppnRim4+OKLzZ0wQj6K7PPBCoIFgXpKn89eFtyx0mWJWyZh3QkLn+axxx4zawHhxYtQqowIf0199O3bN6TUwTu5CMGNch8pVZ+QTsfljmdDIcUN7/nnn7cw5EUtlbTbrILMs7KfCIUetzXKP21FIhQ3z0C5VgLlg3KOinqEPgDp61L/99xzjykXaSif6BKZVwZAevwuUurcUmSvES2fWKwjuOLy+gG+wwpXyRrLIkG07kZ4PvrUmWeeGVLq9lJifevRo0dIEUIIIURLYdIutXzT6QQAShQKGe8qYq8TSsFvv/1m7xG6+eabzQWIlf0IVhhW5U855RTbG4EwhevVLrvsYopYGt7XxAo3q9hYKR599FGzNvTs2dP2pyCYsQ+F9yxhMeAc3oOz0UYbmbDOe20QdtmHgqCNGxRWOBQEBGx+g0UsCqe4NWJZ4HcIhjwPAjZWCY65JoEWUKrIN/uWVlppJfttUXiHFO/zIc/ZfUJYiigb9uVQhtwDpZJyiXt6yB/fk3f2y1CGlV5Q3K5dO1MUUcJQULEaItSjIKDMIRRzziyzzGLvUOI7FASUqwcffNAUEwIJ8E6icvA7ngsrGtek3FFY4++wsqCgUd/kHcsKliOsgt26dTPFhaAXuIr16dPHypn6RJlBsUDBoL5ff/11ux5tAeGevBIUBddIBHAUG+qY61K/5aA+abOUNWXOO6dQavbaay/7nvrlHpQdbQYFnmtjmUHgrwTPvskmm5iygOWT+3BPXA95RoJUcA574Sh/3onFe8KoV6yBtEV+v+CCC9r7s1DoKBcsUijEuBli4eHdT7T/wYMHmyUTpe+6664zxYR3pWHhLGd1Pvvss62/Ur4oe1ic2rdvb4owz4rShLXv+++/twUR6gJrLe2ynEsfbqo8J+2Va6Dg8l4r6ojgGhEU+ssuu8yCaMgyJYQQQrQsWsyLdPNg5R/FBkEZIS678pwF4Q4Brdx5CK1YjBBqcUfDfYhgC+wtYf9JNrpZEbgmAigKVZ7wx4o9gij5ylqJagEviy23dwaKlE1D4Ll4ZhQqFMCRI0easBwDVUQoA/YF8UJXXipca3g2lFusjA3dC0MeeRktim1aGKcLoiSy9w931XJKbqwLlDmUg/nnn98E/TxQUFDm0+5s1YBChOWGe6AwcD+uhXtm1pJD/aMgja+9T2nIM4osCj79DrBUoaAWBYUZSx/Py9hQqf0LIYQQouXQohUoIcYlWERQkkpFByTqIRaovffeO6QIIYQQQojmRrPcAyVEtWD1w4USF7KmgD1Aiy++uFm5GgoWSdzr8oJ8YN3B3ZFokUIIIYQQovkiBUpMFOCiRZAAXPyaAq7LX15AkKLg9sZeO4JcsPWQPT/s4yFwA3vH2CuHC6IQQgghhGi+yIVPiPEESh975Zpiz5YQQgghhGgapEAJIYQQQgghREHkwieEEEIIIYQQBZECJYQQQgghhBAFkQIlhBBCCCGEEAWRAiWEEEIIIYQQBZECJYQQQgghhBAFkQIlhBBCCCGEEAWRAiWEEEIIIYQQBZECJYQQQgghhBAFkQIlhBBCCCGEEAWRAiWEEEIIIYQQBZECJYQQQgghhBAFkQIlhBBCCCGEEAWRAiWEEEIIIYQQBZECJYQQQgghhBAFkQIlhBBCCCGEEAWRAiWEEEIIIYQQBZECJYQQQgghhBAFkQIlhBBCCCGEEAWRAiWEEEIIIYQQBZECJYQQQgghhBAFkQIlhBBCCCGEEAWRAiWEEEIIIYQQBZECJYQQNeLzzz939913XzhqOv744w937bXXuiRJQoqYkPntt9/cddddF44mbD7++GPXu3fvcCRaAhNT+xWiKFKghBCiBrz++utu1VVXdffee29IaRqGDh3q1l9/fXfxxRebIiUmbIYMGeLWXntt161bNzdy5MiQOmHy0ksvWR948MEHQ4qY2JmY2q8Q1SAFyqNVXCFEY3jiiSfcPvvs466++mp3xx13hNTag4Vrs802c9ttt517++233bTTThu+ERMiH330kdt8883dHnvs4d566y035ZRThm8mPLA6HXzwwa5Hjx7uhhtuCKliYmZiar9CVEuLVKD+++8/d+WVV7qNNtrI7brrru7EE090Z5xxhnvyySftewb/V155xT6LylCeDKC9evUKKQ2nf//+bvvtt3frrLNOg1byGcT57d9//x1Sxi0ffPCBubBkefjhh8Onccett97qttpqK7fGGmu4Tz75JKQ2Pe+9957bcccd3XrrreeuueaakDpuGDZsmPXlcbko8u+//5og8eqrr7ptttkmpFbmf//7n9tkk03czjvvHFIq8+yzz1pbOvbYY90UU0wRUhvO119/bffHonX++eeH1Hzol4888kg4qh24PHbu3NnGkVrz1FNPuW233dZWyOP4XpRatCXaxu677+423nhjq+8szz33nHv88cfdkUce6SaffPKQOu555pln3AEHHOD2228/+5/2nOWyyy5zhx9+uOX1sMMOcw888ED4xrm//vrLffXVV+61115zW2yxRUitHUX7ys033zx6zGOxoSjUMXVNnTcn1H7HHccdd5wtTm266aYhZcKiUl1Bc2jn3bt3d1tuuaVbffXV3S+//BJS82nsnNNYebIivkBbFF9++WWy7rrrJoceemgydOjQkFrHPffck1xwwQXJDDPMkLz44oshdfzjJ6bwqXly0kknJQsvvHDy6aefhpTG4Tt3MtNMMyVXX311SCnGTz/9lMw///yJn9xDyrjn119/TfwAEY7q6NevX/LEE0+Eo3HLyy+/zOyZvPPOOyFl3PDHH38kCyywQNKlS5eQ0vQMHz488YKT/R188MEhdWyaoj+NGDEi2WuvvZJu3bqFlMp4hSHxAmmy1FJLhZRicA/uxT3zGDlyZPLDDz+Eo8p44TdZeeWVk0MOOSSk5HPFFVckM844Y/L++++HlNowePDgZNFFF01OPPHEkFJbhgwZknhlM/ETaEipTNG2VIRRo0Ylu+yyS+In8ZBSH+ac/fff3+phfEJ7PProo5PZZpstWXXVVS3faf7555/EC/TJHHPMYeMJ56f5/fffk06dOiVXXXVVSKkd1fQVL9TbmPfBBx+ElMogD8T65jmaE2q/1eGF8mTXXXe1NsyYxTj54IMPWruoxJlnnpnMPvvs4Wjc8v333yd///13OGoYleqqubTzXr16WR/NyuBZajHnNFSeLEKLskD5BuPWXHNN1759e1tNm3nmmcM3daCpeuWpolY8rvETUvjU/MBtAy2fvwUXXDCkNg7qoG3btuGoGKxe77nnnu744493l156aUgd97Rp08b9+eef7rbbbrNVHlborr/+erfBBhuEM8YtiyyySPg0bmndurWbc845w1HTg+89q+d+AnQvvviiPbdX3sK39al1f/r000/N2jb11FPbauxOO+1kY00lWrVq5RZeeOFwVBkvFDk/OdqqNNYnVtXyrJ0ffvihe/rpp8NRZXC7mXfeecNRaQ466CB35513Oq+8WV5qhVe0bfwYMGBAPatGrfACkZtuuunCUWWqaUvlwOrLc2GVoYzZaM8x/8Ovv/5qrpj9+vVzXvCxNlSN1aTW0B69sGJWY/LZtWvX8E0dk002meWRcbZdu3Z2fsQLOPYdY/f9999vFkXGwVpRTV/xynj4VAxW5Jm7qOuzzjrLeWWgWe3lUfutjp49e5oM0LdvX8sjlkvyjBWvEuNrvoS77rrL/fzzz+GoOirVFTSndl60j9ZizmmIPFmUFqVA4aoHp556qv2fx7777muTQ3Nh8ODBDe5UTY1XwG0fxmOPPea8hh9Sa0N6ci7CCy+84I444oixTNe4dHzxxRfhaNyAexWQH1xBMVmPL6otx1oyLu+Na9sFF1xgkzjgarThhhuaS2WaWvcn3CYQ+llIuOKKK8zd4OSTT7ZJvAjVlNHdd9/tTjnlFLsXe634H2H1n3/+CWfUwSRaLUXzgXvITTfdVHOXVCa5Rx991Nw/WQypNdWUc9G2VIkff/zRBEr+EORwc+NzVCxoI+ecc465PrPIcs8999hfUzx/NeACh6LOPJmnoE8//fThUx08F3XXp08fG+sQXBn7EAhrSdE6rKaueT7cV8kvrLvuuu7CCy80l8bmhNpvcXBBnWWWWaydIvOxiNmpU6fwbXmqKeda05BxO1KprppbO6+mnGsx5zRZvdYZoiZ+MAH6QjQXhUp4AbjZuPDts88+iVcKwlHLYfHFF2+0yRV3TZr4brvtFlJaHpjIKYNx7cIHa6655jh14StCc+tPl19+edUufOXAdXKZZZZJvHATUoqx/fbbV3Thm5DxAlVVLlC1xiu+Jd1qmhNnn322/e8FsqRt27bJWmutNZar3nnnnRc+jVuK9pXvvvuuahe+5o7a77iBcXN8uPDRVqeZZhpru41lQqgr5BH6aCUXvlpRC3kyj1b84x9kogdtm02CbFiutNGbVVDfmN18881nxwQkYGUNtySKC9csTOSzzjqrfc/KAavPhBdmpSNudGVjJZu0Mani0gWc6ycCO/eoo44yyw1WHN9x7D64oLEZkzRWAFllXnLJJW3FAHAPwg0x8tBDD7l3333X3Ic+++wzW31ZYokl7Dvu75UIc5HxiqNtomMlAgvJPPPMY+eUgmAMrDDNNttsli/cJzDXRyqVSSUqXZ9nYLVk5ZVXtnMpr3T5wO23324rn3yHyd53ErM24bpAGiZ7/qeMo1WIMqBsWfFmdYbVjRVXXNG+y6NofUVw3WK1ZJJJJjHzOSsf/I42EKFeWQ2k7Fi5w7LAitGgQYPMPWb55ZcPZ9bB6hJBT3AP/OGHH1zHjh3NbQLrB64TJ5xwQjhzbH766SdbjfMDVj3LatH6IxAF1+B5WNHieamzLJTHjTfeaK4muPqsttpqttEc18XTTz89nDU2rJYdc8wx9ozUF/2HlSae7fvvv7fgJLRVVjkpT/omfYHIT1kw9VM+uLfhhkvdrrDCCvZd0f6UBRcHgsrE9sLfwIEDrT5ivfPsnEPbYPUVixDRyIpsqmbcwJrEqj15I++0NTYyL7300uGsOnDLi5GucNPDrSHdVrCEeQHYwqkTICe6SWC1yquzNDvssIO5CkVrKW2e+qZtzD333DaWEJqaFWbqCjfIci67lDUh1ieddFJra+SLtsGKJ9ehPdEeiVxYtI0RpIMyoC7oL7iIEqykCLhwUM60Te5Fnng23FjIY5ZybakSXBs3ONoOfXaOOeawvOM6k13xLTd+540TXPObb76x1WRc0bkmYzoBHIjIyJhJOTaU//u//zMLKnA/+gdtwivXlgYEG6GO0tDucYunfKl3rLwnnXSSWQGqmR/LEfsKfRnwfCD6JWMsZU4YbZ6dcYO2jFshrk20V4JiLLvssrlBKCq1q3E5XpdC7XcMjLdRduDZeEbq+qKLLgpn1MlwlMFcc81lLtZrrbWW1UMlsJqSB8ahmF/aW149U061mEPPO+88a9v0BcZ0ZE/GSqx7laimrmrdzpnnmCeANk8ZI39Rj8zh1FEpaDNLLbWUtQX6MTC/Iwemg9DkzTnVymRQRJ5sEL7imyW+Imwzqu8Etim6sey7776m8bKpvhrYjOk7euIbY0hJEl/ptrruO6kds3HPN/7EN/rEd2JLAzYvsrnSN4qQMuZc34jN0uUHoPBNknihydLS+MZUcsWczZtbb7316BVCruuFncRPGnbM/fmtFxZt1ZB7syHPd1b7vhReEEu88GZBGSK+c9nGPyhSJuWodH1gxYBgEF5BCiljl0/cHEq9DhgwwNIoCyxPBJPwipHdK5aPn7gSP2AkfiKzY/7fcsstra2Votr6or69cBuOksQLI4kXZsNRHV4It/TFFlssueSSSyzwBPTv3z/xwkS9cvEThD0L3wHl7IUSW7Hyg0rywgsvWHop/EBh5ZO2QBWtP9qJn1DCUZI8/vjjiR907b5p/GCdrLTSSomfHEJKktx3332Jn0gKWaB4xvXWW882v3pFeHR9eUEt8YN2cv/991sdAOd6IcICc6Q58MADEz/hhKO6QArUNSuKacr1pzywWPsBOxzVBVzwgsjoDdN+ckm8slgvMMXzzz+feGWwZJCHNH4isJX+dJ/EisQ1/QQWUpLkzTffTPwEEI7qVtkp37yN0X4Ca7QFqk+fPsl8881nq960F6C/+Al4rPaUB/2G4DKcm+4PlMlWW21l4xGfi7YxL2An2267bb25gPZRNGAMK/hegEq8sBZSkuT222+3zdTZeiralvLwQmuyyiqrJF4hDil1bYQ2k10VrjR+lxsnpppqqsQLHslLL71kaUAfpEwaQ7RARcgfK+ME+ohQd2nIP/2qa9euISWxcZIxnjZTzfxYDvpK2gLlBS4bC7km5R6hb9DuKN/Y9uivjOGPPPKIHUeKtKtxOV6XQu13DMy7jJER5h1knMizzz6beIHZ6gJogwSUKPL8nIMF6tprry1bz7WeQ5FfaLO03aJUU1e1buewzTbbjK4vyphARNddd50dI3eVI1qgkJ9iXdKOvAKeeKXIjiFvzqlWJoMi8mRDaJYKFMIRQgCFxh8NgsptDEQH4lpR0C4KBUxDycJkweAVBw9YZJFF6k0QwHl5EwSNlAExzemnn54su+yy4aiOUgIfg9QUU0yReG06pNTBhJQ+v3v37knr1q2Tjz76yI4RqGmApaDTMICguKZB8YoNu5oyyVLk+kCD32yzzcJRHXnlQ4SivHrdfPPN65XDK6+8YoJ3FMRh4MCB9tvevXuHlNIUrS8murQgSrlzj7QAAjz/5JNPXk8RYHAjDYUhgtmZSSnNhhtuaJNkEfIUqKL1h1CddZlh8L/xxhvDUd1EQrQ9JvMslFlRFz4GThSCdD9nciLv2WsvueSSyVlnnRWOEhOKUEKIEpYGpYN2lZ6UqlWgGHuyQg8CJHVFOTExo/RlQUkoElUuKlBZEALIO5GZgPMoi/TES6Spzp07h6MxNFaBYqJE+fn555/tOA33z7anUiDAMPakFUFgsSRSpI19++23SZs2bay/pqG+6W9pAaIUnJe3cISgwbNGqmlLeSCo7rfffuFoDLTvtFBTdPwuN05k73PQQQcl66+/fjhqGFkFivGV52aBI5JVoHr06GFRrrLjPpEV0+2wmvkxj7QCxRyGkoDAmCWtQKXp0KGDRfKLVNOuxtV4XQq13zpQmhGc+T8N0fOA52beyUZDveOOO0ymqATtla0eleq5lnMoNESBKlpXTdHOWRAgv1FZhv/7v/8zxbUIUYF69913Q0od1CsLLek8lZpzispkUFSerJZmGUSCCCFeMAtHzr3xxhuNfjklpk3AdFcNuOb4ySMcjcE3UHvrevp9GXmm9FKb10j3lReO6vADnBsxYkQ4Ko9vzHY/3zlDSh1ck/KKcB9MwjG6DJEHy5nIiSLmO7G5YKXxHdyiuEA1ZZKlyPUjWde6vPIpV75pcBHBnM9fZJllljHXNt79UImi9cXzYQqP4F4AuFOk4Xp+kK1nFudc6ip9TczMfvAKR3VMNdVUZlpvKEXr75JLLqm3ERz3RNpP+ll4NwmuG3lRBnFDKArl4QdEe7YI5QvLLbec/R/BZJ8uI54H9z/cW9LwO8oY17aGgqugV7qcF4DsOowfuMNSV7Sd/v37lyxLXDmLgJtTFtwKGQNxYQBcGXHL8BOeHdMucJXItqvGgosJAQT85DK6/NOU6m958Fy4gF177bUhxZnLxvzzzx+OirUx3G7pA/TXNNS3F1YaVc64chJoJtKYtuQVRnN7KdIXqhm/S40TlfpFLcAVDtc4XH/S9ZiG+ltppZXGahvZZ6lmfizHn3/+6bxg6rbeeuux3FzTVJo/qmlX5eqhqcfriNpvXT6oL36LazIBM2gPMUAY7lm4N6+yyip2HCFfpBfpH8hHleq5lnNoQ6imrpqqnUO6rTeknWfbNHlnLLnllltCSukxgvQiMlmkiDxZLc1SgcKXNMtPP/0UPjWMuOcB39hK0AHwyx0yZIj5cmcbJMS06I/dEPIGRK/Uhk/lYTAgDygGNLb4R0M/7bTTwll1tK0ihCPlQ8PM7pHC9xSBrbFlUun6aRpTPlm4b9zTloZ9GHkTex5F8oMSgM8uezuuuOIK2y8D//77r/2fBr9xBqcs6WsivDPY4iMO//zzjymbRaMKZamm/uaee27bQ4Dwzh5CJivun36WQYMG2YQTBfvGkFe+UKncUWTyngdIb0wfRRlm7ySK8TbbbGMK+LnnnmvfcV8oVZYsFFS7YBOhTTLAx3vQN2gv++23ny00IAj9+uuvue2qoXAvBIN+/frZ5FwLDjjgAAu7zj4EoG+w3ypSpI01Zf0yNn777bejIzM25l7xu0r7zaCa8bvUOFHL8bEchCTfdNNNbR9pHIfS8CwITunn4I/Fhx0L7lErCgIoC6zs7b344otDaj61HjfGx3hdiZbYflEIUF7Y+4Ncx4IMESCBfAFjWDpf7Jvh/6xym0eleq71HNoQqqmrpmjnLFywr4hFvQhyMy/ybSy0afJchGraUFOMl81SgWJ1KQ2VycDUGAjjibbKRu1KEPaS96KwIkKHY4UjS0yr1IDR5mtJfBt5fG8LHTP7l91gX2lTZhpWHGlUeUosNLZMKl2/VmQ7BvdtrBJeCSwGDOhYZFitJZAAm2UbA0ofdYrQcMEFF7hDDz3UAmbkrX4VoZr6Y+M49+ratasJT7w9PKvksmGWNj5q1KiQMu6hbvOeB0gv1x4rvd2fyY/N8CgAWE9YUUSBImw+94VSZcnm+LxBuygoSHOGd2n17NnTFDhCEmMdQjCtFAgmUukZIyxi0M5i0ICvv/46fNNwVl11VZts2ZRMO2HFLz2ZF2ljjanfSrCSi9A3wwwz2HFj7hU3jyMgVaKa8bs5gLAK+++//1hjK89CueU9S7kAPVDt/IhwxzuNENzxSnnooYfCN9XTFO2q1uN1JVpa+8XygRJ93XXXWWABFkYJDILVHCU+5ot3P2XzhXBfRIGqRK3n0DxQwMt58lRTV001flKmzIO09ZNPPtnG+bT3TUOhTcd5r7nTLBUoomWcf/75ViGYox955JHRkV0aCuZKVlfzopOkoYNyLsIPf6uvvrp78803w7djwExN1JO0qRMTZnZyQehqDOQlfU2ipAADMitdrD5l4d1DDYVIKihceStVlEO1ZZKl0vWrJSqHlcq9Q4cOJgTnmWwbct88evToYfVD241WrbgyCKyKFbGApmFFDcUfhQxLCJGY0iv41VK0/sgnkaTOO+88mzAi6eehP+FqRh3Edpmm1osHpcBtIu95iAiE0kzdR0r1p1IwOUQY1FGKifxDXSIcogyUKkvcI4pM2Nm2C7TVkSNHmkLO9yhOTMZpl5lsXUSqfcZInLSwOKD477XXXrl5qxasULiJEDGT6ICRom2M+mWsyxtLKWe+L0Les5AH2kccR6ppS1lwk8ZVnIhgWbJ9oanG78ZSqr5R1llBJ2JWtj3xLLhO5ZF+llrMj1i6WVBdfPHFbZzFIttQK2+t2lWaWo/XadR+67yTLg+R3wC5EAUFlz5kCuYulMm89kh00uh61hhqPYcCYzbEOqZs0+dlqaaumqKdA5Y4IuOhNBG9k4WN+BxFybZp8s74QvuaEGiWChQuXgw+uAdhDcrz82wICDy4VRGSMa/xU3msLiNARFiNZZUr3fjohKyoXnTRRfVWExZaaCFzLYiwOvDyyy/ndlpMuNlV+7w0Boj0NePKA8IZKwCsRqdh5YJwlRGuWY2fJ/dDUCOEZrpxs9rDs0A1ZZKlyPWhaPkwobLKz2p9BPdLnjmdhksd9866fbA6T9jdShTJD9fJCsy4b7DCw3cM/qygQt71IJuOyxhtFp9z3Mief/55cwvMDpKl4Hrp/6FI/cUySZvyKVdCnPIdK1dM2rhA/u9//6sXQhYY2Dm/6ISVVx55eYfsuYQi5bhv374hpQ4G91133dUWYSKl+lMpGCeyAgHKMf7kTJQIlQhJ6ZVALDfkhYm9CFgus0Ipky6r/fjy82ysrqbrgmMEolhPKFuR9DMS0jnr+55HtkwJSU1byz5DrItqfN132203WzWmPvBvjxRtYyiR7KVKC06AME9dEAa/CLjxpEFJRalLP2M1bSkLeeVa9Nd0+fDsuO6k+0I143e6XiKkx7qI5J3LYiFKd96CVR7cmzaTB8oKgk32HuwJ5Nl5rUQa3EzT51YzP+aRfT7mEdx9yFd6Lonlks1n9vfVtKu8soVsetHxmvmOBWLGjqK0xPabB5ZHrBRpWMgiBDZzF9YeXpuQzi+fcf1LjzV5lMtvOr2WcyjwygmUj9g/mEPKLURXU1dN0c6BMYWFMdoa92Q/cClLVx4ooliw0tx55502r7JgGOHekJ1z8vJUTf5LnVsNk3qtsUv43CJAiUIhQ6DGZ5NKJP48m2TZjMmgnDYfIvyyasOGRQQdXHowzWMyRhFLw/tlWFGgM7Piw+DGahTuN/h0Yl5mXwR7GFjB5hzcvViVZeDjXTd0HGLkMxDjP8sgS8NnAOY3rHzEPU24NbKCwO/oUDwPAh+r5BxzTQYNBjXyzYpBWoApBfkhbwzudH4mAAZvVpK5bjVlkke56/M81ZQPyjblSkfmmGtxDgMslkuOqW8GLdyeqGMGeDoOnZfn4R0ZpYjBLYrkh+vwHKTTBrB28g4uBFoGVlZgO3bsaFYN3g3ByikrliiAXJuuyKoVf6zsIaxQPgxQTBq88wQrFwMnbYIBl/ZQCjavoqhS/1wTIZv2X6T+6AMooaygUXbkE8GKxQUmD/KHXz8TBc/Nih/5Q4HEH53vKSsGVlwRaKvUVRbqCdcGfkM++Q0CP3tluA/9BeWC9s+1mbARSrgmf9QF5coEwTMQBAHFghVgyocN8NEaCOX6Ux70H8YIyohxgvdbIPhhnQH6E3WEYs41EQi5PuWW3SSdB+2FMuf6se2SZ1b8UaJon/zhXsc9uDcLAyj+rPzh188zt2/ffvQeP1Yn+S2blWk7uLikyyANAgBtmbojD9Qz9cnv6D/UH3WLKx4TbmxPnMdEhyWgEtQPeWSlMz3+VNPG6DfkhXwhHBBcAwGVNh7dl8rBQhz9jv7Pyi7PixsQ/Sn9DLSxom0pDxYUUMqpK/LNGEC+KSvcxxGgOIeFn0rjd6Vxgr7CmI4VGK8N2iZp1CPKCvngd8w/WEEYo0rBPjXczcgr+eS62VVg+i8COO2BPVERyoY2Rj2ycIKgQ3/GtQxXqkiR+ZExPA8WVBkTUBp4RoRlxgbaP4Ic8zftibGdRQ3aKOMDecGFCTdcnpHy4Br0FxazirSrphivGUtII3+0t0q01PabBcWDRQGuydxBuaO4s0Ujuosy7jKmc3/KgzZJvSLb0SZLUU0913oOJZ/0C1xlKWsUKZTUclRTV7Vu58AiAAYH2ibXQZmj79G/mENoc6Xgt8wLKIm0ZdopfQYrIUoUzwNpGYY88WyUd1GZrFp5u2qSFoyfCCw+vq+ksu8CivhKr3ieF8wTX0mjw4b7hmGhHocNG1Y2vHc5uKYfBJLff/89pNTHa9J2Pz8Yh5TaEK9LGMtSFCmTUhS5flH8wGrvX/ADsh2TJ/58Z7PjNH5Qs/dpNLQ+KkGZeIHA8hTxg1b4VBzKhxC4XlgOKXWQb9415AfPeu8oagiV6o/y8wJKvTeGeyE+fKoP6el2Srv3A99Y7ylpSihzP9Ba2ZWiUn9K4ydp+5/n9wNtvTrN4gWWsd6VUQ20Edol+cuD8vXKZL33bUFe24r9oVRdjWvIT6k+UE0bo16p38a0Ka805oZoz1KkLZXDCxKjw9B7wcPmBa/82nGaOA7WevweH1Bm5cbWppgfa0Et2hXXqHa89oJ0+FScltx+aT9x3PZKht233BjHWEnbakpqOYdyDv2hWqqpq8a2czj11FMTr5iEozGQj/bt2ydekQopxeCZJ8TxrxX/BF1KCNGM8AOdBVRhhTUPXFdY0dx7771DihBCiPFBQ8ZrrAe4QAoxIcH+K6zGeDlkwSKIpQvr6MROs9wDJYSoc8XCJSRvUy6uALhP4LogxoBfOi4tuBEI0RjUlkQ1VDte47pUxKW+oaj9Nh+wUxCYB3f18QmugbjS4r7WGFgoSAcuivz777/m9p6NpD2xIgVKiGYKfuT49rP3BD9kfN7xgWd/CxtV2TtQNJR1S4F9Xvzh5y1EY1BbEtVQ7Xj9xRdflI2K11jUfpsPKFAjRowYKxDCuAYFh0APtIvGQJAh9imxN5EAJbxWgD12KIjsgWPPVUtALnxCTCAw+P3zzz+jI/kJIYRonmi8Fi0BVIg//vhjdOCHloQUKCGEEEIIIYQoiFz4hBBCCCGEEKIgUqCEEEIIIYQQoiBSoIQQQgghhBCiIFKghBBCCCGEEKIgUqCEEEIIIYQQoiBSoIQQQgghhBCiIFKghBBCCCGEEKIgUqA8vC18q622cmussYb7/PPPQ2rt2Hjjjd0LL7wQjoQQQgghhBATKi1Ogfr666/DpzHsueee7uijj3Yvv/yyGzlyZEitHWuvvbbbYYcdcu8thBBCCCGEmHBocQrUVVddFT7VZ9FFFw2fas/JJ5/sLrvsMte5c2f3999/h1QhhBBCCCHEhEaLUqAGDx7sfv7553BUn1atWoVPjQeXwC+++CIc1bHjjju6Cy64wPXt29eO77nnHjdo0CD7LIQQQgghhJgwaFEK1DnnnBM+NR1fffWV22uvvczqlGWllVZyW265pVmhdtttN3fYYYeFb4QQQgghhBATAq0ST/g80fL222+7U0891fXu3dstueSSbt1117X0nXbaya255pr2+fvvv3ezzz67e//9990nn3zifvzxR/fRRx+5ZZdd1u288852Dtx+++3u0UcfdUOHDnWXXnqpW3zxxc3adOaZZ1oa+534f6aZZnLHHnus/ebOO++0608++eTuhx9+sIAVH3zwgXv99dfdaaed5o455hi7H7/t1KmTe/jhh91ff/3lPv74Y3fiiSe6WWed1a4TGThwoLvvvvvctNNOa+d16NDBvfPOO/a3/fbbu/XWWy+cKYQQQgghhKglLUKBimD9mXvuuXP3QUUFCjc7FBz2RBFQgjSUps0228zO+/PPP90TTzxh5wwYMMCtuOKKjiIkQAQK0Mwzz2zKWseOHc0tcP/99zcl66ijjrLfc02UnGmmmcb16NHDTTHFFO7XX3912267rZttttncaqut5g499FD7LXm599573auvvmq/Be5JQIo333zTzTDDDO6hhx4ySxbK3nvvvefatGnjFlhggXC2EEIIIYQQopYojHkOMaDElFNOaRaoxx9/3I5h6qmndqussko4qgNlZ5555nHt2rVzK6+8silXpD3yyCNmTTr88MPDmXXXPP300+2av//+u6VNP/30bpFFFnFPPfWUKVxxPxb3ee2119wvv/xix3DxxReb1QzlCTbffHP33Xffufvvv9/yKuVJCCGEEEKIpkMKVAYsSmlmnHFGN2LEiHBUR1RwsmTTr7/+erf66qu7SSedNKTUwV4oXO+wLkX47WKLLeammmqqkFJ3b0jfn/1TuAJGJplkEjvmekIIIYQQQoimRQpUBqxBWRrq5YhL3XTTTReO6oOrHd+nybs3pO9PNL9XXnnFjRo1yo7Z34VVa9NNN7VjIYQQQgghRNPRohWoJ598MnyqDVlFq23btmNZryJ//PGH7XmqFvZI8YdbYNeuXd1FF11ke7K4lxBCCCGEEKJpaVEK1GSTTVZPySESXkPAbQ6yCtM333wTPtWxzjrrmIUoC++jGj58uEXPqxYiABKZ7/LLL3dHHnmku+WWW9xyyy0XvhVCCCGEEEI0JS1KgVpiiSXcl19+GY5cvfDg//77r/0fXeMipGfTZpllFnO3I3pehJDjWJvSaSeccIJF7SM4RJru3bu7zp07uzXWWCOk5N8nL0/zzz+/O/74402RwoL24osvuk8//TR8O4ZnnnnGLbXUUrkKnBBCCCGEEKJhTNrFEz5P9Cy99NJmufnvv/9cv379LMADrm+8p+nCCy+0l+ASDpyADIQvP+mkk0z5+fDDD01Jad++vUXhI+DDvPPO62666SYLi857mQhjTrQ8Iu9xvMEGG9g+J941RTjyzz//3N4Pdd1111kIc6LpEVyC3/C+qD59+tj9P/vsM7fMMsu4e+65xxQtIuzxviggyh5K31lnnWXKE/e68cYb7fqEWicKYIzCR5579uxpIc/nmmsuSxNCCCGEEEI0jhb1HihAeUJJQvHhRbSNAYsTL9ElWh4KV7Ru8S4olKQ0nIuL30ILLTTaBbBaULC2224798ADD7g555wzpNZZqnDlQxGLL+wVQgghhBBC1J4Wp0BNyFxzzTXunXfeMctUHrxLqm/fvm7BBRcMKUIIIYQQQoha0qKj8E1o4BbIniesTFkIbY7lS8qTEEIIIYQQTYcsUBMYRA7kBb3s3SIM+j///GP7r9iXdfTRR5d875QQQgghhBCi8UiBmoAhwh/7nQjPLoQQQgghhGh6pEAJIYQQQgghREG0B0oIIYQQQgghCiIFSgghhBBCCCEKIgVKCCGEEEIIIQoiBUoIIYQQQgghCiIFSgghhBBCCCEKIgVKCCGEEEIIIQoiBUoIIYQQQgghCiIFSgghhBBCCCEKIgVKCCGEEEIIIQoiBUoIIYQQQgghCiIFSgghhBBCCCEKIgVKCCGEEEIIIQrh3P8D3pyxIPALbkcAAAAASUVORK5CYII=;" vertex="1" parent="1">
          <mxGeometry y="50" width="991.51" height="380" as="geometry" />
        </mxCell>
        <mxCell id="NwhNxAAmWLPMmotNrUEd-49" value="" style="group" vertex="1" connectable="0" parent="1">
          <mxGeometry y="560" width="610" height="240" as="geometry" />
        </mxCell>
        <mxCell id="NwhNxAAmWLPMmotNrUEd-42" value="" style="rounded=0;whiteSpace=wrap;html=1;dashed=1;dashPattern=8 8;" vertex="1" parent="NwhNxAAmWLPMmotNrUEd-49">
          <mxGeometry x="110" width="360" height="240" as="geometry" />
        </mxCell>
        <mxCell id="NwhNxAAmWLPMmotNrUEd-13" value="" style="endArrow=classic;html=1;rounded=0;entryX=0.5;entryY=0;entryDx=0;entryDy=0;" edge="1" parent="NwhNxAAmWLPMmotNrUEd-49" target="NwhNxAAmWLPMmotNrUEd-17">
          <mxGeometry width="50" height="50" relative="1" as="geometry">
            <mxPoint y="40" as="sourcePoint" />
            <mxPoint x="100" y="40" as="targetPoint" />
            <Array as="points">
              <mxPoint x="400" y="40" />
            </Array>
          </mxGeometry>
        </mxCell>
        <mxCell id="NwhNxAAmWLPMmotNrUEd-14" value="&lt;font&gt;rst_pc&lt;/font&gt;" style="edgeLabel;html=1;align=left;verticalAlign=middle;resizable=0;points=[];fontSize=13;" vertex="1" connectable="0" parent="NwhNxAAmWLPMmotNrUEd-13">
          <mxGeometry x="-0.1375" y="2" relative="1" as="geometry">
            <mxPoint x="-158" y="-8" as="offset" />
          </mxGeometry>
        </mxCell>
        <mxCell id="NwhNxAAmWLPMmotNrUEd-16" value="tmp_counter" style="rounded=0;whiteSpace=wrap;html=1;" vertex="1" parent="NwhNxAAmWLPMmotNrUEd-49">
          <mxGeometry x="160" y="100" width="100" height="110" as="geometry" />
        </mxCell>
        <mxCell id="NwhNxAAmWLPMmotNrUEd-17" value="counter" style="rounded=0;whiteSpace=wrap;html=1;" vertex="1" parent="NwhNxAAmWLPMmotNrUEd-49">
          <mxGeometry x="350" y="100" width="100" height="110" as="geometry" />
        </mxCell>
        <mxCell id="NwhNxAAmWLPMmotNrUEd-21" value="" style="endArrow=classic;html=1;rounded=0;entryX=0.5;entryY=0;entryDx=0;entryDy=0;" edge="1" parent="NwhNxAAmWLPMmotNrUEd-49" target="NwhNxAAmWLPMmotNrUEd-16">
          <mxGeometry width="50" height="50" relative="1" as="geometry">
            <mxPoint x="210" y="40" as="sourcePoint" />
            <mxPoint x="220" y="-20" as="targetPoint" />
            <Array as="points">
              <mxPoint x="210" y="70" />
            </Array>
          </mxGeometry>
        </mxCell>
        <mxCell id="NwhNxAAmWLPMmotNrUEd-23" value="" style="group" vertex="1" connectable="0" parent="NwhNxAAmWLPMmotNrUEd-49">
          <mxGeometry x="450" y="150" width="160" as="geometry" />
        </mxCell>
        <mxCell id="NwhNxAAmWLPMmotNrUEd-24" value="" style="endArrow=dash;html=1;rounded=0;endFill=0;" edge="1" parent="NwhNxAAmWLPMmotNrUEd-23">
          <mxGeometry width="50" height="50" relative="1" as="geometry">
            <mxPoint as="sourcePoint" />
            <mxPoint x="80" as="targetPoint" />
            <Array as="points">
              <mxPoint x="16" />
              <mxPoint x="64" />
            </Array>
          </mxGeometry>
        </mxCell>
        <mxCell id="NwhNxAAmWLPMmotNrUEd-25" value="out_pc" style="edgeLabel;html=1;align=left;verticalAlign=middle;resizable=0;points=[];fontSize=13;" vertex="1" connectable="0" parent="NwhNxAAmWLPMmotNrUEd-24">
          <mxGeometry x="-0.0133" y="-1" relative="1" as="geometry">
            <mxPoint x="11" y="-11" as="offset" />
          </mxGeometry>
        </mxCell>
        <mxCell id="NwhNxAAmWLPMmotNrUEd-26" value="5" style="edgeLabel;html=1;align=center;verticalAlign=middle;resizable=0;points=[];" vertex="1" connectable="0" parent="NwhNxAAmWLPMmotNrUEd-24">
          <mxGeometry x="-0.2" y="1" relative="1" as="geometry">
            <mxPoint x="38" y="11" as="offset" />
          </mxGeometry>
        </mxCell>
        <mxCell id="NwhNxAAmWLPMmotNrUEd-27" value="" style="endArrow=classic;html=1;rounded=0;" edge="1" parent="NwhNxAAmWLPMmotNrUEd-23">
          <mxGeometry width="50" height="50" relative="1" as="geometry">
            <mxPoint x="80" as="sourcePoint" />
            <mxPoint x="160" as="targetPoint" />
          </mxGeometry>
        </mxCell>
        <mxCell id="NwhNxAAmWLPMmotNrUEd-28" value="" style="endArrow=classic;html=1;rounded=0;" edge="1" parent="NwhNxAAmWLPMmotNrUEd-49">
          <mxGeometry width="50" height="50" relative="1" as="geometry">
            <mxPoint y="70" as="sourcePoint" />
            <mxPoint x="370" y="100" as="targetPoint" />
            <Array as="points">
              <mxPoint x="370" y="70" />
            </Array>
          </mxGeometry>
        </mxCell>
        <mxCell id="NwhNxAAmWLPMmotNrUEd-29" value="&lt;font&gt;clk_pc&amp;nbsp;&lt;/font&gt;" style="edgeLabel;html=1;align=left;verticalAlign=middle;resizable=0;points=[];fontSize=13;" vertex="1" connectable="0" parent="NwhNxAAmWLPMmotNrUEd-28">
          <mxGeometry x="-0.1375" y="2" relative="1" as="geometry">
            <mxPoint x="-133" y="-8" as="offset" />
          </mxGeometry>
        </mxCell>
        <mxCell id="NwhNxAAmWLPMmotNrUEd-30" value="" style="endArrow=classic;html=1;rounded=0;entryX=0;entryY=0.25;entryDx=0;entryDy=0;" edge="1" parent="NwhNxAAmWLPMmotNrUEd-49">
          <mxGeometry width="50" height="50" relative="1" as="geometry">
            <mxPoint y="110" as="sourcePoint" />
            <mxPoint x="160" y="110" as="targetPoint" />
          </mxGeometry>
        </mxCell>
        <mxCell id="NwhNxAAmWLPMmotNrUEd-31" value="sel_pc" style="edgeLabel;html=1;align=left;verticalAlign=middle;resizable=0;points=[];fontSize=13;" vertex="1" connectable="0" parent="NwhNxAAmWLPMmotNrUEd-30">
          <mxGeometry x="-0.194" y="1" relative="1" as="geometry">
            <mxPoint x="-25" y="-9" as="offset" />
          </mxGeometry>
        </mxCell>
        <mxCell id="NwhNxAAmWLPMmotNrUEd-32" value="" style="endArrow=classic;html=1;rounded=0;entryX=0;entryY=0.25;entryDx=0;entryDy=0;" edge="1" parent="NwhNxAAmWLPMmotNrUEd-49">
          <mxGeometry width="50" height="50" relative="1" as="geometry">
            <mxPoint y="139" as="sourcePoint" />
            <mxPoint x="160" y="139.42999999999995" as="targetPoint" />
            <Array as="points">
              <mxPoint x="120" y="139.42999999999995" />
            </Array>
          </mxGeometry>
        </mxCell>
        <mxCell id="NwhNxAAmWLPMmotNrUEd-33" value="inc_pc" style="edgeLabel;html=1;align=left;verticalAlign=middle;resizable=0;points=[];fontSize=13;" vertex="1" connectable="0" parent="NwhNxAAmWLPMmotNrUEd-32">
          <mxGeometry x="-0.2298" y="-1" relative="1" as="geometry">
            <mxPoint x="-22" y="-11" as="offset" />
          </mxGeometry>
        </mxCell>
        <mxCell id="NwhNxAAmWLPMmotNrUEd-34" value="" style="endArrow=classic;html=1;rounded=0;entryX=0;entryY=0.25;entryDx=0;entryDy=0;" edge="1" parent="NwhNxAAmWLPMmotNrUEd-49">
          <mxGeometry width="50" height="50" relative="1" as="geometry">
            <mxPoint y="170" as="sourcePoint" />
            <mxPoint x="160" y="170" as="targetPoint" />
          </mxGeometry>
        </mxCell>
        <mxCell id="NwhNxAAmWLPMmotNrUEd-35" value="ld_pc" style="edgeLabel;html=1;align=left;verticalAlign=middle;resizable=0;points=[];fontSize=13;" vertex="1" connectable="0" parent="NwhNxAAmWLPMmotNrUEd-34">
          <mxGeometry x="-0.206" y="-1" relative="1" as="geometry">
            <mxPoint x="-23" y="-11" as="offset" />
          </mxGeometry>
        </mxCell>
        <mxCell id="NwhNxAAmWLPMmotNrUEd-36" value="" style="group" vertex="1" connectable="0" parent="NwhNxAAmWLPMmotNrUEd-49">
          <mxGeometry y="200" width="160" height="0.4" as="geometry" />
        </mxCell>
        <mxCell id="NwhNxAAmWLPMmotNrUEd-37" value="" style="endArrow=dash;html=1;rounded=0;endFill=0;" edge="1" parent="NwhNxAAmWLPMmotNrUEd-36">
          <mxGeometry width="50" height="50" relative="1" as="geometry">
            <mxPoint as="sourcePoint" />
            <mxPoint x="99.60159362549794" as="targetPoint" />
            <Array as="points">
              <mxPoint x="79.68127490039836" />
            </Array>
          </mxGeometry>
        </mxCell>
        <mxCell id="NwhNxAAmWLPMmotNrUEd-38" value="jmp_pc" style="edgeLabel;html=1;align=left;verticalAlign=middle;resizable=0;points=[];fontSize=13;" vertex="1" connectable="0" parent="NwhNxAAmWLPMmotNrUEd-37">
          <mxGeometry x="-0.0133" y="-1" relative="1" as="geometry">
            <mxPoint x="-9" y="-11" as="offset" />
          </mxGeometry>
        </mxCell>
        <mxCell id="NwhNxAAmWLPMmotNrUEd-39" value="5" style="edgeLabel;html=1;align=center;verticalAlign=middle;resizable=0;points=[];" vertex="1" connectable="0" parent="NwhNxAAmWLPMmotNrUEd-37">
          <mxGeometry x="-0.2" y="1" relative="1" as="geometry">
            <mxPoint x="50" y="11" as="offset" />
          </mxGeometry>
        </mxCell>
        <mxCell id="NwhNxAAmWLPMmotNrUEd-40" value="" style="endArrow=classic;html=1;rounded=0;entryX=0.002;entryY=0.44;entryDx=0;entryDy=0;entryPerimeter=0;" edge="1" parent="NwhNxAAmWLPMmotNrUEd-36">
          <mxGeometry width="50" height="50" relative="1" as="geometry">
            <mxPoint x="99.60159362549794" as="sourcePoint" />
            <mxPoint x="160" y="0.4" as="targetPoint" />
            <Array as="points" />
          </mxGeometry>
        </mxCell>
        <mxCell id="NwhNxAAmWLPMmotNrUEd-41" value="" style="endArrow=classic;html=1;rounded=0;" edge="1" parent="NwhNxAAmWLPMmotNrUEd-49">
          <mxGeometry width="50" height="50" relative="1" as="geometry">
            <mxPoint x="180" y="70" as="sourcePoint" />
            <mxPoint x="180" y="100" as="targetPoint" />
          </mxGeometry>
        </mxCell>
        <mxCell id="NwhNxAAmWLPMmotNrUEd-43" value="" style="group" vertex="1" connectable="0" parent="NwhNxAAmWLPMmotNrUEd-49">
          <mxGeometry x="260" y="160" width="90" height="0.4" as="geometry" />
        </mxCell>
        <mxCell id="NwhNxAAmWLPMmotNrUEd-44" value="" style="endArrow=dash;html=1;rounded=0;endFill=0;" edge="1" parent="NwhNxAAmWLPMmotNrUEd-43">
          <mxGeometry width="50" height="50" relative="1" as="geometry">
            <mxPoint as="sourcePoint" />
            <mxPoint x="56.02589641434259" as="targetPoint" />
            <Array as="points">
              <mxPoint x="44.82071713147407" />
            </Array>
          </mxGeometry>
        </mxCell>
        <mxCell id="NwhNxAAmWLPMmotNrUEd-45" value="out_tmp_pc" style="edgeLabel;html=1;align=left;verticalAlign=middle;resizable=0;points=[];fontSize=13;" vertex="1" connectable="0" parent="NwhNxAAmWLPMmotNrUEd-44">
          <mxGeometry x="-0.0133" y="-1" relative="1" as="geometry">
            <mxPoint x="-22" y="-11" as="offset" />
          </mxGeometry>
        </mxCell>
        <mxCell id="NwhNxAAmWLPMmotNrUEd-46" value="5" style="edgeLabel;html=1;align=center;verticalAlign=middle;resizable=0;points=[];" vertex="1" connectable="0" parent="NwhNxAAmWLPMmotNrUEd-44">
          <mxGeometry x="-0.2" y="1" relative="1" as="geometry">
            <mxPoint x="20" y="11" as="offset" />
          </mxGeometry>
        </mxCell>
        <mxCell id="NwhNxAAmWLPMmotNrUEd-47" value="" style="endArrow=classic;html=1;rounded=0;entryX=0.002;entryY=0.44;entryDx=0;entryDy=0;entryPerimeter=0;" edge="1" parent="NwhNxAAmWLPMmotNrUEd-43">
          <mxGeometry width="50" height="50" relative="1" as="geometry">
            <mxPoint x="56.02589641434259" as="sourcePoint" />
            <mxPoint x="90" y="0.4" as="targetPoint" />
            <Array as="points" />
          </mxGeometry>
        </mxCell>
        <mxCell id="NwhNxAAmWLPMmotNrUEd-48" value="&lt;i&gt;&lt;b&gt;&lt;u&gt;proggram counter&lt;/u&gt;&lt;/b&gt;&lt;/i&gt;" style="text;html=1;align=center;verticalAlign=middle;resizable=0;points=[];autosize=1;" vertex="1" parent="NwhNxAAmWLPMmotNrUEd-49">
          <mxGeometry x="225" width="130" height="30" as="geometry" />
        </mxCell>
      </root>
    </mxGraphModel>
  </diagram>
</mxfile>
